<svg viewBox="-667.6711395993633 -693.5290039756344 3265.2917728599004 3265.2917728598977" xmlns="http://www.w3.org/2000/svg"><path d="M 0 0 L 7.0711 -7.0711 L 14.1421 0.0000 L 24.1421 0.0000 L 24.1421 -10.0000 L 24.1421 -20.0000 L 17.0711 -27.0711 L 17.0711 -37.0711 L 24.1421 -44.1421 L 31.2132 -51.2132 L 38.2843 -44.1421 L 38.2843 -34.1421 L 48.2843 -34.1421 L 55.3553 -41.2132 L 62.4264 -48.2843 L 72.4264 -48.2843 L 79.4975 -41.2132 L 86.5685 -34.1421 L 79.4975 -27.0711 L 69.4975 -27.0711 L 69.4975 -17.0711 L 76.5685 -10.0000 L 83.6396 -2.9289 L 93.6396 -2.9289 L 100.7107 4.1421 L 93.6396 11.2132 L 93.6396 21.2132 L 103.6396 21.2132 L 113.6396 21.2132 L 120.7107 14.1421 L 120.7107 4.1421 L 127.7817 -2.9289 L 134.8528 4.1421 L 144.8528 4.1421 L 144.8528 -5.8579 L 144.8528 -15.8579 L 137.7817 -22.9289 L 137.7817 -32.9289 L 144.8528 -40.0000 L 151.9239 -32.9289 L 161.9239 -32.9289 L 161.9239 -42.9289 L 161.9239 -52.9289 L 154.8528 -60.0000 L 144.8528 -60.0000 L 137.7817 -67.0711 L 130.7107 -74.1421 L 137.7817 -81.2132 L 147.7817 -81.2132 L 147.7817 -91.2132 L 140.7107 -98.2843 L 133.6396 -105.3553 L 140.7107 -112.4264 L 147.7817 -105.3553 L 157.7817 -105.3553 L 157.7817 -115.3553 L 157.7817 -125.3553 L 150.7107 -132.4264 L 150.7107 -142.4264 L 157.7817 -149.4975 L 164.8528 -142.4264 L 174.8528 -142.4264 L 174.8528 -152.4264 L 174.8528 -162.4264 L 167.7817 -169.4975 L 167.7817 -179.4975 L 174.8528 -186.5685 L 181.9239 -193.6396 L 188.9949 -186.5685 L 188.9949 -176.5685 L 198.9949 -176.5685 L 206.0660 -183.6396 L 213.1371 -190.7107 L 213.1371 -200.7107 L 220.2082 -207.7817 L 227.2792 -214.8528 L 234.3503 -207.7817 L 234.3503 -197.7817 L 244.3503 -197.7817 L 251.4214 -204.8528 L 258.4924 -211.9239 L 268.4924 -211.9239 L 275.5635 -204.8528 L 282.6346 -197.7817 L 275.5635 -190.7107 L 265.5635 -190.7107 L 265.5635 -180.7107 L 272.6346 -173.6396 L 279.7056 -166.5685 L 279.7056 -156.5685 L 272.6346 -149.4975 L 265.5635 -156.5685 L 255.5635 -156.5685 L 255.5635 -146.5685 L 255.5635 -136.5685 L 262.6346 -129.4975 L 272.6346 -129.4975 L 279.7056 -122.4264 L 272.6346 -115.3553 L 272.6346 -105.3553 L 282.6346 -105.3553 L 292.6346 -105.3553 L 299.7056 -112.4264 L 299.7056 -122.4264 L 306.7767 -129.4975 L 313.8478 -136.5685 L 320.9188 -129.4975 L 320.9188 -119.4975 L 330.9188 -119.4975 L 337.9899 -126.5685 L 345.0610 -133.6396 L 352.1320 -140.7107 L 362.1320 -140.7107 L 369.2031 -133.6396 L 362.1320 -126.5685 L 362.1320 -116.5685 L 372.1320 -116.5685 L 382.1320 -116.5685 L 389.2031 -123.6396 L 399.2031 -123.6396 L 406.2742 -116.5685 L 413.3452 -109.4975 L 406.2742 -102.4264 L 396.2742 -102.4264 L 396.2742 -92.4264 L 403.3452 -85.3553 L 410.4163 -78.2843 L 420.4163 -78.2843 L 427.4874 -71.2132 L 434.5584 -64.1421 L 427.4874 -57.0711 L 417.4874 -57.0711 L 417.4874 -47.0711 L 424.5584 -40.0000 L 431.6295 -32.9289 L 431.6295 -22.9289 L 424.5584 -15.8579 L 417.4874 -8.7868 L 410.4163 -15.8579 L 410.4163 -25.8579 L 400.4163 -25.8579 L 393.3452 -18.7868 L 386.2742 -11.7157 L 376.2742 -11.7157 L 369.2031 -18.7868 L 376.2742 -25.8579 L 376.2742 -35.8579 L 366.2742 -35.8579 L 356.2742 -35.8579 L 349.2031 -28.7868 L 349.2031 -18.7868 L 342.1320 -11.7157 L 335.0610 -18.7868 L 325.0610 -18.7868 L 325.0610 -8.7868 L 325.0610 1.2132 L 332.1320 8.2843 L 342.1320 8.2843 L 349.2031 15.3553 L 356.2742 22.4264 L 349.2031 29.4975 L 339.2031 29.4975 L 339.2031 39.4975 L 346.2742 46.5685 L 353.3452 53.6396 L 360.4163 60.7107 L 370.4163 60.7107 L 377.4874 67.7817 L 370.4163 74.8528 L 370.4163 84.8528 L 380.4163 84.8528 L 390.4163 84.8528 L 397.4874 77.7817 L 407.4874 77.7817 L 414.5584 84.8528 L 421.6295 91.9239 L 414.5584 98.9949 L 404.5584 98.9949 L 404.5584 108.9949 L 411.6295 116.0660 L 418.7006 123.1371 L 418.7006 133.1371 L 411.6295 140.2082 L 404.5584 147.2792 L 397.4874 140.2082 L 397.4874 130.2082 L 387.4874 130.2082 L 380.4163 137.2792 L 373.3452 144.3503 L 373.3452 154.3503 L 366.2742 161.4214 L 359.2031 154.3503 L 349.2031 154.3503 L 349.2031 164.3503 L 349.2031 174.3503 L 356.2742 181.4214 L 366.2742 181.4214 L 373.3452 188.4924 L 366.2742 195.5635 L 366.2742 205.5635 L 376.2742 205.5635 L 386.2742 205.5635 L 393.3452 198.4924 L 403.3452 198.4924 L 410.4163 205.5635 L 403.3452 212.6346 L 403.3452 222.6346 L 413.3452 222.6346 L 423.3452 222.6346 L 430.4163 215.5635 L 430.4163 205.5635 L 437.4874 198.4924 L 444.5584 191.4214 L 451.6295 198.4924 L 451.6295 208.4924 L 461.6295 208.4924 L 468.7006 201.4214 L 475.7716 194.3503 L 482.8427 201.4214 L 475.7716 208.4924 L 475.7716 218.4924 L 485.7716 218.4924 L 495.7716 218.4924 L 502.8427 211.4214 L 502.8427 201.4214 L 509.9138 194.3503 L 516.9848 201.4214 L 526.9848 201.4214 L 526.9848 191.4214 L 526.9848 181.4214 L 519.9138 174.3503 L 519.9138 164.3503 L 526.9848 157.2792 L 534.0559 150.2082 L 541.1270 157.2792 L 541.1270 167.2792 L 551.1270 167.2792 L 558.1981 160.2082 L 565.2691 153.1371 L 575.2691 153.1371 L 582.3402 160.2082 L 589.4113 167.2792 L 582.3402 174.3503 L 572.3402 174.3503 L 572.3402 184.3503 L 579.4113 191.4214 L 586.4823 198.4924 L 596.4823 198.4924 L 603.5534 205.5635 L 596.4823 212.6346 L 596.4823 222.6346 L 606.4823 222.6346 L 616.4823 222.6346 L 623.5534 215.5635 L 623.5534 205.5635 L 630.6245 198.4924 L 637.6955 205.5635 L 647.6955 205.5635 L 647.6955 195.5635 L 647.6955 185.5635 L 640.6245 178.4924 L 640.6245 168.4924 L 647.6955 161.4214 L 654.7666 168.4924 L 664.7666 168.4924 L 664.7666 158.4924 L 664.7666 148.4924 L 657.6955 141.4214 L 647.6955 141.4214 L 640.6245 134.3503 L 633.5534 127.2792 L 640.6245 120.2082 L 650.6245 120.2082 L 650.6245 110.2082 L 643.5534 103.1371 L 636.4823 96.0660 L 643.5534 88.9949 L 650.6245 96.0660 L 660.6245 96.0660 L 660.6245 86.0660 L 660.6245 76.0660 L 653.5534 68.9949 L 653.5534 58.9949 L 660.6245 51.9239 L 667.6955 58.9949 L 677.6955 58.9949 L 677.6955 48.9949 L 677.6955 38.9949 L 670.6245 31.9239 L 670.6245 21.9239 L 677.6955 14.8528 L 684.7666 7.7817 L 691.8377 14.8528 L 691.8377 24.8528 L 701.8377 24.8528 L 708.9087 17.7817 L 715.9798 10.7107 L 725.9798 10.7107 L 733.0509 17.7817 L 740.1219 24.8528 L 733.0509 31.9239 L 723.0509 31.9239 L 723.0509 41.9239 L 730.1219 48.9949 L 737.1930 56.0660 L 747.1930 56.0660 L 754.2641 63.1371 L 747.1930 70.2082 L 747.1930 80.2082 L 757.1930 80.2082 L 767.1930 80.2082 L 774.2641 73.1371 L 774.2641 63.1371 L 781.3351 56.0660 L 788.4062 63.1371 L 798.4062 63.1371 L 798.4062 53.1371 L 798.4062 43.1371 L 791.3351 36.0660 L 791.3351 26.0660 L 798.4062 18.9949 L 805.4773 26.0660 L 815.4773 26.0660 L 815.4773 16.0660 L 815.4773 6.0660 L 808.4062 -1.0051 L 798.4062 -1.0051 L 791.3351 -8.0761 L 784.2641 -15.1472 L 791.3351 -22.2183 L 801.3351 -22.2183 L 801.3351 -32.2183 L 794.2641 -39.2893 L 787.1930 -46.3604 L 794.2641 -53.4315 L 801.3351 -46.3604 L 811.3351 -46.3604 L 811.3351 -56.3604 L 811.3351 -66.3604 L 804.2641 -73.4315 L 794.2641 -73.4315 L 787.1930 -80.5025 L 794.2641 -87.5736 L 794.2641 -97.5736 L 784.2641 -97.5736 L 774.2641 -97.5736 L 767.1930 -90.5025 L 757.1930 -90.5025 L 750.1219 -97.5736 L 743.0509 -104.6447 L 750.1219 -111.7157 L 760.1219 -111.7157 L 760.1219 -121.7157 L 753.0509 -128.7868 L 745.9798 -135.8579 L 735.9798 -135.8579 L 728.9087 -142.9289 L 721.8377 -150.0000 L 728.9087 -157.0711 L 738.9087 -157.0711 L 738.9087 -167.0711 L 731.8377 -174.1421 L 724.7666 -181.2132 L 724.7666 -191.2132 L 731.8377 -198.2843 L 738.9087 -205.3553 L 745.9798 -198.2843 L 745.9798 -188.2843 L 755.9798 -188.2843 L 763.0509 -195.3553 L 770.1219 -202.4264 L 780.1219 -202.4264 L 787.1930 -195.3553 L 780.1219 -188.2843 L 780.1219 -178.2843 L 790.1219 -178.2843 L 800.1219 -178.2843 L 807.1930 -185.3553 L 807.1930 -195.3553 L 814.2641 -202.4264 L 821.3351 -195.3553 L 831.3351 -195.3553 L 831.3351 -205.3553 L 831.3351 -215.3553 L 824.2641 -222.4264 L 814.2641 -222.4264 L 807.1930 -229.4975 L 800.1219 -236.5685 L 807.1930 -243.6396 L 817.1930 -243.6396 L 817.1930 -253.6396 L 810.1219 -260.7107 L 803.0509 -267.7817 L 795.9798 -274.8528 L 803.0509 -281.9239 L 810.1219 -274.8528 L 820.1219 -274.8528 L 820.1219 -284.8528 L 820.1219 -294.8528 L 813.0509 -301.9239 L 813.0509 -311.9239 L 820.1219 -318.9949 L 827.1930 -326.0660 L 834.2641 -318.9949 L 834.2641 -308.9949 L 844.2641 -308.9949 L 851.3351 -316.0660 L 858.4062 -323.1371 L 868.4062 -323.1371 L 875.4773 -316.0660 L 882.5483 -308.9949 L 875.4773 -301.9239 L 865.4773 -301.9239 L 865.4773 -291.9239 L 872.5483 -284.8528 L 879.6194 -277.7817 L 889.6194 -277.7817 L 896.6905 -270.7107 L 889.6194 -263.6396 L 889.6194 -253.6396 L 899.6194 -253.6396 L 909.6194 -253.6396 L 916.6905 -260.7107 L 916.6905 -270.7107 L 923.7615 -277.7817 L 930.8326 -270.7107 L 940.8326 -270.7107 L 940.8326 -280.7107 L 940.8326 -290.7107 L 933.7615 -297.7817 L 933.7615 -307.7817 L 940.8326 -314.8528 L 947.9037 -307.7817 L 957.9037 -307.7817 L 957.9037 -317.7817 L 957.9037 -327.7817 L 950.8326 -334.8528 L 940.8326 -334.8528 L 933.7615 -341.9239 L 926.6905 -348.9949 L 933.7615 -356.0660 L 943.7615 -356.0660 L 943.7615 -366.0660 L 936.6905 -373.1371 L 929.6194 -380.2082 L 936.6905 -387.2792 L 943.7615 -380.2082 L 953.7615 -380.2082 L 953.7615 -390.2082 L 953.7615 -400.2082 L 946.6905 -407.2792 L 956.6905 -407.2792 L 956.6905 -397.2792 L 963.7615 -390.2082 L 970.8326 -397.2792 L 977.9037 -404.3503 L 977.9037 -414.3503 L 984.9747 -421.4214 L 994.9747 -421.4214 L 1004.9747 -421.4214 L 1004.9747 -411.4214 L 997.9037 -404.3503 L 1004.9747 -397.2792 L 1014.9747 -397.2792 L 1024.9747 -397.2792 L 1032.0458 -390.2082 L 1032.0458 -380.2082 L 1032.0458 -370.2082 L 1022.0458 -370.2082 L 1014.9747 -377.2792 L 1007.9037 -370.2082 L 1007.9037 -360.2082 L 1007.9037 -350.2082 L 1014.9747 -343.1371 L 1014.9747 -333.1371 L 1004.9747 -333.1371 L 997.9037 -326.0660 L 1004.9747 -318.9949 L 1012.0458 -311.9239 L 1022.0458 -311.9239 L 1029.1169 -318.9949 L 1039.1169 -318.9949 L 1039.1169 -308.9949 L 1046.1880 -301.9239 L 1053.2590 -308.9949 L 1060.3301 -316.0660 L 1060.3301 -326.0660 L 1067.4012 -333.1371 L 1077.4012 -333.1371 L 1077.4012 -323.1371 L 1084.4722 -316.0660 L 1091.5433 -323.1371 L 1098.6144 -330.2082 L 1098.6144 -340.2082 L 1091.5433 -347.2792 L 1091.5433 -357.2792 L 1091.5433 -367.2792 L 1101.5433 -367.2792 L 1108.6144 -360.2082 L 1115.6854 -367.2792 L 1115.6854 -377.2792 L 1115.6854 -387.2792 L 1125.6854 -387.2792 L 1125.6854 -377.2792 L 1132.7565 -370.2082 L 1139.8276 -377.2792 L 1146.8986 -384.3503 L 1146.8986 -394.3503 L 1153.9697 -401.4214 L 1163.9697 -401.4214 L 1163.9697 -391.4214 L 1171.0408 -384.3503 L 1178.1118 -391.4214 L 1185.1829 -398.4924 L 1185.1829 -408.4924 L 1192.2540 -415.5635 L 1202.2540 -415.5635 L 1212.2540 -415.5635 L 1212.2540 -405.5635 L 1205.1829 -398.4924 L 1212.2540 -391.4214 L 1222.2540 -391.4214 L 1232.2540 -391.4214 L 1239.3250 -398.4924 L 1249.3250 -398.4924 L 1259.3250 -398.4924 L 1259.3250 -388.4924 L 1252.2540 -381.4214 L 1259.3250 -374.3503 L 1269.3250 -374.3503 L 1279.3250 -374.3503 L 1286.3961 -367.2792 L 1286.3961 -357.2792 L 1286.3961 -347.2792 L 1276.3961 -347.2792 L 1269.3250 -354.3503 L 1262.2540 -347.2792 L 1262.2540 -337.2792 L 1262.2540 -327.2792 L 1255.1829 -320.2082 L 1245.1829 -320.2082 L 1245.1829 -330.2082 L 1238.1118 -337.2792 L 1231.0408 -330.2082 L 1223.9697 -323.1371 L 1223.9697 -313.1371 L 1231.0408 -306.0660 L 1231.0408 -296.0660 L 1221.0408 -296.0660 L 1213.9697 -288.9949 L 1221.0408 -281.9239 L 1228.1118 -274.8528 L 1238.1118 -274.8528 L 1245.1829 -281.9239 L 1255.1829 -281.9239 L 1265.1829 -281.9239 L 1265.1829 -271.9239 L 1258.1118 -264.8528 L 1265.1829 -257.7817 L 1275.1829 -257.7817 L 1285.1829 -257.7817 L 1295.1829 -257.7817 L 1302.2540 -250.7107 L 1302.2540 -240.7107 L 1292.2540 -240.7107 L 1285.1829 -233.6396 L 1292.2540 -226.5685 L 1299.3250 -219.4975 L 1309.3250 -219.4975 L 1316.3961 -212.4264 L 1316.3961 -202.4264 L 1316.3961 -192.4264 L 1306.3961 -192.4264 L 1299.3250 -199.4975 L 1292.2540 -192.4264 L 1292.2540 -182.4264 L 1292.2540 -172.4264 L 1299.3250 -165.3553 L 1299.3250 -155.3553 L 1299.3250 -145.3553 L 1289.3250 -145.3553 L 1282.2540 -152.4264 L 1275.1829 -145.3553 L 1275.1829 -135.3553 L 1275.1829 -125.3553 L 1268.1118 -118.2843 L 1258.1118 -118.2843 L 1248.1118 -118.2843 L 1248.1118 -128.2843 L 1255.1829 -135.3553 L 1248.1118 -142.4264 L 1238.1118 -142.4264 L 1228.1118 -142.4264 L 1221.0408 -149.4975 L 1221.0408 -159.4975 L 1231.0408 -159.4975 L 1238.1118 -166.5685 L 1231.0408 -173.6396 L 1223.9697 -180.7107 L 1213.9697 -180.7107 L 1206.8986 -173.6396 L 1196.8986 -173.6396 L 1196.8986 -183.6396 L 1189.8276 -190.7107 L 1182.7565 -183.6396 L 1175.6854 -176.5685 L 1175.6854 -166.5685 L 1182.7565 -159.4975 L 1182.7565 -149.4975 L 1182.7565 -139.4975 L 1172.7565 -139.4975 L 1165.6854 -146.5685 L 1158.6144 -139.4975 L 1158.6144 -129.4975 L 1158.6144 -119.4975 L 1158.6144 -109.4975 L 1165.6854 -102.4264 L 1165.6854 -92.4264 L 1155.6854 -92.4264 L 1148.6144 -85.3553 L 1155.6854 -78.2843 L 1162.7565 -71.2132 L 1172.7565 -71.2132 L 1179.8276 -64.1421 L 1179.8276 -54.1421 L 1179.8276 -44.1421 L 1169.8276 -44.1421 L 1162.7565 -51.2132 L 1155.6854 -44.1421 L 1155.6854 -34.1421 L 1155.6854 -24.1421 L 1148.6144 -17.0711 L 1138.6144 -17.0711 L 1128.6144 -17.0711 L 1128.6144 -27.0711 L 1135.6854 -34.1421 L 1128.6144 -41.2132 L 1118.6144 -41.2132 L 1108.6144 -41.2132 L 1101.5433 -34.1421 L 1091.5433 -34.1421 L 1091.5433 -44.1421 L 1084.4722 -51.2132 L 1077.4012 -44.1421 L 1070.3301 -37.0711 L 1070.3301 -27.0711 L 1077.4012 -20.0000 L 1077.4012 -10.0000 L 1067.4012 -10.0000 L 1060.3301 -2.9289 L 1067.4012 4.1421 L 1074.4722 11.2132 L 1084.4722 11.2132 L 1091.5433 18.2843 L 1091.5433 28.2843 L 1081.5433 28.2843 L 1074.4722 35.3553 L 1081.5433 42.4264 L 1088.6144 49.4975 L 1098.6144 49.4975 L 1105.6854 42.4264 L 1115.6854 42.4264 L 1125.6854 42.4264 L 1125.6854 52.4264 L 1118.6144 59.4975 L 1125.6854 66.5685 L 1135.6854 66.5685 L 1145.6854 66.5685 L 1145.6854 76.5685 L 1135.6854 76.5685 L 1128.6144 83.6396 L 1135.6854 90.7107 L 1142.7565 97.7817 L 1152.7565 97.7817 L 1159.8276 90.7107 L 1169.8276 90.7107 L 1169.8276 100.7107 L 1176.8986 107.7817 L 1183.9697 100.7107 L 1191.0408 93.6396 L 1191.0408 83.6396 L 1198.1118 76.5685 L 1208.1118 76.5685 L 1218.1118 76.5685 L 1218.1118 86.5685 L 1211.0408 93.6396 L 1218.1118 100.7107 L 1228.1118 100.7107 L 1238.1118 100.7107 L 1245.1829 107.7817 L 1245.1829 117.7817 L 1245.1829 127.7817 L 1235.1829 127.7817 L 1228.1118 120.7107 L 1221.0408 127.7817 L 1221.0408 137.7817 L 1221.0408 147.7817 L 1228.1118 154.8528 L 1228.1118 164.8528 L 1218.1118 164.8528 L 1211.0408 171.9239 L 1218.1118 178.9949 L 1225.1829 186.0660 L 1235.1829 186.0660 L 1242.2540 178.9949 L 1252.2540 178.9949 L 1252.2540 188.9949 L 1259.3250 196.0660 L 1266.3961 188.9949 L 1273.4672 181.9239 L 1273.4672 171.9239 L 1280.5382 164.8528 L 1290.5382 164.8528 L 1290.5382 174.8528 L 1297.6093 181.9239 L 1304.6804 174.8528 L 1311.7514 167.7817 L 1311.7514 157.7817 L 1304.6804 150.7107 L 1304.6804 140.7107 L 1304.6804 130.7107 L 1314.6804 130.7107 L 1321.7514 137.7817 L 1328.8225 130.7107 L 1328.8225 120.7107 L 1328.8225 110.7107 L 1338.8225 110.7107 L 1338.8225 120.7107 L 1345.8936 127.7817 L 1352.9646 120.7107 L 1360.0357 113.6396 L 1360.0357 103.6396 L 1367.1068 96.5685 L 1377.1068 96.5685 L 1377.1068 106.5685 L 1384.1778 113.6396 L 1391.2489 106.5685 L 1398.3200 99.4975 L 1398.3200 89.4975 L 1405.3911 82.4264 L 1415.3911 82.4264 L 1425.3911 82.4264 L 1425.3911 92.4264 L 1418.3200 99.4975 L 1425.3911 106.5685 L 1435.3911 106.5685 L 1445.3911 106.5685 L 1452.4621 113.6396 L 1452.4621 123.6396 L 1452.4621 133.6396 L 1442.4621 133.6396 L 1435.3911 126.5685 L 1428.3200 133.6396 L 1428.3200 143.6396 L 1428.3200 153.6396 L 1435.3911 160.7107 L 1435.3911 170.7107 L 1425.3911 170.7107 L 1418.3200 177.7817 L 1425.3911 184.8528 L 1432.4621 191.9239 L 1442.4621 191.9239 L 1449.5332 184.8528 L 1459.5332 184.8528 L 1459.5332 194.8528 L 1466.6043 201.9239 L 1473.6753 194.8528 L 1480.7464 187.7817 L 1480.7464 177.7817 L 1487.8175 170.7107 L 1497.8175 170.7107 L 1497.8175 180.7107 L 1504.8885 187.7817 L 1511.9596 180.7107 L 1519.0307 173.6396 L 1519.0307 163.6396 L 1511.9596 156.5685 L 1511.9596 146.5685 L 1511.9596 136.5685 L 1521.9596 136.5685 L 1529.0307 143.6396 L 1536.1017 136.5685 L 1536.1017 126.5685 L 1536.1017 116.5685 L 1546.1017 116.5685 L 1546.1017 126.5685 L 1553.1728 133.6396 L 1560.2439 126.5685 L 1567.3149 119.4975 L 1567.3149 109.4975 L 1560.2439 102.4264 L 1560.2439 92.4264 L 1570.2439 92.4264 L 1577.3149 85.3553 L 1570.2439 78.2843 L 1563.1728 71.2132 L 1553.1728 71.2132 L 1546.1017 64.1421 L 1546.1017 54.1421 L 1546.1017 44.1421 L 1556.1017 44.1421 L 1563.1728 51.2132 L 1570.2439 44.1421 L 1570.2439 34.1421 L 1570.2439 24.1421 L 1563.1728 17.0711 L 1563.1728 7.0711 L 1563.1728 -2.9289 L 1573.1728 -2.9289 L 1580.2439 4.1421 L 1587.3149 -2.9289 L 1587.3149 -12.9289 L 1587.3149 -22.9289 L 1594.3860 -30.0000 L 1604.3860 -30.0000 L 1614.3860 -30.0000 L 1614.3860 -20.0000 L 1607.3149 -12.9289 L 1614.3860 -5.8579 L 1624.3860 -5.8579 L 1634.3860 -5.8579 L 1641.4571 1.2132 L 1641.4571 11.2132 L 1631.4571 11.2132 L 1624.3860 18.2843 L 1631.4571 25.3553 L 1638.5281 32.4264 L 1648.5281 32.4264 L 1655.5992 25.3553 L 1665.5992 25.3553 L 1665.5992 35.3553 L 1672.6703 42.4264 L 1679.7413 35.3553 L 1686.8124 28.2843 L 1686.8124 18.2843 L 1679.7413 11.2132 L 1679.7413 1.2132 L 1679.7413 -8.7868 L 1689.7413 -8.7868 L 1696.8124 -1.7157 L 1703.8835 -8.7868 L 1703.8835 -18.7868 L 1703.8835 -28.7868 L 1703.8835 -38.7868 L 1713.8835 -38.7868 L 1713.8835 -28.7868 L 1720.9545 -21.7157 L 1728.0256 -28.7868 L 1735.0967 -35.8579 L 1735.0967 -45.8579 L 1742.1677 -52.9289 L 1752.1677 -52.9289 L 1762.1677 -52.9289 L 1762.1677 -42.9289 L 1755.0967 -35.8579 L 1762.1677 -28.7868 L 1772.1677 -28.7868 L 1782.1677 -28.7868 L 1789.2388 -21.7157 L 1789.2388 -11.7157 L 1789.2388 -1.7157 L 1779.2388 -1.7157 L 1772.1677 -8.7868 L 1765.0967 -1.7157 L 1765.0967 8.2843 L 1765.0967 18.2843 L 1772.1677 25.3553 L 1772.1677 35.3553 L 1762.1677 35.3553 L 1755.0967 42.4264 L 1762.1677 49.4975 L 1769.2388 56.5685 L 1779.2388 56.5685 L 1786.3099 49.4975 L 1796.3099 49.4975 L 1796.3099 59.4975 L 1803.3810 66.5685 L 1810.4520 59.4975 L 1817.5231 52.4264 L 1817.5231 42.4264 L 1824.5942 35.3553 L 1834.5942 35.3553 L 1834.5942 45.3553 L 1841.6652 52.4264 L 1848.7363 45.3553 L 1855.8074 38.2843 L 1855.8074 28.2843 L 1848.7363 21.2132 L 1848.7363 11.2132 L 1848.7363 1.2132 L 1858.7363 1.2132 L 1865.8074 8.2843 L 1872.8784 1.2132 L 1872.8784 -8.7868 L 1872.8784 -18.7868 L 1882.8784 -18.7868 L 1882.8784 -8.7868 L 1889.9495 -1.7157 L 1897.0206 -8.7868 L 1904.0916 -15.8579 L 1904.0916 -25.8579 L 1911.1627 -18.7868 L 1904.0916 -11.7157 L 1904.0916 -1.7157 L 1914.0916 -1.7157 L 1924.0916 -1.7157 L 1931.1627 -8.7868 L 1941.1627 -8.7868 L 1948.2338 -1.7157 L 1955.3048 5.3553 L 1948.2338 12.4264 L 1938.2338 12.4264 L 1938.2338 22.4264 L 1945.3048 29.4975 L 1952.3759 36.5685 L 1952.3759 46.5685 L 1945.3048 53.6396 L 1938.2338 60.7107 L 1931.1627 53.6396 L 1931.1627 43.6396 L 1921.1627 43.6396 L 1914.0916 50.7107 L 1907.0206 57.7817 L 1907.0206 67.7817 L 1899.9495 74.8528 L 1892.8784 67.7817 L 1882.8784 67.7817 L 1882.8784 77.7817 L 1882.8784 87.7817 L 1889.9495 94.8528 L 1899.9495 94.8528 L 1907.0206 101.9239 L 1899.9495 108.9949 L 1899.9495 118.9949 L 1909.9495 118.9949 L 1919.9495 118.9949 L 1927.0206 111.9239 L 1937.0206 111.9239 L 1944.0916 118.9949 L 1937.0206 126.0660 L 1937.0206 136.0660 L 1947.0206 136.0660 L 1957.0206 136.0660 L 1964.0916 128.9949 L 1964.0916 118.9949 L 1971.1627 111.9239 L 1978.2338 104.8528 L 1985.3048 111.9239 L 1985.3048 121.9239 L 1995.3048 121.9239 L 2002.3759 114.8528 L 2009.4470 107.7817 L 2016.5180 114.8528 L 2009.4470 121.9239 L 2009.4470 131.9239 L 2019.4470 131.9239 L 2029.4470 131.9239 L 2036.5180 124.8528 L 2046.5180 124.8528 L 2053.5891 131.9239 L 2046.5180 138.9949 L 2046.5180 148.9949 L 2056.5180 148.9949 L 2066.5180 148.9949 L 2073.5891 141.9239 L 2083.5891 141.9239 L 2090.6602 148.9949 L 2097.7312 156.0660 L 2090.6602 163.1371 L 2080.6602 163.1371 L 2080.6602 173.1371 L 2087.7312 180.2082 L 2094.8023 187.2792 L 2104.8023 187.2792 L 2111.8734 194.3503 L 2118.9444 201.4214 L 2111.8734 208.4924 L 2101.8734 208.4924 L 2101.8734 218.4924 L 2108.9444 225.5635 L 2116.0155 232.6346 L 2116.0155 242.6346 L 2108.9444 249.7056 L 2101.8734 256.7767 L 2094.8023 249.7056 L 2094.8023 239.7056 L 2084.8023 239.7056 L 2077.7312 246.7767 L 2070.6602 253.8478 L 2060.6602 253.8478 L 2053.5891 246.7767 L 2060.6602 239.7056 L 2060.6602 229.7056 L 2050.6602 229.7056 L 2040.6602 229.7056 L 2033.5891 236.7767 L 2033.5891 246.7767 L 2026.5180 253.8478 L 2019.4470 246.7767 L 2009.4470 246.7767 L 2009.4470 256.7767 L 2009.4470 266.7767 L 2016.5180 273.8478 L 2026.5180 273.8478 L 2033.5891 280.9188 L 2040.6602 287.9899 L 2033.5891 295.0610 L 2023.5891 295.0610 L 2023.5891 305.0610 L 2030.6602 312.1320 L 2037.7312 319.2031 L 2044.8023 326.2742 L 2044.8023 336.2742 L 2037.7312 343.3452 L 2030.6602 336.2742 L 2020.6602 336.2742 L 2020.6602 346.2742 L 2020.6602 356.2742 L 2027.7312 363.3452 L 2027.7312 373.3452 L 2020.6602 380.4163 L 2013.5891 387.4874 L 2006.5180 380.4163 L 2006.5180 370.4163 L 1996.5180 370.4163 L 1989.4470 377.4874 L 1982.3759 384.5584 L 1982.3759 394.5584 L 1975.3048 401.6295 L 1968.2338 408.7006 L 1961.1627 401.6295 L 1961.1627 391.6295 L 1951.1627 391.6295 L 1944.0916 398.7006 L 1937.0206 405.7716 L 1927.0206 405.7716 L 1919.9495 398.7006 L 1912.8784 391.6295 L 1919.9495 384.5584 L 1929.9495 384.5584 L 1929.9495 374.5584 L 1922.8784 367.4874 L 1915.8074 360.4163 L 1915.8074 350.4163 L 1922.8784 343.3452 L 1929.9495 350.4163 L 1939.9495 350.4163 L 1939.9495 340.4163 L 1939.9495 330.4163 L 1932.8784 323.3452 L 1922.8784 323.3452 L 1915.8074 316.2742 L 1922.8784 309.2031 L 1922.8784 299.2031 L 1912.8784 299.2031 L 1902.8784 299.2031 L 1895.8074 306.2742 L 1895.8074 316.2742 L 1888.7363 323.3452 L 1881.6652 330.4163 L 1874.5942 323.3452 L 1874.5942 313.3452 L 1864.5942 313.3452 L 1857.5231 320.4163 L 1850.4520 327.4874 L 1843.3810 334.5584 L 1843.3810 344.5584 L 1836.3099 351.6295 L 1829.2388 344.5584 L 1819.2388 344.5584 L 1819.2388 354.5584 L 1819.2388 364.5584 L 1826.3099 371.6295 L 1826.3099 381.6295 L 1819.2388 388.7006 L 1812.1677 395.7716 L 1805.0967 388.7006 L 1805.0967 378.7006 L 1795.0967 378.7006 L 1788.0256 385.7716 L 1780.9545 392.8427 L 1770.9545 392.8427 L 1763.8835 385.7716 L 1756.8124 378.7006 L 1763.8835 371.6295 L 1773.8835 371.6295 L 1773.8835 361.6295 L 1766.8124 354.5584 L 1759.7413 347.4874 L 1749.7413 347.4874 L 1742.6703 340.4163 L 1749.7413 333.3452 L 1749.7413 323.3452 L 1739.7413 323.3452 L 1729.7413 323.3452 L 1722.6703 330.4163 L 1722.6703 340.4163 L 1715.5992 347.4874 L 1708.5281 340.4163 L 1698.5281 340.4163 L 1698.5281 350.4163 L 1698.5281 360.4163 L 1705.5992 367.4874 L 1705.5992 377.4874 L 1698.5281 384.5584 L 1691.4571 377.4874 L 1681.4571 377.4874 L 1681.4571 387.4874 L 1681.4571 397.4874 L 1688.5281 404.5584 L 1698.5281 404.5584 L 1705.5992 411.6295 L 1712.6703 418.7006 L 1705.5992 425.7716 L 1695.5992 425.7716 L 1695.5992 435.7716 L 1702.6703 442.8427 L 1709.7413 449.9138 L 1702.6703 456.9848 L 1695.5992 449.9138 L 1685.5992 449.9138 L 1685.5992 459.9138 L 1685.5992 469.9138 L 1692.6703 476.9848 L 1702.6703 476.9848 L 1709.7413 484.0559 L 1702.6703 491.1270 L 1702.6703 501.1270 L 1712.6703 501.1270 L 1722.6703 501.1270 L 1729.7413 494.0559 L 1739.7413 494.0559 L 1746.8124 501.1270 L 1753.8835 508.1981 L 1746.8124 515.2691 L 1736.8124 515.2691 L 1736.8124 525.2691 L 1743.8835 532.3402 L 1750.9545 539.4113 L 1750.9545 549.4113 L 1743.8835 556.4823 L 1736.8124 563.5534 L 1729.7413 556.4823 L 1729.7413 546.4823 L 1719.7413 546.4823 L 1712.6703 553.5534 L 1705.5992 560.6245 L 1705.5992 570.6245 L 1698.5281 577.6955 L 1691.4571 570.6245 L 1681.4571 570.6245 L 1681.4571 580.6245 L 1681.4571 590.6245 L 1688.5281 597.6955 L 1698.5281 597.6955 L 1705.5992 604.7666 L 1698.5281 611.8377 L 1698.5281 621.8377 L 1708.5281 621.8377 L 1718.5281 621.8377 L 1725.5992 614.7666 L 1735.5992 614.7666 L 1742.6703 621.8377 L 1735.5992 628.9087 L 1735.5992 638.9087 L 1745.5992 638.9087 L 1755.5992 638.9087 L 1762.6703 631.8377 L 1762.6703 621.8377 L 1769.7413 614.7666 L 1776.8124 607.6955 L 1783.8835 614.7666 L 1783.8835 624.7666 L 1793.8835 624.7666 L 1800.9545 617.6955 L 1808.0256 610.6245 L 1815.0967 617.6955 L 1808.0256 624.7666 L 1808.0256 634.7666 L 1818.0256 634.7666 L 1828.0256 634.7666 L 1835.0967 627.6955 L 1845.0967 627.6955 L 1852.1677 634.7666 L 1845.0967 641.8377 L 1845.0967 651.8377 L 1855.0967 651.8377 L 1865.0967 651.8377 L 1872.1677 644.7666 L 1882.1677 644.7666 L 1889.2388 651.8377 L 1896.3099 658.9087 L 1889.2388 665.9798 L 1879.2388 665.9798 L 1879.2388 675.9798 L 1886.3099 683.0509 L 1893.3810 690.1219 L 1893.3810 700.1219 L 1886.3099 707.1930 L 1879.2388 714.2641 L 1872.1677 707.1930 L 1872.1677 697.1930 L 1862.1677 697.1930 L 1855.0967 704.2641 L 1848.0256 711.3351 L 1848.0256 721.3351 L 1840.9545 728.4062 L 1833.8835 721.3351 L 1823.8835 721.3351 L 1823.8835 731.3351 L 1823.8835 741.3351 L 1830.9545 748.4062 L 1840.9545 748.4062 L 1848.0256 755.4773 L 1840.9545 762.5483 L 1840.9545 772.5483 L 1850.9545 772.5483 L 1860.9545 772.5483 L 1868.0256 765.4773 L 1878.0256 765.4773 L 1885.0967 772.5483 L 1878.0256 779.6194 L 1878.0256 789.6194 L 1888.0256 789.6194 L 1898.0256 789.6194 L 1905.0967 782.5483 L 1905.0967 772.5483 L 1912.1677 765.4773 L 1919.2388 758.4062 L 1926.3099 765.4773 L 1926.3099 775.4773 L 1936.3099 775.4773 L 1943.3810 768.4062 L 1950.4520 761.3351 L 1957.5231 768.4062 L 1950.4520 775.4773 L 1950.4520 785.4773 L 1960.4520 785.4773 L 1970.4520 785.4773 L 1977.5231 778.4062 L 1977.5231 768.4062 L 1984.5942 761.3351 L 1991.6652 768.4062 L 2001.6652 768.4062 L 2001.6652 758.4062 L 2001.6652 748.4062 L 1994.5942 741.3351 L 1994.5942 731.3351 L 2001.6652 724.2641 L 2008.7363 717.1930 L 2015.8074 724.2641 L 2015.8074 734.2641 L 2025.8074 734.2641 L 2032.8784 727.1930 L 2039.9495 720.1219 L 2039.9495 710.1219 L 2047.0206 703.0509 L 2054.0916 695.9798 L 2061.1627 703.0509 L 2061.1627 713.0509 L 2071.1627 713.0509 L 2078.2338 705.9798 L 2085.3048 698.9087 L 2095.3048 698.9087 L 2102.3759 705.9798 L 2109.4470 713.0509 L 2102.3759 720.1219 L 2092.3759 720.1219 L 2092.3759 730.1219 L 2099.4470 737.1930 L 2106.5180 744.2641 L 2106.5180 754.2641 L 2099.4470 761.3351 L 2092.3759 754.2641 L 2082.3759 754.2641 L 2082.3759 764.2641 L 2082.3759 774.2641 L 2089.4470 781.3351 L 2099.4470 781.3351 L 2106.5180 788.4062 L 2099.4470 795.4773 L 2099.4470 805.4773 L 2109.4470 805.4773 L 2119.4470 805.4773 L 2126.5180 798.4062 L 2126.5180 788.4062 L 2133.5891 781.3351 L 2140.6602 774.2641 L 2147.7312 781.3351 L 2147.7312 791.3351 L 2157.7312 791.3351 L 2164.8023 784.2641 L 2171.8734 777.1930 L 2178.9444 770.1219 L 2186.0155 777.1930 L 2178.9444 784.2641 L 2178.9444 794.2641 L 2188.9444 794.2641 L 2198.9444 794.2641 L 2206.0155 787.1930 L 2216.0155 787.1930 L 2223.0866 794.2641 L 2230.1576 801.3351 L 2223.0866 808.4062 L 2213.0866 808.4062 L 2213.0866 818.4062 L 2220.1576 825.4773 L 2227.2287 832.5483 L 2227.2287 842.5483 L 2220.1576 849.6194 L 2213.0866 856.6905 L 2206.0155 849.6194 L 2206.0155 839.6194 L 2196.0155 839.6194 L 2188.9444 846.6905 L 2181.8734 853.7615 L 2181.8734 863.7615 L 2174.8023 870.8326 L 2167.7312 863.7615 L 2157.7312 863.7615 L 2157.7312 873.7615 L 2157.7312 883.7615 L 2164.8023 890.8326 L 2174.8023 890.8326 L 2181.8734 897.9037 L 2174.8023 904.9747 L 2174.8023 914.9747 L 2184.8023 914.9747 L 2194.8023 914.9747 L 2201.8734 907.9037 L 2211.8734 907.9037 L 2218.9444 914.9747 L 2211.8734 922.0458 L 2211.8734 932.0458 L 2221.8734 932.0458 L 2231.8734 932.0458 L 2238.9444 924.9747 L 2238.9444 914.9747 L 2246.0155 907.9037 L 2253.0866 900.8326 L 2260.1576 907.9037 L 2260.1576 917.9037 L 2270.1576 917.9037 L 2277.2287 910.8326 L 2284.2998 903.7615 L 2291.3708 910.8326 L 2284.2998 917.9037 L 2284.2998 927.9037 L 2294.2998 927.9037 L 2304.2998 927.9037 L 2311.3708 920.8326 L 2311.3708 930.8326 L 2301.3708 930.8326 L 2294.2998 937.9037 L 2301.3708 944.9747 L 2308.4419 952.0458 L 2318.4419 952.0458 L 2325.5130 959.1169 L 2325.5130 969.1169 L 2325.5130 979.1169 L 2315.5130 979.1169 L 2308.4419 972.0458 L 2301.3708 979.1169 L 2301.3708 989.1169 L 2301.3708 999.1169 L 2294.2998 1006.1880 L 2284.2998 1006.1880 L 2274.2998 1006.1880 L 2274.2998 996.1880 L 2281.3708 989.1169 L 2274.2998 982.0458 L 2264.2998 982.0458 L 2254.2998 982.0458 L 2247.2287 989.1169 L 2237.2287 989.1169 L 2237.2287 979.1169 L 2230.1576 972.0458 L 2223.0866 979.1169 L 2216.0155 986.1880 L 2216.0155 996.1880 L 2223.0866 1003.2590 L 2223.0866 1013.2590 L 2213.0866 1013.2590 L 2206.0155 1020.3301 L 2213.0866 1027.4012 L 2220.1576 1034.4722 L 2230.1576 1034.4722 L 2237.2287 1041.5433 L 2237.2287 1051.5433 L 2227.2287 1051.5433 L 2220.1576 1058.6144 L 2227.2287 1065.6854 L 2234.2998 1072.7565 L 2244.2998 1072.7565 L 2251.3708 1065.6854 L 2261.3708 1065.6854 L 2271.3708 1065.6854 L 2271.3708 1075.6854 L 2264.2998 1082.7565 L 2271.3708 1089.8276 L 2281.3708 1089.8276 L 2291.3708 1089.8276 L 2291.3708 1099.8276 L 2281.3708 1099.8276 L 2274.2998 1106.8986 L 2281.3708 1113.9697 L 2288.4419 1121.0408 L 2298.4419 1121.0408 L 2305.5130 1128.1118 L 2305.5130 1138.1118 L 2295.5130 1138.1118 L 2288.4419 1145.1829 L 2295.5130 1152.2540 L 2302.5841 1159.3250 L 2312.5841 1159.3250 L 2319.6551 1166.3961 L 2319.6551 1176.3961 L 2319.6551 1186.3961 L 2309.6551 1186.3961 L 2302.5841 1179.3250 L 2295.5130 1186.3961 L 2295.5130 1196.3961 L 2295.5130 1206.3961 L 2302.5841 1213.4672 L 2302.5841 1223.4672 L 2302.5841 1233.4672 L 2292.5841 1233.4672 L 2285.5130 1226.3961 L 2278.4419 1233.4672 L 2278.4419 1243.4672 L 2278.4419 1253.4672 L 2271.3708 1260.5382 L 2261.3708 1260.5382 L 2251.3708 1260.5382 L 2251.3708 1250.5382 L 2258.4419 1243.4672 L 2251.3708 1236.3961 L 2241.3708 1236.3961 L 2231.3708 1236.3961 L 2224.2998 1229.3250 L 2224.2998 1219.3250 L 2234.2998 1219.3250 L 2241.3708 1212.2540 L 2234.2998 1205.1829 L 2227.2287 1198.1118 L 2217.2287 1198.1118 L 2210.1576 1205.1829 L 2200.1576 1205.1829 L 2200.1576 1195.1829 L 2193.0866 1188.1118 L 2186.0155 1195.1829 L 2178.9444 1202.2540 L 2178.9444 1212.2540 L 2186.0155 1219.3250 L 2186.0155 1229.3250 L 2186.0155 1239.3250 L 2176.0155 1239.3250 L 2168.9444 1232.2540 L 2161.8734 1239.3250 L 2161.8734 1249.3250 L 2161.8734 1259.3250 L 2161.8734 1269.3250 L 2154.8023 1276.3961 L 2144.8023 1276.3961 L 2144.8023 1266.3961 L 2137.7312 1259.3250 L 2130.6602 1266.3961 L 2123.5891 1273.4672 L 2123.5891 1283.4672 L 2116.5180 1290.5382 L 2106.5180 1290.5382 L 2096.5180 1290.5382 L 2096.5180 1280.5382 L 2103.5891 1273.4672 L 2096.5180 1266.3961 L 2086.5180 1266.3961 L 2076.5180 1266.3961 L 2069.4470 1273.4672 L 2059.4470 1273.4672 L 2049.4470 1273.4672 L 2049.4470 1263.4672 L 2056.5180 1256.3961 L 2049.4470 1249.3250 L 2039.4470 1249.3250 L 2029.4470 1249.3250 L 2022.3759 1242.2540 L 2022.3759 1232.2540 L 2022.3759 1222.2540 L 2032.3759 1222.2540 L 2039.4470 1229.3250 L 2046.5180 1222.2540 L 2046.5180 1212.2540 L 2046.5180 1202.2540 L 2053.5891 1195.1829 L 2063.5891 1195.1829 L 2063.5891 1205.1829 L 2070.6602 1212.2540 L 2077.7312 1205.1829 L 2084.8023 1198.1118 L 2084.8023 1188.1118 L 2077.7312 1181.0408 L 2077.7312 1171.0408 L 2087.7312 1171.0408 L 2094.8023 1163.9697 L 2087.7312 1156.8986 L 2080.6602 1149.8276 L 2070.6602 1149.8276 L 2063.5891 1156.8986 L 2053.5891 1156.8986 L 2043.5891 1156.8986 L 2043.5891 1146.8986 L 2050.6602 1139.8276 L 2043.5891 1132.7565 L 2033.5891 1132.7565 L 2023.5891 1132.7565 L 2013.5891 1132.7565 L 2006.5180 1139.8276 L 1996.5180 1139.8276 L 1996.5180 1129.8276 L 1989.4470 1122.7565 L 1982.3759 1129.8276 L 1975.3048 1136.8986 L 1975.3048 1146.8986 L 1968.2338 1153.9697 L 1958.2338 1153.9697 L 1948.2338 1153.9697 L 1948.2338 1143.9697 L 1955.3048 1136.8986 L 1948.2338 1129.8276 L 1938.2338 1129.8276 L 1928.2338 1129.8276 L 1921.1627 1122.7565 L 1921.1627 1112.7565 L 1921.1627 1102.7565 L 1931.1627 1102.7565 L 1938.2338 1109.8276 L 1945.3048 1102.7565 L 1945.3048 1092.7565 L 1945.3048 1082.7565 L 1938.2338 1075.6854 L 1938.2338 1065.6854 L 1948.2338 1065.6854 L 1955.3048 1058.6144 L 1948.2338 1051.5433 L 1941.1627 1044.4722 L 1931.1627 1044.4722 L 1924.0916 1051.5433 L 1914.0916 1051.5433 L 1914.0916 1041.5433 L 1907.0206 1034.4722 L 1899.9495 1041.5433 L 1892.8784 1048.6144 L 1892.8784 1058.6144 L 1885.8074 1065.6854 L 1875.8074 1065.6854 L 1875.8074 1055.6854 L 1868.7363 1048.6144 L 1861.6652 1055.6854 L 1854.5942 1062.7565 L 1854.5942 1072.7565 L 1861.6652 1079.8276 L 1861.6652 1089.8276 L 1861.6652 1099.8276 L 1851.6652 1099.8276 L 1844.5942 1092.7565 L 1837.5231 1099.8276 L 1837.5231 1109.8276 L 1837.5231 1119.8276 L 1827.5231 1119.8276 L 1827.5231 1109.8276 L 1820.4520 1102.7565 L 1813.3810 1109.8276 L 1806.3099 1116.8986 L 1806.3099 1126.8986 L 1813.3810 1133.9697 L 1813.3810 1143.9697 L 1803.3810 1143.9697 L 1796.3099 1151.0408 L 1803.3810 1158.1118 L 1810.4520 1165.1829 L 1820.4520 1165.1829 L 1827.5231 1172.2540 L 1827.5231 1182.2540 L 1827.5231 1192.2540 L 1817.5231 1192.2540 L 1810.4520 1185.1829 L 1803.3810 1192.2540 L 1803.3810 1202.2540 L 1803.3810 1212.2540 L 1796.3099 1219.3250 L 1786.3099 1219.3250 L 1776.3099 1219.3250 L 1776.3099 1209.3250 L 1783.3810 1202.2540 L 1776.3099 1195.1829 L 1766.3099 1195.1829 L 1756.3099 1195.1829 L 1749.2388 1202.2540 L 1739.2388 1202.2540 L 1739.2388 1192.2540 L 1732.1677 1185.1829 L 1725.0967 1192.2540 L 1718.0256 1199.3250 L 1718.0256 1209.3250 L 1725.0967 1216.3961 L 1725.0967 1226.3961 L 1715.0967 1226.3961 L 1708.0256 1233.4672 L 1715.0967 1240.5382 L 1722.1677 1247.6093 L 1732.1677 1247.6093 L 1739.2388 1254.6804 L 1739.2388 1264.6804 L 1729.2388 1264.6804 L 1722.1677 1271.7514 L 1729.2388 1278.8225 L 1736.3099 1285.8936 L 1746.3099 1285.8936 L 1753.3810 1278.8225 L 1763.3810 1278.8225 L 1773.3810 1278.8225 L 1773.3810 1288.8225 L 1766.3099 1295.8936 L 1773.3810 1302.9646 L 1783.3810 1302.9646 L 1793.3810 1302.9646 L 1793.3810 1312.9646 L 1783.3810 1312.9646 L 1776.3099 1320.0357 L 1783.3810 1327.1068 L 1790.4520 1334.1778 L 1800.4520 1334.1778 L 1807.5231 1341.2489 L 1807.5231 1351.2489 L 1797.5231 1351.2489 L 1790.4520 1358.3200 L 1797.5231 1365.3911 L 1804.5942 1372.4621 L 1814.5942 1372.4621 L 1821.6652 1379.5332 L 1821.6652 1389.5332 L 1821.6652 1399.5332 L 1811.6652 1399.5332 L 1804.5942 1392.4621 L 1797.5231 1399.5332 L 1797.5231 1409.5332 L 1797.5231 1419.5332 L 1790.4520 1426.6043 L 1780.4520 1426.6043 L 1770.4520 1426.6043 L 1770.4520 1416.6043 L 1777.5231 1409.5332 L 1770.4520 1402.4621 L 1760.4520 1402.4621 L 1750.4520 1402.4621 L 1743.3810 1409.5332 L 1733.3810 1409.5332 L 1733.3810 1399.5332 L 1726.3099 1392.4621 L 1719.2388 1399.5332 L 1712.1677 1406.6043 L 1712.1677 1416.6043 L 1719.2388 1423.6753 L 1719.2388 1433.6753 L 1709.2388 1433.6753 L 1702.1677 1440.7464 L 1709.2388 1447.8175 L 1716.3099 1454.8885 L 1726.3099 1454.8885 L 1733.3810 1461.9596 L 1733.3810 1471.9596 L 1723.3810 1471.9596 L 1716.3099 1479.0307 L 1723.3810 1486.1017 L 1730.4520 1493.1728 L 1740.4520 1493.1728 L 1747.5231 1486.1017 L 1757.5231 1486.1017 L 1767.5231 1486.1017 L 1767.5231 1496.1017 L 1760.4520 1503.1728 L 1767.5231 1510.2439 L 1777.5231 1510.2439 L 1787.5231 1510.2439 L 1787.5231 1520.2439 L 1777.5231 1520.2439 L 1770.4520 1527.3149 L 1777.5231 1534.3860 L 1784.5942 1541.4571 L 1794.5942 1541.4571 L 1801.6652 1534.3860 L 1811.6652 1534.3860 L 1811.6652 1544.3860 L 1818.7363 1551.4571 L 1825.8074 1544.3860 L 1832.8784 1537.3149 L 1832.8784 1527.3149 L 1839.9495 1520.2439 L 1849.9495 1520.2439 L 1859.9495 1520.2439 L 1859.9495 1530.2439 L 1852.8784 1537.3149 L 1859.9495 1544.3860 L 1869.9495 1544.3860 L 1879.9495 1544.3860 L 1887.0206 1537.3149 L 1897.0206 1537.3149 L 1907.0206 1537.3149 L 1907.0206 1547.3149 L 1899.9495 1554.3860 L 1907.0206 1561.4571 L 1917.0206 1561.4571 L 1927.0206 1561.4571 L 1934.0916 1568.5281 L 1934.0916 1578.5281 L 1934.0916 1588.5281 L 1924.0916 1588.5281 L 1917.0206 1581.4571 L 1909.9495 1588.5281 L 1909.9495 1598.5281 L 1909.9495 1608.5281 L 1902.8784 1615.5992 L 1892.8784 1615.5992 L 1892.8784 1605.5992 L 1885.8074 1598.5281 L 1878.7363 1605.5992 L 1871.6652 1612.6703 L 1871.6652 1622.6703 L 1878.7363 1629.7413 L 1878.7363 1639.7413 L 1868.7363 1639.7413 L 1861.6652 1646.8124 L 1868.7363 1653.8835 L 1875.8074 1660.9545 L 1885.8074 1660.9545 L 1892.8784 1653.8835 L 1902.8784 1653.8835 L 1912.8784 1653.8835 L 1912.8784 1663.8835 L 1905.8074 1670.9545 L 1912.8784 1678.0256 L 1922.8784 1678.0256 L 1932.8784 1678.0256 L 1942.8784 1678.0256 L 1942.8784 1688.0256 L 1932.8784 1688.0256 L 1925.8074 1695.0967 L 1932.8784 1702.1677 L 1939.9495 1709.2388 L 1949.9495 1709.2388 L 1957.0206 1716.3099 L 1957.0206 1726.3099 L 1957.0206 1736.3099 L 1947.0206 1736.3099 L 1939.9495 1729.2388 L 1932.8784 1736.3099 L 1932.8784 1746.3099 L 1932.8784 1756.3099 L 1925.8074 1763.3810 L 1915.8074 1763.3810 L 1905.8074 1763.3810 L 1905.8074 1753.3810 L 1912.8784 1746.3099 L 1905.8074 1739.2388 L 1895.8074 1739.2388 L 1885.8074 1739.2388 L 1878.7363 1746.3099 L 1868.7363 1746.3099 L 1868.7363 1736.3099 L 1861.6652 1729.2388 L 1854.5942 1736.3099 L 1847.5231 1743.3810 L 1847.5231 1753.3810 L 1854.5942 1760.4520 L 1854.5942 1770.4520 L 1844.5942 1770.4520 L 1837.5231 1777.5231 L 1844.5942 1784.5942 L 1851.6652 1791.6652 L 1861.6652 1791.6652 L 1868.7363 1798.7363 L 1868.7363 1808.7363 L 1858.7363 1808.7363 L 1851.6652 1815.8074 L 1858.7363 1822.8784 L 1865.8074 1829.9495 L 1875.8074 1829.9495 L 1882.8784 1822.8784 L 1892.8784 1822.8784 L 1902.8784 1822.8784 L 1902.8784 1832.8784 L 1895.8074 1839.9495 L 1902.8784 1847.0206 L 1912.8784 1847.0206 L 1922.8784 1847.0206 L 1922.8784 1857.0206 L 1912.8784 1857.0206 L 1905.8074 1864.0916 L 1912.8784 1871.1627 L 1919.9495 1878.2338 L 1929.9495 1878.2338 L 1922.8784 1885.3048 L 1915.8074 1878.2338 L 1905.8074 1878.2338 L 1905.8074 1888.2338 L 1905.8074 1898.2338 L 1912.8784 1905.3048 L 1912.8784 1915.3048 L 1905.8074 1922.3759 L 1898.7363 1929.4470 L 1891.6652 1922.3759 L 1891.6652 1912.3759 L 1881.6652 1912.3759 L 1874.5942 1919.4470 L 1867.5231 1926.5180 L 1857.5231 1926.5180 L 1850.4520 1919.4470 L 1843.3810 1912.3759 L 1850.4520 1905.3048 L 1860.4520 1905.3048 L 1860.4520 1895.3048 L 1853.3810 1888.2338 L 1846.3099 1881.1627 L 1836.3099 1881.1627 L 1829.2388 1874.0916 L 1836.3099 1867.0206 L 1836.3099 1857.0206 L 1826.3099 1857.0206 L 1816.3099 1857.0206 L 1809.2388 1864.0916 L 1809.2388 1874.0916 L 1802.1677 1881.1627 L 1795.0967 1874.0916 L 1785.0967 1874.0916 L 1785.0967 1884.0916 L 1785.0967 1894.0916 L 1792.1677 1901.1627 L 1792.1677 1911.1627 L 1785.0967 1918.2338 L 1778.0256 1911.1627 L 1768.0256 1911.1627 L 1768.0256 1921.1627 L 1768.0256 1931.1627 L 1775.0967 1938.2338 L 1785.0967 1938.2338 L 1792.1677 1945.3048 L 1799.2388 1952.3759 L 1792.1677 1959.4470 L 1782.1677 1959.4470 L 1782.1677 1969.4470 L 1789.2388 1976.5180 L 1796.3099 1983.5891 L 1789.2388 1990.6602 L 1782.1677 1983.5891 L 1772.1677 1983.5891 L 1772.1677 1993.5891 L 1772.1677 2003.5891 L 1779.2388 2010.6602 L 1779.2388 2020.6602 L 1772.1677 2027.7312 L 1765.0967 2020.6602 L 1755.0967 2020.6602 L 1755.0967 2030.6602 L 1755.0967 2040.6602 L 1762.1677 2047.7312 L 1762.1677 2057.7312 L 1755.0967 2064.8023 L 1748.0256 2071.8734 L 1740.9545 2064.8023 L 1740.9545 2054.8023 L 1730.9545 2054.8023 L 1723.8835 2061.8734 L 1716.8124 2068.9444 L 1716.8124 2078.9444 L 1709.7413 2086.0155 L 1702.6703 2093.0866 L 1695.5992 2086.0155 L 1695.5992 2076.0155 L 1685.5992 2076.0155 L 1678.5281 2083.0866 L 1671.4571 2090.1576 L 1661.4571 2090.1576 L 1654.3860 2083.0866 L 1647.3149 2076.0155 L 1654.3860 2068.9444 L 1664.3860 2068.9444 L 1664.3860 2058.9444 L 1657.3149 2051.8734 L 1650.2439 2044.8023 L 1650.2439 2034.8023 L 1657.3149 2027.7312 L 1664.3860 2034.8023 L 1674.3860 2034.8023 L 1674.3860 2024.8023 L 1674.3860 2014.8023 L 1667.3149 2007.7312 L 1657.3149 2007.7312 L 1650.2439 2000.6602 L 1657.3149 1993.5891 L 1657.3149 1983.5891 L 1647.3149 1983.5891 L 1637.3149 1983.5891 L 1630.2439 1990.6602 L 1630.2439 2000.6602 L 1623.1728 2007.7312 L 1616.1017 2014.8023 L 1609.0307 2007.7312 L 1609.0307 1997.7312 L 1599.0307 1997.7312 L 1591.9596 2004.8023 L 1584.8885 2011.8734 L 1577.8175 2018.9444 L 1567.8175 2018.9444 L 1560.7464 2011.8734 L 1567.8175 2004.8023 L 1567.8175 1994.8023 L 1557.8175 1994.8023 L 1547.8175 1994.8023 L 1540.7464 2001.8734 L 1530.7464 2001.8734 L 1523.6753 1994.8023 L 1516.6043 1987.7312 L 1523.6753 1980.6602 L 1533.6753 1980.6602 L 1533.6753 1970.6602 L 1526.6043 1963.5891 L 1519.5332 1956.5180 L 1509.5332 1956.5180 L 1502.4621 1949.4470 L 1495.3911 1942.3759 L 1502.4621 1935.3048 L 1512.4621 1935.3048 L 1512.4621 1925.3048 L 1505.3911 1918.2338 L 1498.3200 1911.1627 L 1498.3200 1901.1627 L 1505.3911 1894.0916 L 1512.4621 1887.0206 L 1519.5332 1894.0916 L 1519.5332 1904.0916 L 1529.5332 1904.0916 L 1536.6043 1897.0206 L 1543.6753 1889.9495 L 1553.6753 1889.9495 L 1560.7464 1897.0206 L 1553.6753 1904.0916 L 1553.6753 1914.0916 L 1563.6753 1914.0916 L 1573.6753 1914.0916 L 1580.7464 1907.0206 L 1580.7464 1897.0206 L 1587.8175 1889.9495 L 1594.8885 1897.0206 L 1604.8885 1897.0206 L 1604.8885 1887.0206 L 1604.8885 1877.0206 L 1597.8175 1869.9495 L 1587.8175 1869.9495 L 1580.7464 1862.8784 L 1573.6753 1855.8074 L 1580.7464 1848.7363 L 1590.7464 1848.7363 L 1590.7464 1838.7363 L 1583.6753 1831.6652 L 1576.6043 1824.5942 L 1569.5332 1817.5231 L 1559.5332 1817.5231 L 1552.4621 1810.4520 L 1559.5332 1803.3810 L 1559.5332 1793.3810 L 1549.5332 1793.3810 L 1539.5332 1793.3810 L 1532.4621 1800.4520 L 1522.4621 1800.4520 L 1515.3911 1793.3810 L 1508.3200 1786.3099 L 1515.3911 1779.2388 L 1525.3911 1779.2388 L 1525.3911 1769.2388 L 1518.3200 1762.1677 L 1511.2489 1755.0967 L 1511.2489 1745.0967 L 1518.3200 1738.0256 L 1525.3911 1730.9545 L 1532.4621 1738.0256 L 1532.4621 1748.0256 L 1542.4621 1748.0256 L 1549.5332 1740.9545 L 1556.6043 1733.8835 L 1556.6043 1723.8835 L 1563.6753 1716.8124 L 1570.7464 1723.8835 L 1580.7464 1723.8835 L 1580.7464 1713.8835 L 1580.7464 1703.8835 L 1573.6753 1696.8124 L 1563.6753 1696.8124 L 1556.6043 1689.7413 L 1563.6753 1682.6703 L 1563.6753 1672.6703 L 1553.6753 1672.6703 L 1543.6753 1672.6703 L 1536.6043 1679.7413 L 1526.6043 1679.7413 L 1519.5332 1672.6703 L 1526.6043 1665.5992 L 1526.6043 1655.5992 L 1516.6043 1655.5992 L 1506.6043 1655.5992 L 1499.5332 1662.6703 L 1499.5332 1672.6703 L 1492.4621 1679.7413 L 1485.3911 1686.8124 L 1478.3200 1679.7413 L 1478.3200 1669.7413 L 1468.3200 1669.7413 L 1461.2489 1676.8124 L 1454.1778 1683.8835 L 1447.1068 1676.8124 L 1454.1778 1669.7413 L 1454.1778 1659.7413 L 1444.1778 1659.7413 L 1434.1778 1659.7413 L 1427.1068 1666.8124 L 1427.1068 1676.8124 L 1420.0357 1683.8835 L 1412.9646 1676.8124 L 1402.9646 1676.8124 L 1402.9646 1686.8124 L 1402.9646 1696.8124 L 1410.0357 1703.8835 L 1410.0357 1713.8835 L 1402.9646 1720.9545 L 1395.8936 1728.0256 L 1388.8225 1720.9545 L 1388.8225 1710.9545 L 1378.8225 1710.9545 L 1371.7514 1718.0256 L 1364.6804 1725.0967 L 1354.6804 1725.0967 L 1347.6093 1718.0256 L 1340.5382 1710.9545 L 1347.6093 1703.8835 L 1357.6093 1703.8835 L 1357.6093 1693.8835 L 1350.5382 1686.8124 L 1343.4672 1679.7413 L 1333.4672 1679.7413 L 1326.3961 1672.6703 L 1333.4672 1665.5992 L 1333.4672 1655.5992 L 1323.4672 1655.5992 L 1313.4672 1655.5992 L 1306.3961 1662.6703 L 1306.3961 1672.6703 L 1299.3250 1679.7413 L 1292.2540 1672.6703 L 1282.2540 1672.6703 L 1282.2540 1682.6703 L 1282.2540 1692.6703 L 1289.3250 1699.7413 L 1289.3250 1709.7413 L 1282.2540 1716.8124 L 1275.1829 1709.7413 L 1265.1829 1709.7413 L 1265.1829 1719.7413 L 1265.1829 1729.7413 L 1272.2540 1736.8124 L 1282.2540 1736.8124 L 1289.3250 1743.8835 L 1296.3961 1750.9545 L 1289.3250 1758.0256 L 1279.3250 1758.0256 L 1279.3250 1768.0256 L 1286.3961 1775.0967 L 1293.4672 1782.1677 L 1286.3961 1789.2388 L 1279.3250 1782.1677 L 1269.3250 1782.1677 L 1269.3250 1792.1677 L 1269.3250 1802.1677 L 1276.3961 1809.2388 L 1276.3961 1819.2388 L 1269.3250 1826.3099 L 1262.2540 1819.2388 L 1252.2540 1819.2388 L 1252.2540 1829.2388 L 1252.2540 1839.2388 L 1259.3250 1846.3099 L 1259.3250 1856.3099 L 1252.2540 1863.3810 L 1245.1829 1870.4520 L 1238.1118 1863.3810 L 1238.1118 1853.3810 L 1228.1118 1853.3810 L 1221.0408 1860.4520 L 1213.9697 1867.5231 L 1203.9697 1867.5231 L 1196.8986 1860.4520 L 1189.8276 1853.3810 L 1196.8986 1846.3099 L 1206.8986 1846.3099 L 1206.8986 1836.3099 L 1199.8276 1829.2388 L 1192.7565 1822.1677 L 1182.7565 1822.1677 L 1175.6854 1815.0967 L 1182.7565 1808.0256 L 1182.7565 1798.0256 L 1172.7565 1798.0256 L 1162.7565 1798.0256 L 1155.6854 1805.0967 L 1155.6854 1815.0967 L 1148.6144 1822.1677 L 1141.5433 1815.0967 L 1131.5433 1815.0967 L 1131.5433 1825.0967 L 1131.5433 1835.0967 L 1138.6144 1842.1677 L 1138.6144 1852.1677 L 1131.5433 1859.2388 L 1124.4722 1852.1677 L 1114.4722 1852.1677 L 1114.4722 1862.1677 L 1114.4722 1872.1677 L 1121.5433 1879.2388 L 1131.5433 1879.2388 L 1138.6144 1886.3099 L 1145.6854 1893.3810 L 1138.6144 1900.4520 L 1128.6144 1900.4520 L 1128.6144 1910.4520 L 1135.6854 1917.5231 L 1142.7565 1924.5942 L 1135.6854 1931.6652 L 1128.6144 1924.5942 L 1118.6144 1924.5942 L 1118.6144 1934.5942 L 1118.6144 1944.5942 L 1125.6854 1951.6652 L 1135.6854 1951.6652 L 1142.7565 1958.7363 L 1135.6854 1965.8074 L 1135.6854 1975.8074 L 1145.6854 1975.8074 L 1155.6854 1975.8074 L 1162.7565 1968.7363 L 1172.7565 1968.7363 L 1179.8276 1975.8074 L 1186.8986 1982.8784 L 1179.8276 1989.9495 L 1169.8276 1989.9495 L 1169.8276 1999.9495 L 1176.8986 2007.0206 L 1183.9697 2014.0916 L 1193.9697 2014.0916 L 1201.0408 2021.1627 L 1208.1118 2028.2338 L 1201.0408 2035.3048 L 1191.0408 2035.3048 L 1191.0408 2045.3048 L 1198.1118 2052.3759 L 1205.1829 2059.4470 L 1205.1829 2069.4470 L 1198.1118 2076.5180 L 1191.0408 2083.5891 L 1183.9697 2076.5180 L 1183.9697 2066.5180 L 1173.9697 2066.5180 L 1166.8986 2073.5891 L 1159.8276 2080.6602 L 1149.8276 2080.6602 L 1142.7565 2073.5891 L 1149.8276 2066.5180 L 1149.8276 2056.5180 L 1139.8276 2056.5180 L 1129.8276 2056.5180 L 1122.7565 2063.5891 L 1122.7565 2073.5891 L 1115.6854 2080.6602 L 1108.6144 2073.5891 L 1098.6144 2073.5891 L 1098.6144 2083.5891 L 1098.6144 2093.5891 L 1105.6854 2100.6602 L 1115.6854 2100.6602 L 1122.7565 2107.7312 L 1129.8276 2114.8023 L 1122.7565 2121.8734 L 1112.7565 2121.8734 L 1112.7565 2131.8734 L 1119.8276 2138.9444 L 1126.8986 2146.0155 L 1133.9697 2153.0866 L 1126.8986 2160.1576 L 1119.8276 2153.0866 L 1109.8276 2153.0866 L 1109.8276 2163.0866 L 1109.8276 2173.0866 L 1116.8986 2180.1576 L 1116.8986 2190.1576 L 1109.8276 2197.2287 L 1102.7565 2204.2998 L 1095.6854 2197.2287 L 1095.6854 2187.2287 L 1085.6854 2187.2287 L 1078.6144 2194.2998 L 1071.5433 2201.3708 L 1061.5433 2201.3708 L 1054.4722 2194.2998 L 1047.4012 2187.2287 L 1054.4722 2180.1576 L 1064.4722 2180.1576 L 1064.4722 2170.1576 L 1057.4012 2163.0866 L 1050.3301 2156.0155 L 1040.3301 2156.0155 L 1033.2590 2148.9444 L 1040.3301 2141.8734 L 1040.3301 2131.8734 L 1030.3301 2131.8734 L 1020.3301 2131.8734 L 1013.2590 2138.9444 L 1013.2590 2148.9444 L 1006.1880 2156.0155 L 999.1169 2148.9444 L 989.1169 2148.9444 L 989.1169 2158.9444 L 989.1169 2168.9444 L 996.1880 2176.0155 L 996.1880 2186.0155 L 989.1169 2193.0866 L 982.0458 2186.0155 L 972.0458 2186.0155 L 972.0458 2196.0155 L 972.0458 2206.0155 L 979.1169 2213.0866 L 989.1169 2213.0866 L 996.1880 2220.1576 L 1003.2590 2227.2287 L 996.1880 2234.2998 L 986.1880 2234.2998 L 986.1880 2244.2998 L 993.2590 2251.3708 L 1000.3301 2258.4419 L 993.2590 2265.5130 L 986.1880 2258.4419 L 976.1880 2258.4419 L 976.1880 2268.4419 L 976.1880 2278.4419 L 983.2590 2285.5130 L 973.2590 2285.5130 L 973.2590 2275.5130 L 966.1880 2268.4419 L 959.1169 2275.5130 L 952.0458 2282.5841 L 952.0458 2292.5841 L 944.9747 2299.6551 L 934.9747 2299.6551 L 924.9747 2299.6551 L 924.9747 2289.6551 L 932.0458 2282.5841 L 924.9747 2275.5130 L 914.9747 2275.5130 L 904.9747 2275.5130 L 897.9037 2268.4419 L 897.9037 2258.4419 L 897.9037 2248.4419 L 907.9037 2248.4419 L 914.9747 2255.5130 L 922.0458 2248.4419 L 922.0458 2238.4419 L 922.0458 2228.4419 L 914.9747 2221.3708 L 914.9747 2211.3708 L 924.9747 2211.3708 L 932.0458 2204.2998 L 924.9747 2197.2287 L 917.9037 2190.1576 L 907.9037 2190.1576 L 900.8326 2197.2287 L 890.8326 2197.2287 L 890.8326 2187.2287 L 883.7615 2180.1576 L 876.6905 2187.2287 L 869.6194 2194.2998 L 869.6194 2204.2998 L 862.5483 2211.3708 L 852.5483 2211.3708 L 852.5483 2201.3708 L 845.4773 2194.2998 L 838.4062 2201.3708 L 831.3351 2208.4419 L 831.3351 2218.4419 L 838.4062 2225.5130 L 838.4062 2235.5130 L 838.4062 2245.5130 L 828.4062 2245.5130 L 821.3351 2238.4419 L 814.2641 2245.5130 L 814.2641 2255.5130 L 814.2641 2265.5130 L 804.2641 2265.5130 L 804.2641 2255.5130 L 797.1930 2248.4419 L 790.1219 2255.5130 L 783.0509 2262.5841 L 783.0509 2272.5841 L 775.9798 2279.6551 L 765.9798 2279.6551 L 765.9798 2269.6551 L 758.9087 2262.5841 L 751.8377 2269.6551 L 744.7666 2276.7262 L 744.7666 2286.7262 L 737.6955 2293.7973 L 727.6955 2293.7973 L 717.6955 2293.7973 L 717.6955 2283.7973 L 724.7666 2276.7262 L 717.6955 2269.6551 L 707.6955 2269.6551 L 697.6955 2269.6551 L 690.6245 2276.7262 L 680.6245 2276.7262 L 670.6245 2276.7262 L 670.6245 2266.7262 L 677.6955 2259.6551 L 670.6245 2252.5841 L 660.6245 2252.5841 L 650.6245 2252.5841 L 643.5534 2245.5130 L 643.5534 2235.5130 L 643.5534 2225.5130 L 653.5534 2225.5130 L 660.6245 2232.5841 L 667.6955 2225.5130 L 667.6955 2215.5130 L 667.6955 2205.5130 L 674.7666 2198.4419 L 684.7666 2198.4419 L 684.7666 2208.4419 L 691.8377 2215.5130 L 698.9087 2208.4419 L 705.9798 2201.3708 L 705.9798 2191.3708 L 698.9087 2184.2998 L 698.9087 2174.2998 L 708.9087 2174.2998 L 715.9798 2167.2287 L 708.9087 2160.1576 L 701.8377 2153.0866 L 691.8377 2153.0866 L 684.7666 2160.1576 L 674.7666 2160.1576 L 664.7666 2160.1576 L 664.7666 2150.1576 L 671.8377 2143.0866 L 664.7666 2136.0155 L 654.7666 2136.0155 L 644.7666 2136.0155 L 634.7666 2136.0155 L 627.6955 2128.9444 L 627.6955 2118.9444 L 637.6955 2118.9444 L 644.7666 2111.8734 L 637.6955 2104.8023 L 630.6245 2097.7312 L 620.6245 2097.7312 L 613.5534 2090.6602 L 613.5534 2080.6602 L 613.5534 2070.6602 L 623.5534 2070.6602 L 630.6245 2077.7312 L 637.6955 2070.6602 L 637.6955 2060.6602 L 637.6955 2050.6602 L 630.6245 2043.5891 L 630.6245 2033.5891 L 630.6245 2023.5891 L 640.6245 2023.5891 L 647.6955 2030.6602 L 654.7666 2023.5891 L 654.7666 2013.5891 L 654.7666 2003.5891 L 661.8377 1996.5180 L 671.8377 1996.5180 L 681.8377 1996.5180 L 681.8377 2006.5180 L 674.7666 2013.5891 L 681.8377 2020.6602 L 691.8377 2020.6602 L 701.8377 2020.6602 L 708.9087 2027.7312 L 708.9087 2037.7312 L 698.9087 2037.7312 L 691.8377 2044.8023 L 698.9087 2051.8734 L 705.9798 2058.9444 L 715.9798 2058.9444 L 723.0509 2051.8734 L 733.0509 2051.8734 L 733.0509 2061.8734 L 740.1219 2068.9444 L 747.1930 2061.8734 L 754.2641 2054.8023 L 754.2641 2044.8023 L 747.1930 2037.7312 L 747.1930 2027.7312 L 747.1930 2017.7312 L 757.1930 2017.7312 L 764.2641 2024.8023 L 771.3351 2017.7312 L 771.3351 2007.7312 L 771.3351 1997.7312 L 771.3351 1987.7312 L 764.2641 1980.6602 L 764.2641 1970.6602 L 774.2641 1970.6602 L 781.3351 1963.5891 L 774.2641 1956.5180 L 767.1930 1949.4470 L 757.1930 1949.4470 L 750.1219 1942.3759 L 750.1219 1932.3759 L 750.1219 1922.3759 L 760.1219 1922.3759 L 767.1930 1929.4470 L 774.2641 1922.3759 L 774.2641 1912.3759 L 774.2641 1902.3759 L 781.3351 1895.3048 L 791.3351 1895.3048 L 801.3351 1895.3048 L 801.3351 1905.3048 L 794.2641 1912.3759 L 801.3351 1919.4470 L 811.3351 1919.4470 L 821.3351 1919.4470 L 828.4062 1912.3759 L 838.4062 1912.3759 L 838.4062 1922.3759 L 845.4773 1929.4470 L 852.5483 1922.3759 L 859.6194 1915.3048 L 859.6194 1905.3048 L 852.5483 1898.2338 L 852.5483 1888.2338 L 862.5483 1888.2338 L 869.6194 1881.1627 L 862.5483 1874.0916 L 855.4773 1867.0206 L 845.4773 1867.0206 L 838.4062 1859.9495 L 838.4062 1849.9495 L 848.4062 1849.9495 L 855.4773 1842.8784 L 848.4062 1835.8074 L 841.3351 1828.7363 L 831.3351 1828.7363 L 824.2641 1835.8074 L 814.2641 1835.8074 L 804.2641 1835.8074 L 804.2641 1825.8074 L 811.3351 1818.7363 L 804.2641 1811.6652 L 794.2641 1811.6652 L 784.2641 1811.6652 L 784.2641 1801.6652 L 794.2641 1801.6652 L 801.3351 1794.5942 L 794.2641 1787.5231 L 787.1930 1780.4520 L 777.1930 1780.4520 L 770.1219 1787.5231 L 760.1219 1787.5231 L 760.1219 1777.5231 L 753.0509 1770.4520 L 745.9798 1777.5231 L 738.9087 1784.5942 L 738.9087 1794.5942 L 731.8377 1801.6652 L 721.8377 1801.6652 L 711.8377 1801.6652 L 711.8377 1791.6652 L 718.9087 1784.5942 L 711.8377 1777.5231 L 701.8377 1777.5231 L 691.8377 1777.5231 L 684.7666 1770.4520 L 684.7666 1760.4520 L 684.7666 1750.4520 L 694.7666 1750.4520 L 701.8377 1757.5231 L 708.9087 1750.4520 L 708.9087 1740.4520 L 708.9087 1730.4520 L 701.8377 1723.3810 L 701.8377 1713.3810 L 711.8377 1713.3810 L 718.9087 1706.3099 L 711.8377 1699.2388 L 704.7666 1692.1677 L 694.7666 1692.1677 L 687.6955 1699.2388 L 677.6955 1699.2388 L 677.6955 1689.2388 L 670.6245 1682.1677 L 663.5534 1689.2388 L 656.4823 1696.3099 L 656.4823 1706.3099 L 649.4113 1713.3810 L 639.4113 1713.3810 L 639.4113 1703.3810 L 632.3402 1696.3099 L 625.2691 1703.3810 L 618.1981 1710.4520 L 618.1981 1720.4520 L 625.2691 1727.5231 L 625.2691 1737.5231 L 625.2691 1747.5231 L 615.2691 1747.5231 L 608.1981 1740.4520 L 601.1270 1747.5231 L 601.1270 1757.5231 L 601.1270 1767.5231 L 591.1270 1767.5231 L 591.1270 1757.5231 L 584.0559 1750.4520 L 576.9848 1757.5231 L 569.9138 1764.5942 L 569.9138 1774.5942 L 562.8427 1781.6652 L 552.8427 1781.6652 L 552.8427 1771.6652 L 545.7716 1764.5942 L 538.7006 1771.6652 L 531.6295 1778.7363 L 531.6295 1788.7363 L 524.5584 1795.8074 L 514.5584 1795.8074 L 504.5584 1795.8074 L 504.5584 1785.8074 L 511.6295 1778.7363 L 504.5584 1771.6652 L 494.5584 1771.6652 L 484.5584 1771.6652 L 477.4874 1764.5942 L 477.4874 1754.5942 L 477.4874 1744.5942 L 487.4874 1744.5942 L 494.5584 1751.6652 L 501.6295 1744.5942 L 501.6295 1734.5942 L 501.6295 1724.5942 L 494.5584 1717.5231 L 494.5584 1707.5231 L 504.5584 1707.5231 L 511.6295 1700.4520 L 504.5584 1693.3810 L 497.4874 1686.3099 L 487.4874 1686.3099 L 480.4163 1693.3810 L 470.4163 1693.3810 L 470.4163 1683.3810 L 463.3452 1676.3099 L 456.2742 1683.3810 L 449.2031 1690.4520 L 449.2031 1700.4520 L 442.1320 1707.5231 L 432.1320 1707.5231 L 432.1320 1697.5231 L 425.0610 1690.4520 L 417.9899 1697.5231 L 410.9188 1704.5942 L 410.9188 1714.5942 L 417.9899 1721.6652 L 417.9899 1731.6652 L 417.9899 1741.6652 L 407.9899 1741.6652 L 400.9188 1734.5942 L 393.8478 1741.6652 L 393.8478 1751.6652 L 393.8478 1761.6652 L 383.8478 1761.6652 L 383.8478 1751.6652 L 376.7767 1744.5942 L 369.7056 1751.6652 L 362.6346 1758.7363 L 362.6346 1768.7363 L 369.7056 1775.8074 L 369.7056 1785.8074 L 359.7056 1785.8074 L 352.6346 1792.8784 L 359.7056 1799.9495 L 366.7767 1807.0206 L 376.7767 1807.0206 L 383.8478 1814.0916 L 383.8478 1824.0916 L 383.8478 1834.0916 L 373.8478 1834.0916 L 366.7767 1827.0206 L 359.7056 1834.0916 L 359.7056 1844.0916 L 359.7056 1854.0916 L 366.7767 1861.1627 L 366.7767 1871.1627 L 366.7767 1881.1627 L 356.7767 1881.1627 L 349.7056 1874.0916 L 342.6346 1881.1627 L 342.6346 1891.1627 L 342.6346 1901.1627 L 335.5635 1908.2338 L 325.5635 1908.2338 L 315.5635 1908.2338 L 315.5635 1898.2338 L 322.6346 1891.1627 L 315.5635 1884.0916 L 305.5635 1884.0916 L 295.5635 1884.0916 L 288.4924 1877.0206 L 288.4924 1867.0206 L 298.4924 1867.0206 L 305.5635 1859.9495 L 298.4924 1852.8784 L 291.4214 1845.8074 L 281.4214 1845.8074 L 274.3503 1852.8784 L 264.3503 1852.8784 L 264.3503 1842.8784 L 257.2792 1835.8074 L 250.2082 1842.8784 L 243.1371 1849.9495 L 243.1371 1859.9495 L 250.2082 1867.0206 L 250.2082 1877.0206 L 250.2082 1887.0206 L 240.2082 1887.0206 L 233.1371 1879.9495 L 226.0660 1887.0206 L 226.0660 1897.0206 L 226.0660 1907.0206 L 226.0660 1917.0206 L 216.0660 1917.0206 L 216.0660 1907.0206 L 208.9949 1899.9495 L 201.9239 1907.0206 L 194.8528 1914.0916 L 194.8528 1924.0916 L 187.7817 1931.1627 L 177.7817 1931.1627 L 167.7817 1931.1627 L 167.7817 1921.1627 L 174.8528 1914.0916 L 167.7817 1907.0206 L 157.7817 1907.0206 L 147.7817 1907.0206 L 140.7107 1899.9495 L 140.7107 1889.9495 L 140.7107 1879.9495 L 150.7107 1879.9495 L 157.7817 1887.0206 L 164.8528 1879.9495 L 164.8528 1869.9495 L 164.8528 1859.9495 L 157.7817 1852.8784 L 157.7817 1842.8784 L 167.7817 1842.8784 L 174.8528 1835.8074 L 167.7817 1828.7363 L 160.7107 1821.6652 L 150.7107 1821.6652 L 143.6396 1828.7363 L 133.6396 1828.7363 L 133.6396 1818.7363 L 126.5685 1811.6652 L 119.4975 1818.7363 L 112.4264 1825.8074 L 112.4264 1835.8074 L 105.3553 1842.8784 L 95.3553 1842.8784 L 95.3553 1832.8784 L 88.2843 1825.8074 L 81.2132 1832.8784 L 74.1421 1839.9495 L 74.1421 1849.9495 L 81.2132 1857.0206 L 81.2132 1867.0206 L 81.2132 1877.0206 L 71.2132 1877.0206 L 64.1421 1869.9495 L 57.0711 1877.0206 L 57.0711 1887.0206 L 57.0711 1897.0206 L 47.0711 1897.0206 L 47.0711 1887.0206 L 40.0000 1879.9495 L 32.9289 1887.0206 L 25.8579 1894.0916 L 25.8579 1904.0916 L 18.7868 1897.0206 L 25.8579 1889.9495 L 25.8579 1879.9495 L 15.8579 1879.9495 L 5.8579 1879.9495 L -1.2132 1887.0206 L -11.2132 1887.0206 L -18.2843 1879.9495 L -25.3553 1872.8784 L -18.2843 1865.8074 L -8.2843 1865.8074 L -8.2843 1855.8074 L -15.3553 1848.7363 L -22.4264 1841.6652 L -22.4264 1831.6652 L -15.3553 1824.5942 L -8.2843 1817.5231 L -1.2132 1824.5942 L -1.2132 1834.5942 L 8.7868 1834.5942 L 15.8579 1827.5231 L 22.9289 1820.4520 L 22.9289 1810.4520 L 30.0000 1803.3810 L 37.0711 1810.4520 L 47.0711 1810.4520 L 47.0711 1800.4520 L 47.0711 1790.4520 L 40.0000 1783.3810 L 30.0000 1783.3810 L 22.9289 1776.3099 L 30.0000 1769.2388 L 30.0000 1759.2388 L 20.0000 1759.2388 L 10.0000 1759.2388 L 2.9289 1766.3099 L -7.0711 1766.3099 L -14.1421 1759.2388 L -7.0711 1752.1677 L -7.0711 1742.1677 L -17.0711 1742.1677 L -27.0711 1742.1677 L -34.1421 1749.2388 L -34.1421 1759.2388 L -41.2132 1766.3099 L -48.2843 1773.3810 L -55.3553 1766.3099 L -55.3553 1756.3099 L -65.3553 1756.3099 L -72.4264 1763.3810 L -79.4975 1770.4520 L -86.5685 1763.3810 L -79.4975 1756.3099 L -79.4975 1746.3099 L -89.4975 1746.3099 L -99.4975 1746.3099 L -106.5685 1753.3810 L -116.5685 1753.3810 L -123.6396 1746.3099 L -116.5685 1739.2388 L -116.5685 1729.2388 L -126.5685 1729.2388 L -136.5685 1729.2388 L -143.6396 1736.3099 L -153.6396 1736.3099 L -160.7107 1729.2388 L -167.7817 1722.1677 L -160.7107 1715.0967 L -150.7107 1715.0967 L -150.7107 1705.0967 L -157.7817 1698.0256 L -164.8528 1690.9545 L -174.8528 1690.9545 L -181.9239 1683.8835 L -188.9949 1676.8124 L -181.9239 1669.7413 L -171.9239 1669.7413 L -171.9239 1659.7413 L -178.9949 1652.6703 L -186.0660 1645.5992 L -186.0660 1635.5992 L -178.9949 1628.5281 L -171.9239 1621.4571 L -164.8528 1628.5281 L -164.8528 1638.5281 L -154.8528 1638.5281 L -147.7817 1631.4571 L -140.7107 1624.3860 L -130.7107 1624.3860 L -123.6396 1631.4571 L -130.7107 1638.5281 L -130.7107 1648.5281 L -120.7107 1648.5281 L -110.7107 1648.5281 L -103.6396 1641.4571 L -103.6396 1631.4571 L -96.5685 1624.3860 L -89.4975 1631.4571 L -79.4975 1631.4571 L -79.4975 1621.4571 L -79.4975 1611.4571 L -86.5685 1604.3860 L -96.5685 1604.3860 L -103.6396 1597.3149 L -110.7107 1590.2439 L -103.6396 1583.1728 L -93.6396 1583.1728 L -93.6396 1573.1728 L -100.7107 1566.1017 L -107.7817 1559.0307 L -114.8528 1551.9596 L -114.8528 1541.9596 L -107.7817 1534.8885 L -100.7107 1541.9596 L -90.7107 1541.9596 L -90.7107 1531.9596 L -90.7107 1521.9596 L -97.7817 1514.8885 L -97.7817 1504.8885 L -90.7107 1497.8175 L -83.6396 1490.7464 L -76.5685 1497.8175 L -76.5685 1507.8175 L -66.5685 1507.8175 L -59.4975 1500.7464 L -52.4264 1493.6753 L -52.4264 1483.6753 L -45.3553 1476.6043 L -38.2843 1469.5332 L -31.2132 1476.6043 L -31.2132 1486.6043 L -21.2132 1486.6043 L -14.1421 1479.5332 L -7.0711 1472.4621 L 2.9289 1472.4621 L 10.0000 1479.5332 L 17.0711 1486.6043 L 10.0000 1493.6753 L 0.0000 1493.6753 L 0.0000 1503.6753 L 7.0711 1510.7464 L 14.1421 1517.8175 L 14.1421 1527.8175 L 7.0711 1534.8885 L 0.0000 1527.8175 L -10.0000 1527.8175 L -10.0000 1537.8175 L -10.0000 1547.8175 L -2.9289 1554.8885 L 7.0711 1554.8885 L 14.1421 1561.9596 L 7.0711 1569.0307 L 7.0711 1579.0307 L 17.0711 1579.0307 L 27.0711 1579.0307 L 34.1421 1571.9596 L 34.1421 1561.9596 L 41.2132 1554.8885 L 48.2843 1547.8175 L 55.3553 1554.8885 L 55.3553 1564.8885 L 65.3553 1564.8885 L 72.4264 1557.8175 L 79.4975 1550.7464 L 86.5685 1543.6753 L 86.5685 1533.6753 L 93.6396 1526.6043 L 100.7107 1533.6753 L 110.7107 1533.6753 L 110.7107 1523.6753 L 110.7107 1513.6753 L 103.6396 1506.6043 L 103.6396 1496.6043 L 110.7107 1489.5332 L 117.7817 1482.4621 L 124.8528 1489.5332 L 124.8528 1499.5332 L 134.8528 1499.5332 L 141.9239 1492.4621 L 148.9949 1485.3911 L 158.9949 1485.3911 L 166.0660 1492.4621 L 173.1371 1499.5332 L 166.0660 1506.6043 L 156.0660 1506.6043 L 156.0660 1516.6043 L 163.1371 1523.6753 L 170.2082 1530.7464 L 180.2082 1530.7464 L 187.2792 1537.8175 L 180.2082 1544.8885 L 180.2082 1554.8885 L 190.2082 1554.8885 L 200.2082 1554.8885 L 207.2792 1547.8175 L 207.2792 1537.8175 L 214.3503 1530.7464 L 221.4214 1537.8175 L 231.4214 1537.8175 L 231.4214 1527.8175 L 231.4214 1517.8175 L 224.3503 1510.7464 L 224.3503 1500.7464 L 231.4214 1493.6753 L 238.4924 1500.7464 L 248.4924 1500.7464 L 248.4924 1490.7464 L 248.4924 1480.7464 L 241.4214 1473.6753 L 231.4214 1473.6753 L 224.3503 1466.6043 L 217.2792 1459.5332 L 224.3503 1452.4621 L 234.3503 1452.4621 L 234.3503 1442.4621 L 227.2792 1435.3911 L 220.2082 1428.3200 L 227.2792 1421.2489 L 234.3503 1428.3200 L 244.3503 1428.3200 L 244.3503 1418.3200 L 244.3503 1408.3200 L 237.2792 1401.2489 L 227.2792 1401.2489 L 220.2082 1394.1778 L 227.2792 1387.1068 L 227.2792 1377.1068 L 217.2792 1377.1068 L 207.2792 1377.1068 L 200.2082 1384.1778 L 190.2082 1384.1778 L 183.1371 1377.1068 L 176.0660 1370.0357 L 183.1371 1362.9646 L 193.1371 1362.9646 L 193.1371 1352.9646 L 186.0660 1345.8936 L 178.9949 1338.8225 L 178.9949 1328.8225 L 186.0660 1321.7514 L 193.1371 1314.6804 L 200.2082 1321.7514 L 200.2082 1331.7514 L 210.2082 1331.7514 L 217.2792 1324.6804 L 224.3503 1317.6093 L 224.3503 1307.6093 L 231.4214 1300.5382 L 238.4924 1307.6093 L 248.4924 1307.6093 L 248.4924 1297.6093 L 248.4924 1287.6093 L 241.4214 1280.5382 L 231.4214 1280.5382 L 224.3503 1273.4672 L 231.4214 1266.3961 L 231.4214 1256.3961 L 221.4214 1256.3961 L 211.4214 1256.3961 L 204.3503 1263.4672 L 194.3503 1263.4672 L 187.2792 1256.3961 L 194.3503 1249.3250 L 194.3503 1239.3250 L 184.3503 1239.3250 L 174.3503 1239.3250 L 167.2792 1246.3961 L 167.2792 1256.3961 L 160.2082 1263.4672 L 153.1371 1270.5382 L 146.0660 1263.4672 L 146.0660 1253.4672 L 136.0660 1253.4672 L 128.9949 1260.5382 L 121.9239 1267.6093 L 114.8528 1260.5382 L 121.9239 1253.4672 L 121.9239 1243.4672 L 111.9239 1243.4672 L 101.9239 1243.4672 L 94.8528 1250.5382 L 84.8528 1250.5382 L 77.7817 1243.4672 L 84.8528 1236.3961 L 84.8528 1226.3961 L 74.8528 1226.3961 L 64.8528 1226.3961 L 57.7817 1233.4672 L 47.7817 1233.4672 L 40.7107 1226.3961 L 33.6396 1219.3250 L 40.7107 1212.2540 L 50.7107 1212.2540 L 50.7107 1202.2540 L 43.6396 1195.1829 L 36.5685 1188.1118 L 36.5685 1178.1118 L 43.6396 1171.0408 L 50.7107 1163.9697 L 57.7817 1171.0408 L 57.7817 1181.0408 L 67.7817 1181.0408 L 74.8528 1173.9697 L 81.9239 1166.8986 L 81.9239 1156.8986 L 88.9949 1149.8276 L 96.0660 1156.8986 L 106.0660 1156.8986 L 106.0660 1146.8986 L 106.0660 1136.8986 L 98.9949 1129.8276 L 88.9949 1129.8276 L 81.9239 1122.7565 L 88.9949 1115.6854 L 88.9949 1105.6854 L 78.9949 1105.6854 L 68.9949 1105.6854 L 61.9239 1112.7565 L 51.9239 1112.7565 L 44.8528 1105.6854 L 51.9239 1098.6144 L 51.9239 1088.6144 L 41.9239 1088.6144 L 31.9239 1088.6144 L 24.8528 1095.6854 L 24.8528 1105.6854 L 17.7817 1112.7565 L 10.7107 1119.8276 L 3.6396 1112.7565 L 3.6396 1102.7565 L -6.3604 1102.7565 L -13.4315 1109.8276 L -20.5025 1116.8986 L -27.5736 1109.8276 L -20.5025 1102.7565 L -20.5025 1092.7565 L -30.5025 1092.7565 L -40.5025 1092.7565 L -47.5736 1099.8276 L -47.5736 1109.8276 L -54.6447 1116.8986 L -61.7157 1109.8276 L -71.7157 1109.8276 L -71.7157 1119.8276 L -71.7157 1129.8276 L -64.6447 1136.8986 L -64.6447 1146.8986 L -71.7157 1153.9697 L -78.7868 1161.0408 L -85.8579 1153.9697 L -85.8579 1143.9697 L -95.8579 1143.9697 L -102.9289 1151.0408 L -110.0000 1158.1118 L -110.0000 1168.1118 L -117.0711 1175.1829 L -124.1421 1182.2540 L -131.2132 1175.1829 L -131.2132 1165.1829 L -141.2132 1165.1829 L -148.2843 1172.2540 L -155.3553 1179.3250 L -165.3553 1179.3250 L -172.4264 1172.2540 L -179.4975 1165.1829 L -172.4264 1158.1118 L -162.4264 1158.1118 L -162.4264 1148.1118 L -169.4975 1141.0408 L -176.5685 1133.9697 L -176.5685 1123.9697 L -169.4975 1116.8986 L -162.4264 1123.9697 L -152.4264 1123.9697 L -152.4264 1113.9697 L -152.4264 1103.9697 L -159.4975 1096.8986 L -169.4975 1096.8986 L -176.5685 1089.8276 L -169.4975 1082.7565 L -169.4975 1072.7565 L -179.4975 1072.7565 L -189.4975 1072.7565 L -196.5685 1079.8276 L -196.5685 1089.8276 L -203.6396 1096.8986 L -210.7107 1103.9697 L -217.7817 1096.8986 L -217.7817 1086.8986 L -227.7817 1086.8986 L -234.8528 1093.9697 L -241.9239 1101.0408 L -248.9949 1108.1118 L -256.0660 1101.0408 L -248.9949 1093.9697 L -248.9949 1083.9697 L -258.9949 1083.9697 L -268.9949 1083.9697 L -276.0660 1091.0408 L -286.0660 1091.0408 L -293.1371 1083.9697 L -300.2082 1076.8986 L -293.1371 1069.8276 L -283.1371 1069.8276 L -283.1371 1059.8276 L -290.2082 1052.7565 L -297.2792 1045.6854 L -297.2792 1035.6854 L -290.2082 1028.6144 L -283.1371 1021.5433 L -276.0660 1028.6144 L -276.0660 1038.6144 L -266.0660 1038.6144 L -258.9949 1031.5433 L -251.9239 1024.4722 L -251.9239 1014.4722 L -244.8528 1007.4012 L -237.7817 1014.4722 L -227.7817 1014.4722 L -227.7817 1004.4722 L -227.7817 994.4722 L -234.8528 987.4012 L -244.8528 987.4012 L -251.9239 980.3301 L -244.8528 973.2590 L -244.8528 963.2590 L -254.8528 963.2590 L -264.8528 963.2590 L -271.9239 970.3301 L -281.9239 970.3301 L -288.9949 963.2590 L -281.9239 956.1880 L -281.9239 946.1880 L -291.9239 946.1880 L -301.9239 946.1880 L -308.9949 953.2590 L -308.9949 963.2590 L -316.0660 970.3301 L -323.1371 977.4012 L -330.2082 970.3301 L -330.2082 960.3301 L -340.2082 960.3301 L -347.2792 967.4012 L -354.3503 974.4722 L -361.4214 967.4012 L -354.3503 960.3301 L -354.3503 950.3301 L -364.3503 950.3301 L -374.3503 950.3301 L -381.4214 957.4012 L -381.4214 947.4012 L -371.4214 947.4012 L -364.3503 940.3301 L -371.4214 933.2590 L -378.4924 926.1880 L -388.4924 926.1880 L -395.5635 919.1169 L -395.5635 909.1169 L -395.5635 899.1169 L -385.5635 899.1169 L -378.4924 906.1880 L -371.4214 899.1169 L -371.4214 889.1169 L -371.4214 879.1169 L -364.3503 872.0458 L -354.3503 872.0458 L -344.3503 872.0458 L -344.3503 882.0458 L -351.4214 889.1169 L -344.3503 896.1880 L -334.3503 896.1880 L -324.3503 896.1880 L -317.2792 889.1169 L -307.2792 889.1169 L -307.2792 899.1169 L -300.2082 906.1880 L -293.1371 899.1169 L -286.0660 892.0458 L -286.0660 882.0458 L -293.1371 874.9747 L -293.1371 864.9747 L -283.1371 864.9747 L -276.0660 857.9037 L -283.1371 850.8326 L -290.2082 843.7615 L -300.2082 843.7615 L -307.2792 836.6905 L -307.2792 826.6905 L -297.2792 826.6905 L -290.2082 819.6194 L -297.2792 812.5483 L -304.3503 805.4773 L -314.3503 805.4773 L -321.4214 812.5483 L -331.4214 812.5483 L -341.4214 812.5483 L -341.4214 802.5483 L -334.3503 795.4773 L -341.4214 788.4062 L -351.4214 788.4062 L -361.4214 788.4062 L -361.4214 778.4062 L -351.4214 778.4062 L -344.3503 771.3351 L -351.4214 764.2641 L -358.4924 757.1930 L -368.4924 757.1930 L -375.5635 750.1219 L -375.5635 740.1219 L -365.5635 740.1219 L -358.4924 733.0509 L -365.5635 725.9798 L -372.6346 718.9087 L -382.6346 718.9087 L -389.7056 711.8377 L -389.7056 701.8377 L -389.7056 691.8377 L -379.7056 691.8377 L -372.6346 698.9087 L -365.5635 691.8377 L -365.5635 681.8377 L -365.5635 671.8377 L -372.6346 664.7666 L -372.6346 654.7666 L -372.6346 644.7666 L -362.6346 644.7666 L -355.5635 651.8377 L -348.4924 644.7666 L -348.4924 634.7666 L -348.4924 624.7666 L -341.4214 617.6955 L -331.4214 617.6955 L -321.4214 617.6955 L -321.4214 627.6955 L -328.4924 634.7666 L -321.4214 641.8377 L -311.4214 641.8377 L -301.4214 641.8377 L -294.3503 648.9087 L -294.3503 658.9087 L -304.3503 658.9087 L -311.4214 665.9798 L -304.3503 673.0509 L -297.2792 680.1219 L -287.2792 680.1219 L -280.2082 673.0509 L -270.2082 673.0509 L -270.2082 683.0509 L -263.1371 690.1219 L -256.0660 683.0509 L -248.9949 675.9798 L -248.9949 665.9798 L -256.0660 658.9087 L -256.0660 648.9087 L -256.0660 638.9087 L -246.0660 638.9087 L -238.9949 645.9798 L -231.9239 638.9087 L -231.9239 628.9087 L -231.9239 618.9087 L -231.9239 608.9087 L -224.8528 601.8377 L -214.8528 601.8377 L -214.8528 611.8377 L -207.7817 618.9087 L -200.7107 611.8377 L -193.6396 604.7666 L -193.6396 594.7666 L -186.5685 587.6955 L -176.5685 587.6955 L -166.5685 587.6955 L -166.5685 597.6955 L -173.6396 604.7666 L -166.5685 611.8377 L -156.5685 611.8377 L -146.5685 611.8377 L -139.4975 604.7666 L -129.4975 604.7666 L -119.4975 604.7666 L -119.4975 614.7666 L -126.5685 621.8377 L -119.4975 628.9087 L -109.4975 628.9087 L -99.4975 628.9087 L -92.4264 635.9798 L -92.4264 645.9798 L -92.4264 655.9798 L -102.4264 655.9798 L -109.4975 648.9087 L -116.5685 655.9798 L -116.5685 665.9798 L -116.5685 675.9798 L -123.6396 683.0509 L -133.6396 683.0509 L -133.6396 673.0509 L -140.7107 665.9798 L -147.7817 673.0509 L -154.8528 680.1219 L -154.8528 690.1219 L -147.7817 697.1930 L -147.7817 707.1930 L -157.7817 707.1930 L -164.8528 714.2641 L -157.7817 721.3351 L -150.7107 728.4062 L -140.7107 728.4062 L -133.6396 721.3351 L -123.6396 721.3351 L -113.6396 721.3351 L -113.6396 731.3351 L -120.7107 738.4062 L -113.6396 745.4773 L -103.6396 745.4773 L -93.6396 745.4773 L -83.6396 745.4773 L -76.5685 738.4062 L -66.5685 738.4062 L -66.5685 748.4062 L -59.4975 755.4773 L -52.4264 748.4062 L -45.3553 741.3351 L -45.3553 731.3351 L -38.2843 724.2641 L -28.2843 724.2641 L -18.2843 724.2641 L -18.2843 734.2641 L -25.3553 741.3351 L -18.2843 748.4062 L -8.2843 748.4062 L 1.7157 748.4062 L 8.7868 755.4773 L 8.7868 765.4773 L 8.7868 775.4773 L -1.2132 775.4773 L -8.2843 768.4062 L -15.3553 775.4773 L -15.3553 785.4773 L -15.3553 795.4773 L -8.2843 802.5483 L -8.2843 812.5483 L -18.2843 812.5483 L -25.3553 819.6194 L -18.2843 826.6905 L -11.2132 833.7615 L -1.2132 833.7615 L 5.8579 826.6905 L 15.8579 826.6905 L 15.8579 836.6905 L 22.9289 843.7615 L 30.0000 836.6905 L 37.0711 829.6194 L 37.0711 819.6194 L 44.1421 812.5483 L 54.1421 812.5483 L 54.1421 822.5483 L 61.2132 829.6194 L 68.2843 822.5483 L 75.3553 815.4773 L 75.3553 805.4773 L 68.2843 798.4062 L 68.2843 788.4062 L 68.2843 778.4062 L 78.2843 778.4062 L 85.3553 785.4773 L 92.4264 778.4062 L 92.4264 768.4062 L 92.4264 758.4062 L 102.4264 758.4062 L 102.4264 768.4062 L 109.4975 775.4773 L 116.5685 768.4062 L 123.6396 761.3351 L 123.6396 751.3351 L 116.5685 744.2641 L 116.5685 734.2641 L 126.5685 734.2641 L 133.6396 727.1930 L 126.5685 720.1219 L 119.4975 713.0509 L 109.4975 713.0509 L 102.4264 705.9798 L 102.4264 695.9798 L 102.4264 685.9798 L 112.4264 685.9798 L 119.4975 693.0509 L 126.5685 685.9798 L 126.5685 675.9798 L 126.5685 665.9798 L 133.6396 658.9087 L 143.6396 658.9087 L 153.6396 658.9087 L 153.6396 668.9087 L 146.5685 675.9798 L 153.6396 683.0509 L 163.6396 683.0509 L 173.6396 683.0509 L 180.7107 675.9798 L 190.7107 675.9798 L 190.7107 685.9798 L 197.7817 693.0509 L 204.8528 685.9798 L 211.9239 678.9087 L 211.9239 668.9087 L 204.8528 661.8377 L 204.8528 651.8377 L 214.8528 651.8377 L 221.9239 644.7666 L 214.8528 637.6955 L 207.7817 630.6245 L 197.7817 630.6245 L 190.7107 623.5534 L 190.7107 613.5534 L 200.7107 613.5534 L 207.7817 606.4823 L 200.7107 599.4113 L 193.6396 592.3402 L 183.6396 592.3402 L 176.5685 599.4113 L 166.5685 599.4113 L 156.5685 599.4113 L 156.5685 589.4113 L 163.6396 582.3402 L 156.5685 575.2691 L 146.5685 575.2691 L 136.5685 575.2691 L 136.5685 565.2691 L 146.5685 565.2691 L 153.6396 558.1981 L 146.5685 551.1270 L 139.4975 544.0559 L 129.4975 544.0559 L 122.4264 536.9848 L 122.4264 526.9848 L 132.4264 526.9848 L 139.4975 519.9138 L 132.4264 512.8427 L 125.3553 505.7716 L 115.3553 505.7716 L 108.2843 498.7006 L 108.2843 488.7006 L 108.2843 478.7006 L 118.2843 478.7006 L 125.3553 485.7716 L 132.4264 478.7006 L 132.4264 468.7006 L 132.4264 458.7006 L 139.4975 451.6295 L 149.4975 451.6295 L 159.4975 451.6295 L 159.4975 461.6295 L 152.4264 468.7006 L 159.4975 475.7716 L 169.4975 475.7716 L 179.4975 475.7716 L 186.5685 468.7006 L 196.5685 468.7006 L 196.5685 478.7006 L 203.6396 485.7716 L 210.7107 478.7006 L 217.7817 471.6295 L 217.7817 461.6295 L 210.7107 454.5584 L 210.7107 444.5584 L 220.7107 444.5584 L 227.7817 437.4874 L 220.7107 430.4163 L 213.6396 423.3452 L 203.6396 423.3452 L 196.5685 416.2742 L 196.5685 406.2742 L 206.5685 406.2742 L 213.6396 399.2031 L 206.5685 392.1320 L 199.4975 385.0610 L 189.4975 385.0610 L 182.4264 392.1320 L 172.4264 392.1320 L 162.4264 392.1320 L 162.4264 382.1320 L 169.4975 375.0610 L 162.4264 367.9899 L 152.4264 367.9899 L 142.4264 367.9899 L 142.4264 357.9899 L 152.4264 357.9899 L 159.4975 350.9188 L 152.4264 343.8478 L 145.3553 336.7767 L 135.3553 336.7767 L 128.2843 343.8478 L 118.2843 343.8478 L 118.2843 333.8478 L 111.2132 326.7767 L 104.1421 333.8478 L 97.0711 340.9188 L 97.0711 350.9188 L 90.0000 357.9899 L 80.0000 357.9899 L 70.0000 357.9899 L 70.0000 347.9899 L 77.0711 340.9188 L 70.0000 333.8478 L 60.0000 333.8478 L 50.0000 333.8478 L 42.9289 340.9188 L 32.9289 340.9188 L 22.9289 340.9188 L 22.9289 330.9188 L 30.0000 323.8478 L 22.9289 316.7767 L 12.9289 316.7767 L 2.9289 316.7767 L -4.1421 309.7056 L -4.1421 299.7056 L -4.1421 289.7056 L 5.8579 289.7056 L 12.9289 296.7767 L 20.0000 289.7056 L 20.0000 279.7056 L 20.0000 269.7056 L 27.0711 262.6346 L 37.0711 262.6346 L 37.0711 272.6346 L 44.1421 279.7056 L 51.2132 272.6346 L 58.2843 265.5635 L 58.2843 255.5635 L 51.2132 248.4924 L 51.2132 238.4924 L 61.2132 238.4924 L 68.2843 231.4214 L 61.2132 224.3503 L 54.1421 217.2792 L 44.1421 217.2792 L 37.0711 224.3503 L 27.0711 224.3503 L 17.0711 224.3503 L 17.0711 214.3503 L 24.1421 207.2792 L 17.0711 200.2082 L 7.0711 200.2082 L -2.9289 200.2082 L -12.9289 200.2082 L -12.9289 190.2082 L -2.9289 190.2082 L 4.1421 183.1371 L -2.9289 176.0660 L -10.0000 168.9949 L -20.0000 168.9949 L -27.0711 161.9239 L -27.0711 151.9239 L -27.0711 141.9239 L -17.0711 141.9239 L -10.0000 148.9949 L -2.9289 141.9239 L -2.9289 131.9239 L -2.9289 121.9239 L 4.1421 114.8528 L 14.1421 114.8528 L 24.1421 114.8528 L 24.1421 124.8528 L 17.0711 131.9239 L 24.1421 138.9949 L 34.1421 138.9949 L 44.1421 138.9949 L 51.2132 131.9239 L 61.2132 131.9239 L 61.2132 141.9239 L 68.2843 148.9949 L 75.3553 141.9239 L 82.4264 134.8528 L 82.4264 124.8528 L 75.3553 117.7817 L 75.3553 107.7817 L 85.3553 107.7817 L 92.4264 100.7107 L 85.3553 93.6396 L 78.2843 86.5685 L 68.2843 86.5685 L 61.2132 79.4975 L 61.2132 69.4975 L 71.2132 69.4975 L 78.2843 62.4264 L 71.2132 55.3553 L 64.1421 48.2843 L 54.1421 48.2843 L 47.0711 55.3553 L 37.0711 55.3553 L 27.0711 55.3553 L 27.0711 45.3553 L 34.1421 38.2843 L 27.0711 31.2132 L 17.0711 31.2132 L 7.0711 31.2132 L 7.0711 21.2132 L 17.0711 21.2132 L 24.1421 14.1421 L 17.0711 7.0711 L 10.0000 -0.0000 L 0.0000 -0.0000 " stroke-width="1" stroke="black" fill="none"/></svg>
