<svg viewBox="-327.35760263051804 -891.0 1122.3689233046332 972.0000000000001" xmlns="http://www.w3.org/2000/svg"><path d="M 0 0 L 0.0000 -10.0000 L -8.6603 -15.0000 L 0.0000 -20.0000 L 0.0000 -30.0000 L -8.6603 -35.0000 L -17.3205 -30.0000 L -17.3205 -40.0000 L -25.9808 -45.0000 L -17.3205 -50.0000 L -17.3205 -60.0000 L -8.6603 -55.0000 L 0.0000 -60.0000 L 0.0000 -70.0000 L -8.6603 -75.0000 L 0.0000 -80.0000 L 0.0000 -90.0000 L -8.6603 -95.0000 L -17.3205 -90.0000 L -17.3205 -100.0000 L -25.9808 -105.0000 L -34.6410 -100.0000 L -34.6410 -90.0000 L -43.3013 -95.0000 L -51.9615 -90.0000 L -51.9615 -100.0000 L -60.6218 -105.0000 L -51.9615 -110.0000 L -51.9615 -120.0000 L -60.6218 -125.0000 L -69.2820 -120.0000 L -69.2820 -130.0000 L -77.9423 -135.0000 L -69.2820 -140.0000 L -69.2820 -150.0000 L -60.6218 -145.0000 L -51.9615 -150.0000 L -51.9615 -160.0000 L -60.6218 -165.0000 L -51.9615 -170.0000 L -51.9615 -180.0000 L -43.3013 -175.0000 L -34.6410 -180.0000 L -34.6410 -170.0000 L -25.9808 -165.0000 L -17.3205 -170.0000 L -17.3205 -180.0000 L -8.6603 -175.0000 L -0.0000 -180.0000 L 0.0000 -190.0000 L -8.6603 -195.0000 L 0.0000 -200.0000 L 0.0000 -210.0000 L -8.6603 -215.0000 L -17.3205 -210.0000 L -17.3205 -220.0000 L -25.9808 -225.0000 L -17.3205 -230.0000 L -17.3205 -240.0000 L -8.6603 -235.0000 L 0.0000 -240.0000 L 0.0000 -250.0000 L -8.6603 -255.0000 L 0.0000 -260.0000 L 0.0000 -270.0000 L -8.6603 -275.0000 L -17.3205 -270.0000 L -17.3205 -280.0000 L -25.9808 -285.0000 L -34.6410 -280.0000 L -34.6410 -270.0000 L -43.3013 -275.0000 L -51.9615 -270.0000 L -51.9615 -280.0000 L -60.6218 -285.0000 L -51.9615 -290.0000 L -51.9615 -300.0000 L -60.6218 -305.0000 L -69.2820 -300.0000 L -69.2820 -310.0000 L -77.9423 -315.0000 L -86.6025 -310.0000 L -86.6025 -300.0000 L -95.2628 -305.0000 L -103.9230 -300.0000 L -103.9230 -290.0000 L -95.2628 -285.0000 L -103.9230 -280.0000 L -103.9230 -270.0000 L -112.5833 -275.0000 L -121.2436 -270.0000 L -121.2436 -280.0000 L -129.9038 -285.0000 L -138.5641 -280.0000 L -138.5641 -270.0000 L -147.2243 -275.0000 L -155.8846 -270.0000 L -155.8846 -280.0000 L -164.5448 -285.0000 L -155.8846 -290.0000 L -155.8846 -300.0000 L -164.5448 -305.0000 L -173.2051 -300.0000 L -173.2051 -310.0000 L -181.8653 -315.0000 L -173.2051 -320.0000 L -173.2051 -330.0000 L -164.5448 -325.0000 L -155.8846 -330.0000 L -155.8846 -340.0000 L -164.5448 -345.0000 L -155.8846 -350.0000 L -155.8846 -360.0000 L -164.5448 -365.0000 L -173.2051 -360.0000 L -173.2051 -370.0000 L -181.8653 -375.0000 L -190.5256 -370.0000 L -190.5256 -360.0000 L -199.1858 -365.0000 L -207.8461 -360.0000 L -207.8461 -370.0000 L -216.5064 -375.0000 L -207.8461 -380.0000 L -207.8461 -390.0000 L -216.5064 -395.0000 L -225.1666 -390.0000 L -225.1666 -400.0000 L -233.8269 -405.0000 L -225.1666 -410.0000 L -225.1666 -420.0000 L -216.5064 -415.0000 L -207.8461 -420.0000 L -207.8461 -430.0000 L -216.5064 -435.0000 L -207.8461 -440.0000 L -207.8461 -450.0000 L -199.1858 -445.0000 L -190.5256 -450.0000 L -190.5256 -440.0000 L -181.8653 -435.0000 L -173.2051 -440.0000 L -173.2051 -450.0000 L -164.5448 -445.0000 L -155.8846 -450.0000 L -155.8846 -460.0000 L -164.5448 -465.0000 L -155.8846 -470.0000 L -155.8846 -480.0000 L -164.5448 -485.0000 L -173.2051 -480.0000 L -173.2051 -490.0000 L -181.8653 -495.0000 L -173.2051 -500.0000 L -173.2051 -510.0000 L -164.5448 -505.0000 L -155.8846 -510.0000 L -155.8846 -520.0000 L -164.5448 -525.0000 L -155.8846 -530.0000 L -155.8846 -540.0000 L -147.2243 -535.0000 L -138.5641 -540.0000 L -138.5641 -530.0000 L -129.9038 -525.0000 L -121.2436 -530.0000 L -121.2436 -540.0000 L -112.5833 -535.0000 L -103.9230 -540.0000 L -103.9230 -530.0000 L -95.2628 -525.0000 L -103.9230 -520.0000 L -103.9230 -510.0000 L -95.2628 -505.0000 L -86.6025 -510.0000 L -86.6025 -500.0000 L -77.9423 -495.0000 L -69.2820 -500.0000 L -69.2820 -510.0000 L -60.6218 -505.0000 L -51.9615 -510.0000 L -51.9615 -520.0000 L -60.6218 -525.0000 L -51.9615 -530.0000 L -51.9615 -540.0000 L -43.3013 -535.0000 L -34.6410 -540.0000 L -34.6410 -530.0000 L -25.9808 -525.0000 L -17.3205 -530.0000 L -17.3205 -540.0000 L -8.6603 -535.0000 L -0.0000 -540.0000 L -0.0000 -550.0000 L -8.6603 -555.0000 L -0.0000 -560.0000 L -0.0000 -570.0000 L -8.6603 -575.0000 L -17.3205 -570.0000 L -17.3205 -580.0000 L -25.9808 -585.0000 L -17.3205 -590.0000 L -17.3205 -600.0000 L -8.6603 -595.0000 L -0.0000 -600.0000 L -0.0000 -610.0000 L -8.6603 -615.0000 L -0.0000 -620.0000 L -0.0000 -630.0000 L -8.6603 -635.0000 L -17.3205 -630.0000 L -17.3205 -640.0000 L -25.9808 -645.0000 L -34.6410 -640.0000 L -34.6410 -630.0000 L -43.3013 -635.0000 L -51.9615 -630.0000 L -51.9615 -640.0000 L -60.6218 -645.0000 L -51.9615 -650.0000 L -51.9615 -660.0000 L -60.6218 -665.0000 L -69.2820 -660.0000 L -69.2820 -670.0000 L -77.9423 -675.0000 L -69.2820 -680.0000 L -69.2820 -690.0000 L -60.6218 -685.0000 L -51.9615 -690.0000 L -51.9615 -700.0000 L -60.6218 -705.0000 L -51.9615 -710.0000 L -51.9615 -720.0000 L -43.3013 -715.0000 L -34.6410 -720.0000 L -34.6410 -710.0000 L -25.9808 -705.0000 L -17.3205 -710.0000 L -17.3205 -720.0000 L -8.6603 -715.0000 L -0.0000 -720.0000 L -0.0000 -730.0000 L -8.6603 -735.0000 L -0.0000 -740.0000 L -0.0000 -750.0000 L -8.6603 -755.0000 L -17.3205 -750.0000 L -17.3205 -760.0000 L -25.9808 -765.0000 L -17.3205 -770.0000 L -17.3205 -780.0000 L -8.6603 -775.0000 L -0.0000 -780.0000 L -0.0000 -790.0000 L -8.6603 -795.0000 L -0.0000 -800.0000 L -0.0000 -810.0000 L 8.6603 -805.0000 L 17.3205 -810.0000 L 17.3205 -800.0000 L 25.9808 -795.0000 L 34.6410 -800.0000 L 34.6410 -810.0000 L 43.3013 -805.0000 L 51.9615 -810.0000 L 51.9615 -800.0000 L 60.6218 -795.0000 L 51.9615 -790.0000 L 51.9615 -780.0000 L 60.6218 -775.0000 L 69.2820 -780.0000 L 69.2820 -770.0000 L 77.9423 -765.0000 L 86.6025 -770.0000 L 86.6025 -780.0000 L 95.2628 -775.0000 L 103.9230 -780.0000 L 103.9230 -790.0000 L 95.2628 -795.0000 L 103.9230 -800.0000 L 103.9230 -810.0000 L 112.5833 -805.0000 L 121.2436 -810.0000 L 121.2436 -800.0000 L 129.9038 -795.0000 L 138.5641 -800.0000 L 138.5641 -810.0000 L 147.2243 -805.0000 L 155.8846 -810.0000 L 155.8846 -800.0000 L 164.5448 -795.0000 L 155.8846 -790.0000 L 155.8846 -780.0000 L 164.5448 -775.0000 L 173.2051 -780.0000 L 173.2051 -770.0000 L 181.8653 -765.0000 L 173.2051 -760.0000 L 173.2051 -750.0000 L 164.5448 -755.0000 L 155.8846 -750.0000 L 155.8846 -740.0000 L 164.5448 -735.0000 L 155.8846 -730.0000 L 155.8846 -720.0000 L 164.5448 -715.0000 L 173.2051 -720.0000 L 173.2051 -710.0000 L 181.8653 -705.0000 L 190.5256 -710.0000 L 190.5256 -720.0000 L 199.1858 -715.0000 L 207.8461 -720.0000 L 207.8461 -710.0000 L 216.5064 -705.0000 L 207.8461 -700.0000 L 207.8461 -690.0000 L 216.5064 -685.0000 L 225.1666 -690.0000 L 225.1666 -680.0000 L 233.8269 -675.0000 L 242.4871 -680.0000 L 242.4871 -690.0000 L 251.1474 -685.0000 L 259.8076 -690.0000 L 259.8076 -700.0000 L 251.1474 -705.0000 L 259.8076 -710.0000 L 259.8076 -720.0000 L 268.4679 -715.0000 L 277.1281 -720.0000 L 277.1281 -710.0000 L 285.7884 -705.0000 L 294.4486 -710.0000 L 294.4486 -720.0000 L 303.1089 -715.0000 L 311.7691 -720.0000 L 311.7691 -730.0000 L 303.1089 -735.0000 L 311.7691 -740.0000 L 311.7691 -750.0000 L 303.1089 -755.0000 L 294.4486 -750.0000 L 294.4486 -760.0000 L 285.7884 -765.0000 L 294.4486 -770.0000 L 294.4486 -780.0000 L 303.1089 -775.0000 L 311.7691 -780.0000 L 311.7691 -790.0000 L 303.1089 -795.0000 L 311.7691 -800.0000 L 311.7691 -810.0000 L 320.4294 -805.0000 L 329.0897 -810.0000 L 329.0897 -800.0000 L 337.7499 -795.0000 L 346.4102 -800.0000 L 346.4102 -810.0000 L 355.0704 -805.0000 L 363.7307 -810.0000 L 363.7307 -800.0000 L 372.3909 -795.0000 L 363.7307 -790.0000 L 363.7307 -780.0000 L 372.3909 -775.0000 L 381.0512 -780.0000 L 381.0512 -770.0000 L 389.7114 -765.0000 L 398.3717 -770.0000 L 398.3717 -780.0000 L 407.0319 -775.0000 L 415.6922 -780.0000 L 415.6922 -790.0000 L 407.0319 -795.0000 L 415.6922 -800.0000 L 415.6922 -810.0000 L 424.3524 -805.0000 L 433.0127 -810.0000 L 433.0127 -800.0000 L 441.6730 -795.0000 L 450.3332 -800.0000 L 450.3332 -810.0000 L 458.9935 -805.0000 L 467.6537 -810.0000 L 467.6537 -800.0000 L 476.3140 -795.0000 L 467.6537 -790.0000 L 467.6537 -780.0000 L 476.3140 -775.0000 L 484.9742 -780.0000 L 484.9742 -770.0000 L 493.6345 -765.0000 L 484.9742 -760.0000 L 484.9742 -750.0000 L 476.3140 -755.0000 L 467.6537 -750.0000 L 467.6537 -740.0000 L 476.3140 -735.0000 L 467.6537 -730.0000 L 467.6537 -720.0000 L 476.3140 -715.0000 L 484.9742 -720.0000 L 484.9742 -710.0000 L 493.6345 -705.0000 L 502.2947 -710.0000 L 502.2947 -720.0000 L 510.9550 -715.0000 L 519.6152 -720.0000 L 519.6152 -710.0000 L 528.2755 -705.0000 L 519.6152 -700.0000 L 519.6152 -690.0000 L 528.2755 -685.0000 L 536.9358 -690.0000 L 536.9358 -680.0000 L 545.5960 -675.0000 L 536.9358 -670.0000 L 536.9358 -660.0000 L 528.2755 -665.0000 L 519.6152 -660.0000 L 519.6152 -650.0000 L 528.2755 -645.0000 L 519.6152 -640.0000 L 519.6152 -630.0000 L 510.9550 -635.0000 L 502.2947 -630.0000 L 502.2947 -640.0000 L 493.6345 -645.0000 L 484.9742 -640.0000 L 484.9742 -630.0000 L 476.3140 -635.0000 L 467.6537 -630.0000 L 467.6537 -620.0000 L 476.3140 -615.0000 L 467.6537 -610.0000 L 467.6537 -600.0000 L 476.3140 -595.0000 L 484.9742 -600.0000 L 484.9742 -590.0000 L 493.6345 -585.0000 L 484.9742 -580.0000 L 484.9742 -570.0000 L 476.3140 -575.0000 L 467.6537 -570.0000 L 467.6537 -560.0000 L 476.3140 -555.0000 L 467.6537 -550.0000 L 467.6537 -540.0000 L 476.3140 -535.0000 L 484.9742 -540.0000 L 484.9742 -530.0000 L 493.6345 -525.0000 L 502.2947 -530.0000 L 502.2947 -540.0000 L 510.9550 -535.0000 L 519.6152 -540.0000 L 519.6152 -530.0000 L 528.2755 -525.0000 L 519.6152 -520.0000 L 519.6152 -510.0000 L 528.2755 -505.0000 L 536.9358 -510.0000 L 536.9358 -500.0000 L 545.5960 -495.0000 L 554.2563 -500.0000 L 554.2563 -510.0000 L 562.9165 -505.0000 L 571.5768 -510.0000 L 571.5768 -520.0000 L 562.9165 -525.0000 L 571.5768 -530.0000 L 571.5768 -540.0000 L 580.2370 -535.0000 L 588.8973 -540.0000 L 588.8973 -530.0000 L 597.5575 -525.0000 L 606.2178 -530.0000 L 606.2178 -540.0000 L 614.8780 -535.0000 L 623.5383 -540.0000 L 623.5383 -530.0000 L 632.1985 -525.0000 L 623.5383 -520.0000 L 623.5383 -510.0000 L 632.1985 -505.0000 L 640.8588 -510.0000 L 640.8588 -500.0000 L 649.5191 -495.0000 L 640.8588 -490.0000 L 640.8588 -480.0000 L 632.1985 -485.0000 L 623.5383 -480.0000 L 623.5383 -470.0000 L 632.1985 -465.0000 L 623.5383 -460.0000 L 623.5383 -450.0000 L 632.1985 -445.0000 L 640.8588 -450.0000 L 640.8588 -440.0000 L 649.5191 -435.0000 L 658.1793 -440.0000 L 658.1793 -450.0000 L 666.8396 -445.0000 L 675.4998 -450.0000 L 675.4998 -440.0000 L 684.1601 -435.0000 L 675.4998 -430.0000 L 675.4998 -420.0000 L 684.1601 -415.0000 L 692.8203 -420.0000 L 692.8203 -410.0000 L 701.4806 -405.0000 L 692.8203 -400.0000 L 692.8203 -390.0000 L 684.1601 -395.0000 L 675.4998 -390.0000 L 675.4998 -380.0000 L 684.1601 -375.0000 L 675.4998 -370.0000 L 675.4998 -360.0000 L 666.8396 -365.0000 L 658.1793 -360.0000 L 658.1793 -370.0000 L 649.5191 -375.0000 L 640.8588 -370.0000 L 640.8588 -360.0000 L 632.1985 -365.0000 L 623.5383 -360.0000 L 623.5383 -350.0000 L 632.1985 -345.0000 L 623.5383 -340.0000 L 623.5383 -330.0000 L 632.1985 -325.0000 L 640.8588 -330.0000 L 640.8588 -320.0000 L 649.5191 -315.0000 L 640.8588 -310.0000 L 640.8588 -300.0000 L 632.1985 -305.0000 L 623.5383 -300.0000 L 623.5383 -290.0000 L 632.1985 -285.0000 L 623.5383 -280.0000 L 623.5383 -270.0000 L 614.8780 -275.0000 L 606.2178 -270.0000 L 606.2178 -280.0000 L 597.5575 -285.0000 L 588.8973 -280.0000 L 588.8973 -270.0000 L 580.2370 -275.0000 L 571.5768 -270.0000 L 571.5768 -280.0000 L 562.9165 -285.0000 L 571.5768 -290.0000 L 571.5768 -300.0000 L 562.9165 -305.0000 L 554.2563 -300.0000 L 554.2563 -310.0000 L 545.5960 -315.0000 L 536.9358 -310.0000 L 536.9358 -300.0000 L 528.2755 -305.0000 L 519.6152 -300.0000 L 519.6152 -290.0000 L 528.2755 -285.0000 L 519.6152 -280.0000 L 519.6152 -270.0000 L 510.9550 -275.0000 L 502.2947 -270.0000 L 502.2947 -280.0000 L 493.6345 -285.0000 L 484.9742 -280.0000 L 484.9742 -270.0000 L 476.3140 -275.0000 L 467.6537 -270.0000 L 467.6537 -260.0000 L 476.3140 -255.0000 L 467.6537 -250.0000 L 467.6537 -240.0000 L 476.3140 -235.0000 L 484.9742 -240.0000 L 484.9742 -230.0000 L 493.6345 -225.0000 L 484.9742 -220.0000 L 484.9742 -210.0000 L 476.3140 -215.0000 L 467.6537 -210.0000 L 467.6537 -200.0000 L 476.3140 -195.0000 L 467.6537 -190.0000 L 467.6537 -180.0000 L 476.3140 -175.0000 L 484.9742 -180.0000 L 484.9742 -170.0000 L 493.6345 -165.0000 L 502.2947 -170.0000 L 502.2947 -180.0000 L 510.9550 -175.0000 L 519.6152 -180.0000 L 519.6152 -170.0000 L 528.2755 -165.0000 L 519.6152 -160.0000 L 519.6152 -150.0000 L 528.2755 -145.0000 L 536.9358 -150.0000 L 536.9358 -140.0000 L 545.5960 -135.0000 L 536.9358 -130.0000 L 536.9358 -120.0000 L 528.2755 -125.0000 L 519.6152 -120.0000 L 519.6152 -110.0000 L 528.2755 -105.0000 L 519.6152 -100.0000 L 519.6152 -90.0000 L 510.9550 -95.0000 L 502.2947 -90.0000 L 502.2947 -100.0000 L 493.6345 -105.0000 L 484.9742 -100.0000 L 484.9742 -90.0000 L 476.3140 -95.0000 L 467.6537 -90.0000 L 467.6537 -80.0000 L 476.3140 -75.0000 L 467.6537 -70.0000 L 467.6537 -60.0000 L 476.3140 -55.0000 L 484.9742 -60.0000 L 484.9742 -50.0000 L 493.6345 -45.0000 L 484.9742 -40.0000 L 484.9742 -30.0000 L 476.3140 -35.0000 L 467.6537 -30.0000 L 467.6537 -20.0000 L 476.3140 -15.0000 L 467.6537 -10.0000 L 467.6537 0.0000 L 458.9935 -5.0000 L 450.3332 0.0000 L 450.3332 -10.0000 L 441.6730 -15.0000 L 433.0127 -10.0000 L 433.0127 0.0000 L 424.3524 -5.0000 L 415.6922 0.0000 L 415.6922 -10.0000 L 407.0319 -15.0000 L 415.6922 -20.0000 L 415.6922 -30.0000 L 407.0319 -35.0000 L 398.3717 -30.0000 L 398.3717 -40.0000 L 389.7114 -45.0000 L 381.0512 -40.0000 L 381.0512 -30.0000 L 372.3909 -35.0000 L 363.7307 -30.0000 L 363.7307 -20.0000 L 372.3909 -15.0000 L 363.7307 -10.0000 L 363.7307 0.0000 L 355.0704 -5.0000 L 346.4102 0.0000 L 346.4102 -10.0000 L 337.7499 -15.0000 L 329.0897 -10.0000 L 329.0897 0.0000 L 320.4294 -5.0000 L 311.7691 0.0000 L 311.7691 -10.0000 L 303.1089 -15.0000 L 311.7691 -20.0000 L 311.7691 -30.0000 L 303.1089 -35.0000 L 294.4486 -30.0000 L 294.4486 -40.0000 L 285.7884 -45.0000 L 294.4486 -50.0000 L 294.4486 -60.0000 L 303.1089 -55.0000 L 311.7691 -60.0000 L 311.7691 -70.0000 L 303.1089 -75.0000 L 311.7691 -80.0000 L 311.7691 -90.0000 L 303.1089 -95.0000 L 294.4486 -90.0000 L 294.4486 -100.0000 L 285.7884 -105.0000 L 277.1281 -100.0000 L 277.1281 -90.0000 L 268.4679 -95.0000 L 259.8076 -90.0000 L 259.8076 -100.0000 L 251.1474 -105.0000 L 259.8076 -110.0000 L 259.8076 -120.0000 L 251.1474 -125.0000 L 242.4871 -120.0000 L 242.4871 -130.0000 L 233.8269 -135.0000 L 225.1666 -130.0000 L 225.1666 -120.0000 L 216.5064 -125.0000 L 207.8461 -120.0000 L 207.8461 -110.0000 L 216.5064 -105.0000 L 207.8461 -100.0000 L 207.8461 -90.0000 L 199.1858 -95.0000 L 190.5256 -90.0000 L 190.5256 -100.0000 L 181.8653 -105.0000 L 173.2051 -100.0000 L 173.2051 -90.0000 L 164.5448 -95.0000 L 155.8846 -90.0000 L 155.8846 -80.0000 L 164.5448 -75.0000 L 155.8846 -70.0000 L 155.8846 -60.0000 L 164.5448 -55.0000 L 173.2051 -60.0000 L 173.2051 -50.0000 L 181.8653 -45.0000 L 173.2051 -40.0000 L 173.2051 -30.0000 L 164.5448 -35.0000 L 155.8846 -30.0000 L 155.8846 -20.0000 L 164.5448 -15.0000 L 155.8846 -10.0000 L 155.8846 0.0000 L 147.2243 -5.0000 L 138.5641 0.0000 L 138.5641 -10.0000 L 129.9038 -15.0000 L 121.2436 -10.0000 L 121.2436 0.0000 L 112.5833 -5.0000 L 103.9230 0.0000 L 103.9230 -10.0000 L 95.2628 -15.0000 L 103.9230 -20.0000 L 103.9230 -30.0000 L 95.2628 -35.0000 L 86.6025 -30.0000 L 86.6025 -40.0000 L 77.9423 -45.0000 L 69.2820 -40.0000 L 69.2820 -30.0000 L 60.6218 -35.0000 L 51.9615 -30.0000 L 51.9615 -20.0000 L 60.6218 -15.0000 L 51.9615 -10.0000 L 51.9615 0.0000 L 43.3013 -5.0000 L 34.6410 0.0000 L 34.6410 -10.0000 L 25.9808 -15.0000 L 17.3205 -10.0000 L 17.3205 0.0000 L 8.6603 -5.0000 L -0.0000 0.0000 " stroke-width="1" stroke="black" fill="none"/></svg>
