<svg viewBox="-81.00000001785484 -891.0000000020809 972.0000000273667 972.0000000091139" xmlns="http://www.w3.org/2000/svg"><path d="M 0 0 L 0.0000 -10.0000 L 0.0000 -20.0000 L 10.0000 -20.0000 L 0.0000 -20.0000 L -0.0000 -30.0000 L -0.0000 -40.0000 L -0.0000 -50.0000 L 10.0000 -50.0000 L -0.0000 -50.0000 L -0.0000 -60.0000 L 10.0000 -60.0000 L 20.0000 -60.0000 L 20.0000 -50.0000 L 20.0000 -60.0000 L 30.0000 -60.0000 L 20.0000 -60.0000 L 10.0000 -60.0000 L 10.0000 -70.0000 L 10.0000 -60.0000 L -0.0000 -60.0000 L 0.0000 -70.0000 L 0.0000 -80.0000 L 10.0000 -80.0000 L 0.0000 -80.0000 L 0.0000 -90.0000 L 0.0000 -100.0000 L 0.0000 -110.0000 L 10.0000 -110.0000 L 0.0000 -110.0000 L 0.0000 -120.0000 L 0.0000 -130.0000 L 0.0000 -140.0000 L 10.0000 -140.0000 L 0.0000 -140.0000 L 0.0000 -150.0000 L 10.0000 -150.0000 L 20.0000 -150.0000 L 20.0000 -140.0000 L 20.0000 -150.0000 L 30.0000 -150.0000 L 20.0000 -150.0000 L 10.0000 -150.0000 L 10.0000 -160.0000 L 10.0000 -150.0000 L 0.0000 -150.0000 L 0.0000 -160.0000 L 0.0000 -170.0000 L 10.0000 -170.0000 L 0.0000 -170.0000 L 0.0000 -180.0000 L 10.0000 -180.0000 L 20.0000 -180.0000 L 20.0000 -170.0000 L 20.0000 -180.0000 L 30.0000 -180.0000 L 40.0000 -180.0000 L 50.0000 -180.0000 L 50.0000 -170.0000 L 50.0000 -180.0000 L 60.0000 -180.0000 L 60.0000 -170.0000 L 60.0000 -160.0000 L 50.0000 -160.0000 L 60.0000 -160.0000 L 60.0000 -150.0000 L 60.0000 -160.0000 L 60.0000 -170.0000 L 70.0000 -170.0000 L 60.0000 -170.0000 L 60.0000 -180.0000 L 70.0000 -180.0000 L 80.0000 -180.0000 L 80.0000 -170.0000 L 80.0000 -180.0000 L 90.0000 -180.0000 L 80.0000 -180.0000 L 70.0000 -180.0000 L 70.0000 -190.0000 L 70.0000 -180.0000 L 60.0000 -180.0000 L 50.0000 -180.0000 L 40.0000 -180.0000 L 40.0000 -190.0000 L 40.0000 -180.0000 L 30.0000 -180.0000 L 30.0000 -190.0000 L 30.0000 -200.0000 L 40.0000 -200.0000 L 30.0000 -200.0000 L 30.0000 -210.0000 L 30.0000 -200.0000 L 30.0000 -190.0000 L 20.0000 -190.0000 L 30.0000 -190.0000 L 30.0000 -180.0000 L 20.0000 -180.0000 L 10.0000 -180.0000 L 10.0000 -190.0000 L 10.0000 -180.0000 L 0.0000 -180.0000 L 0.0000 -190.0000 L -0.0000 -200.0000 L 10.0000 -200.0000 L -0.0000 -200.0000 L -0.0000 -210.0000 L -0.0000 -220.0000 L -0.0000 -230.0000 L 10.0000 -230.0000 L -0.0000 -230.0000 L -0.0000 -240.0000 L 10.0000 -240.0000 L 20.0000 -240.0000 L 20.0000 -230.0000 L 20.0000 -240.0000 L 30.0000 -240.0000 L 20.0000 -240.0000 L 10.0000 -240.0000 L 10.0000 -250.0000 L 10.0000 -240.0000 L -0.0000 -240.0000 L -0.0000 -250.0000 L -0.0000 -260.0000 L 10.0000 -260.0000 L -0.0000 -260.0000 L -0.0000 -270.0000 L -0.0000 -280.0000 L -0.0000 -290.0000 L 10.0000 -290.0000 L -0.0000 -290.0000 L -0.0000 -300.0000 L -0.0000 -310.0000 L -0.0000 -320.0000 L 10.0000 -320.0000 L -0.0000 -320.0000 L -0.0000 -330.0000 L 10.0000 -330.0000 L 20.0000 -330.0000 L 20.0000 -320.0000 L 20.0000 -330.0000 L 30.0000 -330.0000 L 20.0000 -330.0000 L 10.0000 -330.0000 L 10.0000 -340.0000 L 10.0000 -330.0000 L -0.0000 -330.0000 L -0.0000 -340.0000 L -0.0000 -350.0000 L 10.0000 -350.0000 L -0.0000 -350.0000 L -0.0000 -360.0000 L -0.0000 -370.0000 L -0.0000 -380.0000 L 10.0000 -380.0000 L -0.0000 -380.0000 L -0.0000 -390.0000 L -0.0000 -400.0000 L -0.0000 -410.0000 L 10.0000 -410.0000 L -0.0000 -410.0000 L -0.0000 -420.0000 L 10.0000 -420.0000 L 20.0000 -420.0000 L 20.0000 -410.0000 L 20.0000 -420.0000 L 30.0000 -420.0000 L 20.0000 -420.0000 L 10.0000 -420.0000 L 10.0000 -430.0000 L 10.0000 -420.0000 L -0.0000 -420.0000 L -0.0000 -430.0000 L -0.0000 -440.0000 L 10.0000 -440.0000 L -0.0000 -440.0000 L -0.0000 -450.0000 L 10.0000 -450.0000 L 20.0000 -450.0000 L 20.0000 -440.0000 L 20.0000 -450.0000 L 30.0000 -450.0000 L 40.0000 -450.0000 L 50.0000 -450.0000 L 50.0000 -440.0000 L 50.0000 -450.0000 L 60.0000 -450.0000 L 60.0000 -440.0000 L 60.0000 -430.0000 L 50.0000 -430.0000 L 60.0000 -430.0000 L 60.0000 -420.0000 L 60.0000 -430.0000 L 60.0000 -440.0000 L 70.0000 -440.0000 L 60.0000 -440.0000 L 60.0000 -450.0000 L 70.0000 -450.0000 L 80.0000 -450.0000 L 80.0000 -440.0000 L 80.0000 -450.0000 L 90.0000 -450.0000 L 80.0000 -450.0000 L 70.0000 -450.0000 L 70.0000 -460.0000 L 70.0000 -450.0000 L 60.0000 -450.0000 L 50.0000 -450.0000 L 40.0000 -450.0000 L 40.0000 -460.0000 L 40.0000 -450.0000 L 30.0000 -450.0000 L 30.0000 -460.0000 L 30.0000 -470.0000 L 40.0000 -470.0000 L 30.0000 -470.0000 L 30.0000 -480.0000 L 30.0000 -470.0000 L 30.0000 -460.0000 L 20.0000 -460.0000 L 30.0000 -460.0000 L 30.0000 -450.0000 L 20.0000 -450.0000 L 10.0000 -450.0000 L 10.0000 -460.0000 L 10.0000 -450.0000 L -0.0000 -450.0000 L -0.0000 -460.0000 L -0.0000 -470.0000 L 10.0000 -470.0000 L -0.0000 -470.0000 L -0.0000 -480.0000 L -0.0000 -490.0000 L -0.0000 -500.0000 L 10.0000 -500.0000 L -0.0000 -500.0000 L -0.0000 -510.0000 L 10.0000 -510.0000 L 20.0000 -510.0000 L 20.0000 -500.0000 L 20.0000 -510.0000 L 30.0000 -510.0000 L 20.0000 -510.0000 L 10.0000 -510.0000 L 10.0000 -520.0000 L 10.0000 -510.0000 L -0.0000 -510.0000 L -0.0000 -520.0000 L -0.0000 -530.0000 L 10.0000 -530.0000 L -0.0000 -530.0000 L -0.0000 -540.0000 L 10.0000 -540.0000 L 20.0000 -540.0000 L 20.0000 -530.0000 L 20.0000 -540.0000 L 30.0000 -540.0000 L 40.0000 -540.0000 L 50.0000 -540.0000 L 50.0000 -530.0000 L 50.0000 -540.0000 L 60.0000 -540.0000 L 60.0000 -530.0000 L 60.0000 -520.0000 L 50.0000 -520.0000 L 60.0000 -520.0000 L 60.0000 -510.0000 L 60.0000 -520.0000 L 60.0000 -530.0000 L 70.0000 -530.0000 L 60.0000 -530.0000 L 60.0000 -540.0000 L 70.0000 -540.0000 L 80.0000 -540.0000 L 80.0000 -530.0000 L 80.0000 -540.0000 L 90.0000 -540.0000 L 100.0000 -540.0000 L 110.0000 -540.0000 L 110.0000 -530.0000 L 110.0000 -540.0000 L 120.0000 -540.0000 L 130.0000 -540.0000 L 140.0000 -540.0000 L 140.0000 -530.0000 L 140.0000 -540.0000 L 150.0000 -540.0000 L 150.0000 -530.0000 L 150.0000 -520.0000 L 140.0000 -520.0000 L 150.0000 -520.0000 L 150.0000 -510.0000 L 150.0000 -520.0000 L 150.0000 -530.0000 L 160.0000 -530.0000 L 150.0000 -530.0000 L 150.0000 -540.0000 L 160.0000 -540.0000 L 170.0000 -540.0000 L 170.0000 -530.0000 L 170.0000 -540.0000 L 180.0000 -540.0000 L 180.0000 -530.0000 L 180.0000 -520.0000 L 170.0000 -520.0000 L 180.0000 -520.0000 L 180.0000 -510.0000 L 180.0000 -500.0000 L 180.0000 -490.0000 L 170.0000 -490.0000 L 180.0000 -490.0000 L 180.0000 -480.0000 L 170.0000 -480.0000 L 160.0000 -480.0000 L 160.0000 -490.0000 L 160.0000 -480.0000 L 150.0000 -480.0000 L 160.0000 -480.0000 L 170.0000 -480.0000 L 170.0000 -470.0000 L 170.0000 -480.0000 L 180.0000 -480.0000 L 180.0000 -470.0000 L 180.0000 -460.0000 L 170.0000 -460.0000 L 180.0000 -460.0000 L 180.0000 -450.0000 L 180.0000 -460.0000 L 180.0000 -470.0000 L 190.0000 -470.0000 L 180.0000 -470.0000 L 180.0000 -480.0000 L 180.0000 -490.0000 L 180.0000 -500.0000 L 190.0000 -500.0000 L 180.0000 -500.0000 L 180.0000 -510.0000 L 190.0000 -510.0000 L 200.0000 -510.0000 L 200.0000 -500.0000 L 200.0000 -510.0000 L 210.0000 -510.0000 L 200.0000 -510.0000 L 190.0000 -510.0000 L 190.0000 -520.0000 L 190.0000 -510.0000 L 180.0000 -510.0000 L 180.0000 -520.0000 L 180.0000 -530.0000 L 190.0000 -530.0000 L 180.0000 -530.0000 L 180.0000 -540.0000 L 190.0000 -540.0000 L 200.0000 -540.0000 L 200.0000 -530.0000 L 200.0000 -540.0000 L 210.0000 -540.0000 L 220.0000 -540.0000 L 230.0000 -540.0000 L 230.0000 -530.0000 L 230.0000 -540.0000 L 240.0000 -540.0000 L 240.0000 -530.0000 L 240.0000 -520.0000 L 230.0000 -520.0000 L 240.0000 -520.0000 L 240.0000 -510.0000 L 240.0000 -520.0000 L 240.0000 -530.0000 L 250.0000 -530.0000 L 240.0000 -530.0000 L 240.0000 -540.0000 L 250.0000 -540.0000 L 260.0000 -540.0000 L 260.0000 -530.0000 L 260.0000 -540.0000 L 270.0000 -540.0000 L 260.0000 -540.0000 L 250.0000 -540.0000 L 250.0000 -550.0000 L 250.0000 -540.0000 L 240.0000 -540.0000 L 230.0000 -540.0000 L 220.0000 -540.0000 L 220.0000 -550.0000 L 220.0000 -540.0000 L 210.0000 -540.0000 L 210.0000 -550.0000 L 210.0000 -560.0000 L 220.0000 -560.0000 L 210.0000 -560.0000 L 210.0000 -570.0000 L 210.0000 -560.0000 L 210.0000 -550.0000 L 200.0000 -550.0000 L 210.0000 -550.0000 L 210.0000 -540.0000 L 200.0000 -540.0000 L 190.0000 -540.0000 L 190.0000 -550.0000 L 190.0000 -540.0000 L 180.0000 -540.0000 L 170.0000 -540.0000 L 160.0000 -540.0000 L 160.0000 -550.0000 L 160.0000 -540.0000 L 150.0000 -540.0000 L 140.0000 -540.0000 L 130.0000 -540.0000 L 130.0000 -550.0000 L 130.0000 -540.0000 L 120.0000 -540.0000 L 120.0000 -550.0000 L 120.0000 -560.0000 L 130.0000 -560.0000 L 120.0000 -560.0000 L 120.0000 -570.0000 L 120.0000 -560.0000 L 120.0000 -550.0000 L 110.0000 -550.0000 L 120.0000 -550.0000 L 120.0000 -540.0000 L 110.0000 -540.0000 L 100.0000 -540.0000 L 100.0000 -550.0000 L 100.0000 -540.0000 L 90.0000 -540.0000 L 90.0000 -550.0000 L 90.0000 -560.0000 L 100.0000 -560.0000 L 90.0000 -560.0000 L 90.0000 -570.0000 L 90.0000 -580.0000 L 90.0000 -590.0000 L 100.0000 -590.0000 L 90.0000 -590.0000 L 90.0000 -600.0000 L 100.0000 -600.0000 L 110.0000 -600.0000 L 110.0000 -590.0000 L 110.0000 -600.0000 L 120.0000 -600.0000 L 110.0000 -600.0000 L 100.0000 -600.0000 L 100.0000 -610.0000 L 100.0000 -600.0000 L 90.0000 -600.0000 L 90.0000 -610.0000 L 90.0000 -620.0000 L 100.0000 -620.0000 L 90.0000 -620.0000 L 90.0000 -630.0000 L 90.0000 -620.0000 L 90.0000 -610.0000 L 80.0000 -610.0000 L 90.0000 -610.0000 L 90.0000 -600.0000 L 90.0000 -590.0000 L 90.0000 -580.0000 L 80.0000 -580.0000 L 90.0000 -580.0000 L 90.0000 -570.0000 L 80.0000 -570.0000 L 70.0000 -570.0000 L 70.0000 -580.0000 L 70.0000 -570.0000 L 60.0000 -570.0000 L 70.0000 -570.0000 L 80.0000 -570.0000 L 80.0000 -560.0000 L 80.0000 -570.0000 L 90.0000 -570.0000 L 90.0000 -560.0000 L 90.0000 -550.0000 L 80.0000 -550.0000 L 90.0000 -550.0000 L 90.0000 -540.0000 L 80.0000 -540.0000 L 70.0000 -540.0000 L 70.0000 -550.0000 L 70.0000 -540.0000 L 60.0000 -540.0000 L 50.0000 -540.0000 L 40.0000 -540.0000 L 40.0000 -550.0000 L 40.0000 -540.0000 L 30.0000 -540.0000 L 30.0000 -550.0000 L 30.0000 -560.0000 L 40.0000 -560.0000 L 30.0000 -560.0000 L 30.0000 -570.0000 L 30.0000 -560.0000 L 30.0000 -550.0000 L 20.0000 -550.0000 L 30.0000 -550.0000 L 30.0000 -540.0000 L 20.0000 -540.0000 L 10.0000 -540.0000 L 10.0000 -550.0000 L 10.0000 -540.0000 L -0.0000 -540.0000 L -0.0000 -550.0000 L -0.0000 -560.0000 L 10.0000 -560.0000 L -0.0000 -560.0000 L -0.0000 -570.0000 L -0.0000 -580.0000 L 0.0000 -590.0000 L 10.0000 -590.0000 L 0.0000 -590.0000 L 0.0000 -600.0000 L 10.0000 -600.0000 L 20.0000 -600.0000 L 20.0000 -590.0000 L 20.0000 -600.0000 L 30.0000 -600.0000 L 20.0000 -600.0000 L 10.0000 -600.0000 L 10.0000 -610.0000 L 10.0000 -600.0000 L 0.0000 -600.0000 L 0.0000 -610.0000 L 0.0000 -620.0000 L 10.0000 -620.0000 L 0.0000 -620.0000 L 0.0000 -630.0000 L 0.0000 -640.0000 L 0.0000 -650.0000 L 10.0000 -650.0000 L 0.0000 -650.0000 L 0.0000 -660.0000 L 0.0000 -670.0000 L 0.0000 -680.0000 L 10.0000 -680.0000 L 0.0000 -680.0000 L 0.0000 -690.0000 L 10.0000 -690.0000 L 20.0000 -690.0000 L 20.0000 -680.0000 L 20.0000 -690.0000 L 30.0000 -690.0000 L 20.0000 -690.0000 L 10.0000 -690.0000 L 10.0000 -700.0000 L 10.0000 -690.0000 L 0.0000 -690.0000 L 0.0000 -700.0000 L 0.0000 -710.0000 L 10.0000 -710.0000 L 0.0000 -710.0000 L 0.0000 -720.0000 L 10.0000 -720.0000 L 20.0000 -720.0000 L 20.0000 -710.0000 L 20.0000 -720.0000 L 30.0000 -720.0000 L 40.0000 -720.0000 L 50.0000 -720.0000 L 50.0000 -710.0000 L 50.0000 -720.0000 L 60.0000 -720.0000 L 60.0000 -710.0000 L 60.0000 -700.0000 L 50.0000 -700.0000 L 60.0000 -700.0000 L 60.0000 -690.0000 L 60.0000 -700.0000 L 60.0000 -710.0000 L 70.0000 -710.0000 L 60.0000 -710.0000 L 60.0000 -720.0000 L 70.0000 -720.0000 L 80.0000 -720.0000 L 80.0000 -710.0000 L 80.0000 -720.0000 L 90.0000 -720.0000 L 80.0000 -720.0000 L 70.0000 -720.0000 L 70.0000 -730.0000 L 70.0000 -720.0000 L 60.0000 -720.0000 L 50.0000 -720.0000 L 40.0000 -720.0000 L 40.0000 -730.0000 L 40.0000 -720.0000 L 30.0000 -720.0000 L 30.0000 -730.0000 L 30.0000 -740.0000 L 40.0000 -740.0000 L 30.0000 -740.0000 L 30.0000 -750.0000 L 30.0000 -740.0000 L 30.0000 -730.0000 L 20.0000 -730.0000 L 30.0000 -730.0000 L 30.0000 -720.0000 L 20.0000 -720.0000 L 10.0000 -720.0000 L 10.0000 -730.0000 L 10.0000 -720.0000 L 0.0000 -720.0000 L 0.0000 -730.0000 L 0.0000 -740.0000 L 10.0000 -740.0000 L 0.0000 -740.0000 L 0.0000 -750.0000 L 0.0000 -760.0000 L 0.0000 -770.0000 L 10.0000 -770.0000 L 0.0000 -770.0000 L 0.0000 -780.0000 L 10.0000 -780.0000 L 20.0000 -780.0000 L 20.0000 -770.0000 L 20.0000 -780.0000 L 30.0000 -780.0000 L 20.0000 -780.0000 L 10.0000 -780.0000 L 10.0000 -790.0000 L 10.0000 -780.0000 L 0.0000 -780.0000 L 0.0000 -790.0000 L 0.0000 -800.0000 L 10.0000 -800.0000 L 0.0000 -800.0000 L 0.0000 -810.0000 L 10.0000 -810.0000 L 20.0000 -810.0000 L 20.0000 -800.0000 L 20.0000 -810.0000 L 30.0000 -810.0000 L 40.0000 -810.0000 L 50.0000 -810.0000 L 50.0000 -800.0000 L 50.0000 -810.0000 L 60.0000 -810.0000 L 60.0000 -800.0000 L 60.0000 -790.0000 L 50.0000 -790.0000 L 60.0000 -790.0000 L 60.0000 -780.0000 L 60.0000 -790.0000 L 60.0000 -800.0000 L 70.0000 -800.0000 L 60.0000 -800.0000 L 60.0000 -810.0000 L 70.0000 -810.0000 L 80.0000 -810.0000 L 80.0000 -800.0000 L 80.0000 -810.0000 L 90.0000 -810.0000 L 100.0000 -810.0000 L 110.0000 -810.0000 L 110.0000 -800.0000 L 110.0000 -810.0000 L 120.0000 -810.0000 L 130.0000 -810.0000 L 140.0000 -810.0000 L 140.0000 -800.0000 L 140.0000 -810.0000 L 150.0000 -810.0000 L 150.0000 -800.0000 L 150.0000 -790.0000 L 140.0000 -790.0000 L 150.0000 -790.0000 L 150.0000 -780.0000 L 150.0000 -790.0000 L 150.0000 -800.0000 L 160.0000 -800.0000 L 150.0000 -800.0000 L 150.0000 -810.0000 L 160.0000 -810.0000 L 170.0000 -810.0000 L 170.0000 -800.0000 L 170.0000 -810.0000 L 180.0000 -810.0000 L 180.0000 -800.0000 L 180.0000 -790.0000 L 170.0000 -790.0000 L 180.0000 -790.0000 L 180.0000 -780.0000 L 180.0000 -770.0000 L 180.0000 -760.0000 L 170.0000 -760.0000 L 180.0000 -760.0000 L 180.0000 -750.0000 L 170.0000 -750.0000 L 160.0000 -750.0000 L 160.0000 -760.0000 L 160.0000 -750.0000 L 150.0000 -750.0000 L 160.0000 -750.0000 L 170.0000 -750.0000 L 170.0000 -740.0000 L 170.0000 -750.0000 L 180.0000 -750.0000 L 180.0000 -740.0000 L 180.0000 -730.0000 L 170.0000 -730.0000 L 180.0000 -730.0000 L 180.0000 -720.0000 L 180.0000 -730.0000 L 180.0000 -740.0000 L 190.0000 -740.0000 L 180.0000 -740.0000 L 180.0000 -750.0000 L 180.0000 -760.0000 L 180.0000 -770.0000 L 190.0000 -770.0000 L 180.0000 -770.0000 L 180.0000 -780.0000 L 190.0000 -780.0000 L 200.0000 -780.0000 L 200.0000 -770.0000 L 200.0000 -780.0000 L 210.0000 -780.0000 L 200.0000 -780.0000 L 190.0000 -780.0000 L 190.0000 -790.0000 L 190.0000 -780.0000 L 180.0000 -780.0000 L 180.0000 -790.0000 L 180.0000 -800.0000 L 190.0000 -800.0000 L 180.0000 -800.0000 L 180.0000 -810.0000 L 190.0000 -810.0000 L 200.0000 -810.0000 L 200.0000 -800.0000 L 200.0000 -810.0000 L 210.0000 -810.0000 L 220.0000 -810.0000 L 230.0000 -810.0000 L 230.0000 -800.0000 L 230.0000 -810.0000 L 240.0000 -810.0000 L 240.0000 -800.0000 L 240.0000 -790.0000 L 230.0000 -790.0000 L 240.0000 -790.0000 L 240.0000 -780.0000 L 240.0000 -790.0000 L 240.0000 -800.0000 L 250.0000 -800.0000 L 240.0000 -800.0000 L 240.0000 -810.0000 L 250.0000 -810.0000 L 260.0000 -810.0000 L 260.0000 -800.0000 L 260.0000 -810.0000 L 270.0000 -810.0000 L 280.0000 -810.0000 L 290.0000 -810.0000 L 290.0000 -800.0000 L 290.0000 -810.0000 L 300.0000 -810.0000 L 310.0000 -810.0000 L 320.0000 -810.0000 L 320.0000 -800.0000 L 320.0000 -810.0000 L 330.0000 -810.0000 L 330.0000 -800.0000 L 330.0000 -790.0000 L 320.0000 -790.0000 L 330.0000 -790.0000 L 330.0000 -780.0000 L 330.0000 -790.0000 L 330.0000 -800.0000 L 340.0000 -800.0000 L 330.0000 -800.0000 L 330.0000 -810.0000 L 340.0000 -810.0000 L 350.0000 -810.0000 L 350.0000 -800.0000 L 350.0000 -810.0000 L 360.0000 -810.0000 L 370.0000 -810.0000 L 380.0000 -810.0000 L 380.0000 -800.0000 L 380.0000 -810.0000 L 390.0000 -810.0000 L 400.0000 -810.0000 L 410.0000 -810.0000 L 410.0000 -800.0000 L 410.0000 -810.0000 L 420.0000 -810.0000 L 420.0000 -800.0000 L 420.0000 -790.0000 L 410.0000 -790.0000 L 420.0000 -790.0000 L 420.0000 -780.0000 L 420.0000 -790.0000 L 420.0000 -800.0000 L 430.0000 -800.0000 L 420.0000 -800.0000 L 420.0000 -810.0000 L 430.0000 -810.0000 L 440.0000 -810.0000 L 440.0000 -800.0000 L 440.0000 -810.0000 L 450.0000 -810.0000 L 450.0000 -800.0000 L 450.0000 -790.0000 L 440.0000 -790.0000 L 450.0000 -790.0000 L 450.0000 -780.0000 L 450.0000 -770.0000 L 450.0000 -760.0000 L 440.0000 -760.0000 L 450.0000 -760.0000 L 450.0000 -750.0000 L 440.0000 -750.0000 L 430.0000 -750.0000 L 430.0000 -760.0000 L 430.0000 -750.0000 L 420.0000 -750.0000 L 430.0000 -750.0000 L 440.0000 -750.0000 L 440.0000 -740.0000 L 440.0000 -750.0000 L 450.0000 -750.0000 L 450.0000 -740.0000 L 450.0000 -730.0000 L 440.0000 -730.0000 L 450.0000 -730.0000 L 450.0000 -720.0000 L 450.0000 -730.0000 L 450.0000 -740.0000 L 460.0000 -740.0000 L 450.0000 -740.0000 L 450.0000 -750.0000 L 450.0000 -760.0000 L 450.0000 -770.0000 L 460.0000 -770.0000 L 450.0000 -770.0000 L 450.0000 -780.0000 L 460.0000 -780.0000 L 470.0000 -780.0000 L 470.0000 -770.0000 L 470.0000 -780.0000 L 480.0000 -780.0000 L 470.0000 -780.0000 L 460.0000 -780.0000 L 460.0000 -790.0000 L 460.0000 -780.0000 L 450.0000 -780.0000 L 450.0000 -790.0000 L 450.0000 -800.0000 L 460.0000 -800.0000 L 450.0000 -800.0000 L 450.0000 -810.0000 L 460.0000 -810.0000 L 470.0000 -810.0000 L 470.0000 -800.0000 L 470.0000 -810.0000 L 480.0000 -810.0000 L 490.0000 -810.0000 L 500.0000 -810.0000 L 500.0000 -800.0000 L 500.0000 -810.0000 L 510.0000 -810.0000 L 510.0000 -800.0000 L 510.0000 -790.0000 L 500.0000 -790.0000 L 510.0000 -790.0000 L 510.0000 -780.0000 L 510.0000 -790.0000 L 510.0000 -800.0000 L 520.0000 -800.0000 L 510.0000 -800.0000 L 510.0000 -810.0000 L 520.0000 -810.0000 L 530.0000 -810.0000 L 530.0000 -800.0000 L 530.0000 -810.0000 L 540.0000 -810.0000 L 540.0000 -800.0000 L 540.0000 -790.0000 L 530.0000 -790.0000 L 540.0000 -790.0000 L 540.0000 -780.0000 L 540.0000 -770.0000 L 540.0000 -760.0000 L 530.0000 -760.0000 L 540.0000 -760.0000 L 540.0000 -750.0000 L 530.0000 -750.0000 L 520.0000 -750.0000 L 520.0000 -760.0000 L 520.0000 -750.0000 L 510.0000 -750.0000 L 520.0000 -750.0000 L 530.0000 -750.0000 L 530.0000 -740.0000 L 530.0000 -750.0000 L 540.0000 -750.0000 L 540.0000 -740.0000 L 540.0000 -730.0000 L 530.0000 -730.0000 L 540.0000 -730.0000 L 540.0000 -720.0000 L 540.0000 -710.0000 L 540.0000 -700.0000 L 530.0000 -700.0000 L 540.0000 -700.0000 L 540.0000 -690.0000 L 540.0000 -680.0000 L 540.0000 -670.0000 L 530.0000 -670.0000 L 540.0000 -670.0000 L 540.0000 -660.0000 L 530.0000 -660.0000 L 520.0000 -660.0000 L 520.0000 -670.0000 L 520.0000 -660.0000 L 510.0000 -660.0000 L 520.0000 -660.0000 L 530.0000 -660.0000 L 530.0000 -650.0000 L 530.0000 -660.0000 L 540.0000 -660.0000 L 540.0000 -650.0000 L 540.0000 -640.0000 L 530.0000 -640.0000 L 540.0000 -640.0000 L 540.0000 -630.0000 L 530.0000 -630.0000 L 520.0000 -630.0000 L 520.0000 -640.0000 L 520.0000 -630.0000 L 510.0000 -630.0000 L 500.0000 -630.0000 L 490.0000 -630.0000 L 490.0000 -640.0000 L 490.0000 -630.0000 L 480.0000 -630.0000 L 480.0000 -640.0000 L 480.0000 -650.0000 L 490.0000 -650.0000 L 480.0000 -650.0000 L 480.0000 -660.0000 L 480.0000 -650.0000 L 480.0000 -640.0000 L 470.0000 -640.0000 L 480.0000 -640.0000 L 480.0000 -630.0000 L 470.0000 -630.0000 L 460.0000 -630.0000 L 460.0000 -640.0000 L 460.0000 -630.0000 L 450.0000 -630.0000 L 460.0000 -630.0000 L 470.0000 -630.0000 L 470.0000 -620.0000 L 470.0000 -630.0000 L 480.0000 -630.0000 L 490.0000 -630.0000 L 500.0000 -630.0000 L 500.0000 -620.0000 L 500.0000 -630.0000 L 510.0000 -630.0000 L 510.0000 -620.0000 L 510.0000 -610.0000 L 500.0000 -610.0000 L 510.0000 -610.0000 L 510.0000 -600.0000 L 510.0000 -610.0000 L 510.0000 -620.0000 L 520.0000 -620.0000 L 510.0000 -620.0000 L 510.0000 -630.0000 L 520.0000 -630.0000 L 530.0000 -630.0000 L 530.0000 -620.0000 L 530.0000 -630.0000 L 540.0000 -630.0000 L 540.0000 -620.0000 L 540.0000 -610.0000 L 530.0000 -610.0000 L 540.0000 -610.0000 L 540.0000 -600.0000 L 540.0000 -590.0000 L 540.0000 -580.0000 L 530.0000 -580.0000 L 540.0000 -580.0000 L 540.0000 -570.0000 L 530.0000 -570.0000 L 520.0000 -570.0000 L 520.0000 -580.0000 L 520.0000 -570.0000 L 510.0000 -570.0000 L 520.0000 -570.0000 L 530.0000 -570.0000 L 530.0000 -560.0000 L 530.0000 -570.0000 L 540.0000 -570.0000 L 540.0000 -560.0000 L 540.0000 -550.0000 L 530.0000 -550.0000 L 540.0000 -550.0000 L 540.0000 -540.0000 L 540.0000 -550.0000 L 540.0000 -560.0000 L 550.0000 -560.0000 L 540.0000 -560.0000 L 540.0000 -570.0000 L 540.0000 -580.0000 L 540.0000 -590.0000 L 550.0000 -590.0000 L 540.0000 -590.0000 L 540.0000 -600.0000 L 550.0000 -600.0000 L 560.0000 -600.0000 L 560.0000 -590.0000 L 560.0000 -600.0000 L 570.0000 -600.0000 L 560.0000 -600.0000 L 550.0000 -600.0000 L 550.0000 -610.0000 L 550.0000 -600.0000 L 540.0000 -600.0000 L 540.0000 -610.0000 L 540.0000 -620.0000 L 550.0000 -620.0000 L 540.0000 -620.0000 L 540.0000 -630.0000 L 540.0000 -640.0000 L 540.0000 -650.0000 L 550.0000 -650.0000 L 540.0000 -650.0000 L 540.0000 -660.0000 L 540.0000 -670.0000 L 540.0000 -680.0000 L 550.0000 -680.0000 L 540.0000 -680.0000 L 540.0000 -690.0000 L 550.0000 -690.0000 L 560.0000 -690.0000 L 560.0000 -680.0000 L 560.0000 -690.0000 L 570.0000 -690.0000 L 560.0000 -690.0000 L 550.0000 -690.0000 L 550.0000 -700.0000 L 550.0000 -690.0000 L 540.0000 -690.0000 L 540.0000 -700.0000 L 540.0000 -710.0000 L 550.0000 -710.0000 L 540.0000 -710.0000 L 540.0000 -720.0000 L 550.0000 -720.0000 L 560.0000 -720.0000 L 560.0000 -710.0000 L 560.0000 -720.0000 L 570.0000 -720.0000 L 580.0000 -720.0000 L 590.0000 -720.0000 L 590.0000 -710.0000 L 590.0000 -720.0000 L 600.0000 -720.0000 L 600.0000 -710.0000 L 600.0000 -700.0000 L 590.0000 -700.0000 L 600.0000 -700.0000 L 600.0000 -690.0000 L 600.0000 -700.0000 L 600.0000 -710.0000 L 610.0000 -710.0000 L 600.0000 -710.0000 L 600.0000 -720.0000 L 610.0000 -720.0000 L 620.0000 -720.0000 L 620.0000 -710.0000 L 620.0000 -720.0000 L 630.0000 -720.0000 L 620.0000 -720.0000 L 610.0000 -720.0000 L 610.0000 -730.0000 L 610.0000 -720.0000 L 600.0000 -720.0000 L 590.0000 -720.0000 L 580.0000 -720.0000 L 580.0000 -730.0000 L 580.0000 -720.0000 L 570.0000 -720.0000 L 570.0000 -730.0000 L 570.0000 -740.0000 L 580.0000 -740.0000 L 570.0000 -740.0000 L 570.0000 -750.0000 L 570.0000 -740.0000 L 570.0000 -730.0000 L 560.0000 -730.0000 L 570.0000 -730.0000 L 570.0000 -720.0000 L 560.0000 -720.0000 L 550.0000 -720.0000 L 550.0000 -730.0000 L 550.0000 -720.0000 L 540.0000 -720.0000 L 540.0000 -730.0000 L 540.0000 -740.0000 L 550.0000 -740.0000 L 540.0000 -740.0000 L 540.0000 -750.0000 L 540.0000 -760.0000 L 540.0000 -770.0000 L 550.0000 -770.0000 L 540.0000 -770.0000 L 540.0000 -780.0000 L 550.0000 -780.0000 L 560.0000 -780.0000 L 560.0000 -770.0000 L 560.0000 -780.0000 L 570.0000 -780.0000 L 560.0000 -780.0000 L 550.0000 -780.0000 L 550.0000 -790.0000 L 550.0000 -780.0000 L 540.0000 -780.0000 L 540.0000 -790.0000 L 540.0000 -800.0000 L 550.0000 -800.0000 L 540.0000 -800.0000 L 540.0000 -810.0000 L 550.0000 -810.0000 L 560.0000 -810.0000 L 560.0000 -800.0000 L 560.0000 -810.0000 L 570.0000 -810.0000 L 580.0000 -810.0000 L 590.0000 -810.0000 L 590.0000 -800.0000 L 590.0000 -810.0000 L 600.0000 -810.0000 L 600.0000 -800.0000 L 600.0000 -790.0000 L 590.0000 -790.0000 L 600.0000 -790.0000 L 600.0000 -780.0000 L 600.0000 -790.0000 L 600.0000 -800.0000 L 610.0000 -800.0000 L 600.0000 -800.0000 L 600.0000 -810.0000 L 610.0000 -810.0000 L 620.0000 -810.0000 L 620.0000 -800.0000 L 620.0000 -810.0000 L 630.0000 -810.0000 L 640.0000 -810.0000 L 650.0000 -810.0000 L 650.0000 -800.0000 L 650.0000 -810.0000 L 660.0000 -810.0000 L 670.0000 -810.0000 L 680.0000 -810.0000 L 680.0000 -800.0000 L 680.0000 -810.0000 L 690.0000 -810.0000 L 690.0000 -800.0000 L 690.0000 -790.0000 L 680.0000 -790.0000 L 690.0000 -790.0000 L 690.0000 -780.0000 L 690.0000 -790.0000 L 690.0000 -800.0000 L 700.0000 -800.0000 L 690.0000 -800.0000 L 690.0000 -810.0000 L 700.0000 -810.0000 L 710.0000 -810.0000 L 710.0000 -800.0000 L 710.0000 -810.0000 L 720.0000 -810.0000 L 720.0000 -800.0000 L 720.0000 -790.0000 L 710.0000 -790.0000 L 720.0000 -790.0000 L 720.0000 -780.0000 L 720.0000 -770.0000 L 720.0000 -760.0000 L 710.0000 -760.0000 L 720.0000 -760.0000 L 720.0000 -750.0000 L 710.0000 -750.0000 L 700.0000 -750.0000 L 700.0000 -760.0000 L 700.0000 -750.0000 L 690.0000 -750.0000 L 700.0000 -750.0000 L 710.0000 -750.0000 L 710.0000 -740.0000 L 710.0000 -750.0000 L 720.0000 -750.0000 L 720.0000 -740.0000 L 720.0000 -730.0000 L 710.0000 -730.0000 L 720.0000 -730.0000 L 720.0000 -720.0000 L 720.0000 -730.0000 L 720.0000 -740.0000 L 730.0000 -740.0000 L 720.0000 -740.0000 L 720.0000 -750.0000 L 720.0000 -760.0000 L 720.0000 -770.0000 L 730.0000 -770.0000 L 720.0000 -770.0000 L 720.0000 -780.0000 L 730.0000 -780.0000 L 740.0000 -780.0000 L 740.0000 -770.0000 L 740.0000 -780.0000 L 750.0000 -780.0000 L 740.0000 -780.0000 L 730.0000 -780.0000 L 730.0000 -790.0000 L 730.0000 -780.0000 L 720.0000 -780.0000 L 720.0000 -790.0000 L 720.0000 -800.0000 L 730.0000 -800.0000 L 720.0000 -800.0000 L 720.0000 -810.0000 L 730.0000 -810.0000 L 740.0000 -810.0000 L 740.0000 -800.0000 L 740.0000 -810.0000 L 750.0000 -810.0000 L 760.0000 -810.0000 L 770.0000 -810.0000 L 770.0000 -800.0000 L 770.0000 -810.0000 L 780.0000 -810.0000 L 780.0000 -800.0000 L 780.0000 -790.0000 L 770.0000 -790.0000 L 780.0000 -790.0000 L 780.0000 -780.0000 L 780.0000 -790.0000 L 780.0000 -800.0000 L 790.0000 -800.0000 L 780.0000 -800.0000 L 780.0000 -810.0000 L 790.0000 -810.0000 L 800.0000 -810.0000 L 800.0000 -800.0000 L 800.0000 -810.0000 L 810.0000 -810.0000 L 810.0000 -800.0000 L 810.0000 -790.0000 L 800.0000 -790.0000 L 810.0000 -790.0000 L 810.0000 -780.0000 L 810.0000 -770.0000 L 810.0000 -760.0000 L 800.0000 -760.0000 L 810.0000 -760.0000 L 810.0000 -750.0000 L 800.0000 -750.0000 L 790.0000 -750.0000 L 790.0000 -760.0000 L 790.0000 -750.0000 L 780.0000 -750.0000 L 790.0000 -750.0000 L 800.0000 -750.0000 L 800.0000 -740.0000 L 800.0000 -750.0000 L 810.0000 -750.0000 L 810.0000 -740.0000 L 810.0000 -730.0000 L 800.0000 -730.0000 L 810.0000 -730.0000 L 810.0000 -720.0000 L 810.0000 -710.0000 L 810.0000 -700.0000 L 800.0000 -700.0000 L 810.0000 -700.0000 L 810.0000 -690.0000 L 810.0000 -680.0000 L 810.0000 -670.0000 L 800.0000 -670.0000 L 810.0000 -670.0000 L 810.0000 -660.0000 L 800.0000 -660.0000 L 790.0000 -660.0000 L 790.0000 -670.0000 L 790.0000 -660.0000 L 780.0000 -660.0000 L 790.0000 -660.0000 L 800.0000 -660.0000 L 800.0000 -650.0000 L 800.0000 -660.0000 L 810.0000 -660.0000 L 810.0000 -650.0000 L 810.0000 -640.0000 L 800.0000 -640.0000 L 810.0000 -640.0000 L 810.0000 -630.0000 L 800.0000 -630.0000 L 790.0000 -630.0000 L 790.0000 -640.0000 L 790.0000 -630.0000 L 780.0000 -630.0000 L 770.0000 -630.0000 L 760.0000 -630.0000 L 760.0000 -640.0000 L 760.0000 -630.0000 L 750.0000 -630.0000 L 750.0000 -640.0000 L 750.0000 -650.0000 L 760.0000 -650.0000 L 750.0000 -650.0000 L 750.0000 -660.0000 L 750.0000 -650.0000 L 750.0000 -640.0000 L 740.0000 -640.0000 L 750.0000 -640.0000 L 750.0000 -630.0000 L 740.0000 -630.0000 L 730.0000 -630.0000 L 730.0000 -640.0000 L 730.0000 -630.0000 L 720.0000 -630.0000 L 730.0000 -630.0000 L 740.0000 -630.0000 L 740.0000 -620.0000 L 740.0000 -630.0000 L 750.0000 -630.0000 L 760.0000 -630.0000 L 770.0000 -630.0000 L 770.0000 -620.0000 L 770.0000 -630.0000 L 780.0000 -630.0000 L 780.0000 -620.0000 L 780.0000 -610.0000 L 770.0000 -610.0000 L 780.0000 -610.0000 L 780.0000 -600.0000 L 780.0000 -610.0000 L 780.0000 -620.0000 L 790.0000 -620.0000 L 780.0000 -620.0000 L 780.0000 -630.0000 L 790.0000 -630.0000 L 800.0000 -630.0000 L 800.0000 -620.0000 L 800.0000 -630.0000 L 810.0000 -630.0000 L 810.0000 -620.0000 L 810.0000 -610.0000 L 800.0000 -610.0000 L 810.0000 -610.0000 L 810.0000 -600.0000 L 810.0000 -590.0000 L 810.0000 -580.0000 L 800.0000 -580.0000 L 810.0000 -580.0000 L 810.0000 -570.0000 L 800.0000 -570.0000 L 790.0000 -570.0000 L 790.0000 -580.0000 L 790.0000 -570.0000 L 780.0000 -570.0000 L 790.0000 -570.0000 L 800.0000 -570.0000 L 800.0000 -560.0000 L 800.0000 -570.0000 L 810.0000 -570.0000 L 810.0000 -560.0000 L 810.0000 -550.0000 L 800.0000 -550.0000 L 810.0000 -550.0000 L 810.0000 -540.0000 L 810.0000 -530.0000 L 810.0000 -520.0000 L 800.0000 -520.0000 L 810.0000 -520.0000 L 810.0000 -510.0000 L 810.0000 -500.0000 L 810.0000 -490.0000 L 800.0000 -490.0000 L 810.0000 -490.0000 L 810.0000 -480.0000 L 800.0000 -480.0000 L 790.0000 -480.0000 L 790.0000 -490.0000 L 790.0000 -480.0000 L 780.0000 -480.0000 L 790.0000 -480.0000 L 800.0000 -480.0000 L 800.0000 -470.0000 L 800.0000 -480.0000 L 810.0000 -480.0000 L 810.0000 -470.0000 L 810.0000 -460.0000 L 800.0000 -460.0000 L 810.0000 -460.0000 L 810.0000 -450.0000 L 810.0000 -440.0000 L 810.0000 -430.0000 L 800.0000 -430.0000 L 810.0000 -430.0000 L 810.0000 -420.0000 L 810.0000 -410.0000 L 810.0000 -400.0000 L 800.0000 -400.0000 L 810.0000 -400.0000 L 810.0000 -390.0000 L 800.0000 -390.0000 L 790.0000 -390.0000 L 790.0000 -400.0000 L 790.0000 -390.0000 L 780.0000 -390.0000 L 790.0000 -390.0000 L 800.0000 -390.0000 L 800.0000 -380.0000 L 800.0000 -390.0000 L 810.0000 -390.0000 L 810.0000 -380.0000 L 810.0000 -370.0000 L 800.0000 -370.0000 L 810.0000 -370.0000 L 810.0000 -360.0000 L 800.0000 -360.0000 L 790.0000 -360.0000 L 790.0000 -370.0000 L 790.0000 -360.0000 L 780.0000 -360.0000 L 770.0000 -360.0000 L 760.0000 -360.0000 L 760.0000 -370.0000 L 760.0000 -360.0000 L 750.0000 -360.0000 L 750.0000 -370.0000 L 750.0000 -380.0000 L 760.0000 -380.0000 L 750.0000 -380.0000 L 750.0000 -390.0000 L 750.0000 -380.0000 L 750.0000 -370.0000 L 740.0000 -370.0000 L 750.0000 -370.0000 L 750.0000 -360.0000 L 740.0000 -360.0000 L 730.0000 -360.0000 L 730.0000 -370.0000 L 730.0000 -360.0000 L 720.0000 -360.0000 L 730.0000 -360.0000 L 740.0000 -360.0000 L 740.0000 -350.0000 L 740.0000 -360.0000 L 750.0000 -360.0000 L 760.0000 -360.0000 L 770.0000 -360.0000 L 770.0000 -350.0000 L 770.0000 -360.0000 L 780.0000 -360.0000 L 780.0000 -350.0000 L 780.0000 -340.0000 L 770.0000 -340.0000 L 780.0000 -340.0000 L 780.0000 -330.0000 L 780.0000 -340.0000 L 780.0000 -350.0000 L 790.0000 -350.0000 L 780.0000 -350.0000 L 780.0000 -360.0000 L 790.0000 -360.0000 L 800.0000 -360.0000 L 800.0000 -350.0000 L 800.0000 -360.0000 L 810.0000 -360.0000 L 810.0000 -350.0000 L 810.0000 -340.0000 L 800.0000 -340.0000 L 810.0000 -340.0000 L 810.0000 -330.0000 L 810.0000 -320.0000 L 810.0000 -310.0000 L 800.0000 -310.0000 L 810.0000 -310.0000 L 810.0000 -300.0000 L 800.0000 -300.0000 L 790.0000 -300.0000 L 790.0000 -310.0000 L 790.0000 -300.0000 L 780.0000 -300.0000 L 790.0000 -300.0000 L 800.0000 -300.0000 L 800.0000 -290.0000 L 800.0000 -300.0000 L 810.0000 -300.0000 L 810.0000 -290.0000 L 810.0000 -280.0000 L 800.0000 -280.0000 L 810.0000 -280.0000 L 810.0000 -270.0000 L 800.0000 -270.0000 L 790.0000 -270.0000 L 790.0000 -280.0000 L 790.0000 -270.0000 L 780.0000 -270.0000 L 770.0000 -270.0000 L 760.0000 -270.0000 L 760.0000 -280.0000 L 760.0000 -270.0000 L 750.0000 -270.0000 L 750.0000 -280.0000 L 750.0000 -290.0000 L 760.0000 -290.0000 L 750.0000 -290.0000 L 750.0000 -300.0000 L 750.0000 -290.0000 L 750.0000 -280.0000 L 740.0000 -280.0000 L 750.0000 -280.0000 L 750.0000 -270.0000 L 740.0000 -270.0000 L 730.0000 -270.0000 L 730.0000 -280.0000 L 730.0000 -270.0000 L 720.0000 -270.0000 L 710.0000 -270.0000 L 700.0000 -270.0000 L 700.0000 -280.0000 L 700.0000 -270.0000 L 690.0000 -270.0000 L 680.0000 -270.0000 L 670.0000 -270.0000 L 670.0000 -280.0000 L 670.0000 -270.0000 L 660.0000 -270.0000 L 660.0000 -280.0000 L 660.0000 -290.0000 L 670.0000 -290.0000 L 660.0000 -290.0000 L 660.0000 -300.0000 L 660.0000 -290.0000 L 660.0000 -280.0000 L 650.0000 -280.0000 L 660.0000 -280.0000 L 660.0000 -270.0000 L 650.0000 -270.0000 L 640.0000 -270.0000 L 640.0000 -280.0000 L 640.0000 -270.0000 L 630.0000 -270.0000 L 630.0000 -280.0000 L 630.0000 -290.0000 L 640.0000 -290.0000 L 630.0000 -290.0000 L 630.0000 -300.0000 L 630.0000 -310.0000 L 630.0000 -320.0000 L 640.0000 -320.0000 L 630.0000 -320.0000 L 630.0000 -330.0000 L 640.0000 -330.0000 L 650.0000 -330.0000 L 650.0000 -320.0000 L 650.0000 -330.0000 L 660.0000 -330.0000 L 650.0000 -330.0000 L 640.0000 -330.0000 L 640.0000 -340.0000 L 640.0000 -330.0000 L 630.0000 -330.0000 L 630.0000 -340.0000 L 630.0000 -350.0000 L 640.0000 -350.0000 L 630.0000 -350.0000 L 630.0000 -360.0000 L 630.0000 -350.0000 L 630.0000 -340.0000 L 620.0000 -340.0000 L 630.0000 -340.0000 L 630.0000 -330.0000 L 630.0000 -320.0000 L 630.0000 -310.0000 L 620.0000 -310.0000 L 630.0000 -310.0000 L 630.0000 -300.0000 L 620.0000 -300.0000 L 610.0000 -300.0000 L 610.0000 -310.0000 L 610.0000 -300.0000 L 600.0000 -300.0000 L 610.0000 -300.0000 L 620.0000 -300.0000 L 620.0000 -290.0000 L 620.0000 -300.0000 L 630.0000 -300.0000 L 630.0000 -290.0000 L 630.0000 -280.0000 L 620.0000 -280.0000 L 630.0000 -280.0000 L 630.0000 -270.0000 L 620.0000 -270.0000 L 610.0000 -270.0000 L 610.0000 -280.0000 L 610.0000 -270.0000 L 600.0000 -270.0000 L 590.0000 -270.0000 L 580.0000 -270.0000 L 580.0000 -280.0000 L 580.0000 -270.0000 L 570.0000 -270.0000 L 570.0000 -280.0000 L 570.0000 -290.0000 L 580.0000 -290.0000 L 570.0000 -290.0000 L 570.0000 -300.0000 L 570.0000 -290.0000 L 570.0000 -280.0000 L 560.0000 -280.0000 L 570.0000 -280.0000 L 570.0000 -270.0000 L 560.0000 -270.0000 L 550.0000 -270.0000 L 550.0000 -280.0000 L 550.0000 -270.0000 L 540.0000 -270.0000 L 550.0000 -270.0000 L 560.0000 -270.0000 L 560.0000 -260.0000 L 560.0000 -270.0000 L 570.0000 -270.0000 L 580.0000 -270.0000 L 590.0000 -270.0000 L 590.0000 -260.0000 L 590.0000 -270.0000 L 600.0000 -270.0000 L 600.0000 -260.0000 L 600.0000 -250.0000 L 590.0000 -250.0000 L 600.0000 -250.0000 L 600.0000 -240.0000 L 600.0000 -250.0000 L 600.0000 -260.0000 L 610.0000 -260.0000 L 600.0000 -260.0000 L 600.0000 -270.0000 L 610.0000 -270.0000 L 620.0000 -270.0000 L 620.0000 -260.0000 L 620.0000 -270.0000 L 630.0000 -270.0000 L 640.0000 -270.0000 L 650.0000 -270.0000 L 650.0000 -260.0000 L 650.0000 -270.0000 L 660.0000 -270.0000 L 670.0000 -270.0000 L 680.0000 -270.0000 L 680.0000 -260.0000 L 680.0000 -270.0000 L 690.0000 -270.0000 L 690.0000 -260.0000 L 690.0000 -250.0000 L 680.0000 -250.0000 L 690.0000 -250.0000 L 690.0000 -240.0000 L 690.0000 -250.0000 L 690.0000 -260.0000 L 700.0000 -260.0000 L 690.0000 -260.0000 L 690.0000 -270.0000 L 700.0000 -270.0000 L 710.0000 -270.0000 L 710.0000 -260.0000 L 710.0000 -270.0000 L 720.0000 -270.0000 L 720.0000 -260.0000 L 720.0000 -250.0000 L 710.0000 -250.0000 L 720.0000 -250.0000 L 720.0000 -240.0000 L 720.0000 -230.0000 L 720.0000 -220.0000 L 710.0000 -220.0000 L 720.0000 -220.0000 L 720.0000 -210.0000 L 710.0000 -210.0000 L 700.0000 -210.0000 L 700.0000 -220.0000 L 700.0000 -210.0000 L 690.0000 -210.0000 L 700.0000 -210.0000 L 710.0000 -210.0000 L 710.0000 -200.0000 L 710.0000 -210.0000 L 720.0000 -210.0000 L 720.0000 -200.0000 L 720.0000 -190.0000 L 710.0000 -190.0000 L 720.0000 -190.0000 L 720.0000 -180.0000 L 720.0000 -190.0000 L 720.0000 -200.0000 L 730.0000 -200.0000 L 720.0000 -200.0000 L 720.0000 -210.0000 L 720.0000 -220.0000 L 720.0000 -230.0000 L 730.0000 -230.0000 L 720.0000 -230.0000 L 720.0000 -240.0000 L 730.0000 -240.0000 L 740.0000 -240.0000 L 740.0000 -230.0000 L 740.0000 -240.0000 L 750.0000 -240.0000 L 740.0000 -240.0000 L 730.0000 -240.0000 L 730.0000 -250.0000 L 730.0000 -240.0000 L 720.0000 -240.0000 L 720.0000 -250.0000 L 720.0000 -260.0000 L 730.0000 -260.0000 L 720.0000 -260.0000 L 720.0000 -270.0000 L 730.0000 -270.0000 L 740.0000 -270.0000 L 740.0000 -260.0000 L 740.0000 -270.0000 L 750.0000 -270.0000 L 760.0000 -270.0000 L 770.0000 -270.0000 L 770.0000 -260.0000 L 770.0000 -270.0000 L 780.0000 -270.0000 L 780.0000 -260.0000 L 780.0000 -250.0000 L 770.0000 -250.0000 L 780.0000 -250.0000 L 780.0000 -240.0000 L 780.0000 -250.0000 L 780.0000 -260.0000 L 790.0000 -260.0000 L 780.0000 -260.0000 L 780.0000 -270.0000 L 790.0000 -270.0000 L 800.0000 -270.0000 L 800.0000 -260.0000 L 800.0000 -270.0000 L 810.0000 -270.0000 L 810.0000 -260.0000 L 810.0000 -250.0000 L 800.0000 -250.0000 L 810.0000 -250.0000 L 810.0000 -240.0000 L 810.0000 -230.0000 L 810.0000 -220.0000 L 800.0000 -220.0000 L 810.0000 -220.0000 L 810.0000 -210.0000 L 800.0000 -210.0000 L 790.0000 -210.0000 L 790.0000 -220.0000 L 790.0000 -210.0000 L 780.0000 -210.0000 L 790.0000 -210.0000 L 800.0000 -210.0000 L 800.0000 -200.0000 L 800.0000 -210.0000 L 810.0000 -210.0000 L 810.0000 -200.0000 L 810.0000 -190.0000 L 800.0000 -190.0000 L 810.0000 -190.0000 L 810.0000 -180.0000 L 810.0000 -170.0000 L 810.0000 -160.0000 L 800.0000 -160.0000 L 810.0000 -160.0000 L 810.0000 -150.0000 L 810.0000 -140.0000 L 810.0000 -130.0000 L 800.0000 -130.0000 L 810.0000 -130.0000 L 810.0000 -120.0000 L 800.0000 -120.0000 L 790.0000 -120.0000 L 790.0000 -130.0000 L 790.0000 -120.0000 L 780.0000 -120.0000 L 790.0000 -120.0000 L 800.0000 -120.0000 L 800.0000 -110.0000 L 800.0000 -120.0000 L 810.0000 -120.0000 L 810.0000 -110.0000 L 810.0000 -100.0000 L 800.0000 -100.0000 L 810.0000 -100.0000 L 810.0000 -90.0000 L 800.0000 -90.0000 L 790.0000 -90.0000 L 790.0000 -100.0000 L 790.0000 -90.0000 L 780.0000 -90.0000 L 770.0000 -90.0000 L 760.0000 -90.0000 L 760.0000 -100.0000 L 760.0000 -90.0000 L 750.0000 -90.0000 L 750.0000 -100.0000 L 750.0000 -110.0000 L 760.0000 -110.0000 L 750.0000 -110.0000 L 750.0000 -120.0000 L 750.0000 -110.0000 L 750.0000 -100.0000 L 740.0000 -100.0000 L 750.0000 -100.0000 L 750.0000 -90.0000 L 740.0000 -90.0000 L 730.0000 -90.0000 L 730.0000 -100.0000 L 730.0000 -90.0000 L 720.0000 -90.0000 L 730.0000 -90.0000 L 740.0000 -90.0000 L 740.0000 -80.0000 L 740.0000 -90.0000 L 750.0000 -90.0000 L 760.0000 -90.0000 L 770.0000 -90.0000 L 770.0000 -80.0000 L 770.0000 -90.0000 L 780.0000 -90.0000 L 780.0000 -80.0000 L 780.0000 -70.0000 L 770.0000 -70.0000 L 780.0000 -70.0000 L 780.0000 -60.0000 L 780.0000 -70.0000 L 780.0000 -80.0000 L 790.0000 -80.0000 L 780.0000 -80.0000 L 780.0000 -90.0000 L 790.0000 -90.0000 L 800.0000 -90.0000 L 800.0000 -80.0000 L 800.0000 -90.0000 L 810.0000 -90.0000 L 810.0000 -80.0000 L 810.0000 -70.0000 L 800.0000 -70.0000 L 810.0000 -70.0000 L 810.0000 -60.0000 L 810.0000 -50.0000 L 810.0000 -40.0000 L 800.0000 -40.0000 L 810.0000 -40.0000 L 810.0000 -30.0000 L 800.0000 -30.0000 L 790.0000 -30.0000 L 790.0000 -40.0000 L 790.0000 -30.0000 L 780.0000 -30.0000 L 790.0000 -30.0000 L 800.0000 -30.0000 L 800.0000 -20.0000 L 800.0000 -30.0000 L 810.0000 -30.0000 L 810.0000 -20.0000 L 810.0000 -10.0000 L 800.0000 -10.0000 L 810.0000 -10.0000 L 810.0000 0.0000 L 800.0000 0.0000 L 790.0000 0.0000 L 790.0000 -10.0000 L 790.0000 0.0000 L 780.0000 0.0000 L 770.0000 0.0000 L 760.0000 0.0000 L 760.0000 -10.0000 L 760.0000 0.0000 L 750.0000 0.0000 L 750.0000 -10.0000 L 750.0000 -20.0000 L 760.0000 -20.0000 L 750.0000 -20.0000 L 750.0000 -30.0000 L 750.0000 -20.0000 L 750.0000 -10.0000 L 740.0000 -10.0000 L 750.0000 -10.0000 L 750.0000 0.0000 L 740.0000 0.0000 L 730.0000 0.0000 L 730.0000 -10.0000 L 730.0000 0.0000 L 720.0000 -0.0000 L 710.0000 -0.0000 L 700.0000 -0.0000 L 700.0000 -10.0000 L 700.0000 -0.0000 L 690.0000 -0.0000 L 680.0000 -0.0000 L 670.0000 -0.0000 L 670.0000 -10.0000 L 670.0000 -0.0000 L 660.0000 -0.0000 L 660.0000 -10.0000 L 660.0000 -20.0000 L 670.0000 -20.0000 L 660.0000 -20.0000 L 660.0000 -30.0000 L 660.0000 -20.0000 L 660.0000 -10.0000 L 650.0000 -10.0000 L 660.0000 -10.0000 L 660.0000 -0.0000 L 650.0000 -0.0000 L 640.0000 -0.0000 L 640.0000 -10.0000 L 640.0000 -0.0000 L 630.0000 -0.0000 L 630.0000 -10.0000 L 630.0000 -20.0000 L 640.0000 -20.0000 L 630.0000 -20.0000 L 630.0000 -30.0000 L 630.0000 -40.0000 L 630.0000 -50.0000 L 640.0000 -50.0000 L 630.0000 -50.0000 L 630.0000 -60.0000 L 640.0000 -60.0000 L 650.0000 -60.0000 L 650.0000 -50.0000 L 650.0000 -60.0000 L 660.0000 -60.0000 L 650.0000 -60.0000 L 640.0000 -60.0000 L 640.0000 -70.0000 L 640.0000 -60.0000 L 630.0000 -60.0000 L 630.0000 -70.0000 L 630.0000 -80.0000 L 640.0000 -80.0000 L 630.0000 -80.0000 L 630.0000 -90.0000 L 630.0000 -80.0000 L 630.0000 -70.0000 L 620.0000 -70.0000 L 630.0000 -70.0000 L 630.0000 -60.0000 L 630.0000 -50.0000 L 630.0000 -40.0000 L 620.0000 -40.0000 L 630.0000 -40.0000 L 630.0000 -30.0000 L 620.0000 -30.0000 L 610.0000 -30.0000 L 610.0000 -40.0000 L 610.0000 -30.0000 L 600.0000 -30.0000 L 610.0000 -30.0000 L 620.0000 -30.0000 L 620.0000 -20.0000 L 620.0000 -30.0000 L 630.0000 -30.0000 L 630.0000 -20.0000 L 630.0000 -10.0000 L 620.0000 -10.0000 L 630.0000 -10.0000 L 630.0000 -0.0000 L 620.0000 -0.0000 L 610.0000 -0.0000 L 610.0000 -10.0000 L 610.0000 -0.0000 L 600.0000 -0.0000 L 590.0000 -0.0000 L 580.0000 -0.0000 L 580.0000 -10.0000 L 580.0000 -0.0000 L 570.0000 -0.0000 L 570.0000 -10.0000 L 570.0000 -20.0000 L 580.0000 -20.0000 L 570.0000 -20.0000 L 570.0000 -30.0000 L 570.0000 -20.0000 L 570.0000 -10.0000 L 560.0000 -10.0000 L 570.0000 -10.0000 L 570.0000 -0.0000 L 560.0000 -0.0000 L 550.0000 -0.0000 L 550.0000 -10.0000 L 550.0000 -0.0000 L 540.0000 -0.0000 L 530.0000 -0.0000 L 520.0000 -0.0000 L 520.0000 -10.0000 L 520.0000 -0.0000 L 510.0000 -0.0000 L 500.0000 -0.0000 L 490.0000 -0.0000 L 490.0000 -10.0000 L 490.0000 -0.0000 L 480.0000 -0.0000 L 480.0000 -10.0000 L 480.0000 -20.0000 L 490.0000 -20.0000 L 480.0000 -20.0000 L 480.0000 -30.0000 L 480.0000 -20.0000 L 480.0000 -10.0000 L 470.0000 -10.0000 L 480.0000 -10.0000 L 480.0000 -0.0000 L 470.0000 -0.0000 L 460.0000 -0.0000 L 460.0000 -10.0000 L 460.0000 -0.0000 L 450.0000 -0.0000 L 440.0000 -0.0000 L 430.0000 -0.0000 L 430.0000 -10.0000 L 430.0000 -0.0000 L 420.0000 -0.0000 L 410.0000 -0.0000 L 400.0000 -0.0000 L 400.0000 -10.0000 L 400.0000 -0.0000 L 390.0000 -0.0000 L 390.0000 -10.0000 L 390.0000 -20.0000 L 400.0000 -20.0000 L 390.0000 -20.0000 L 390.0000 -30.0000 L 390.0000 -20.0000 L 390.0000 -10.0000 L 380.0000 -10.0000 L 390.0000 -10.0000 L 390.0000 -0.0000 L 380.0000 -0.0000 L 370.0000 -0.0000 L 370.0000 -10.0000 L 370.0000 -0.0000 L 360.0000 -0.0000 L 360.0000 -10.0000 L 360.0000 -20.0000 L 370.0000 -20.0000 L 360.0000 -20.0000 L 360.0000 -30.0000 L 360.0000 -40.0000 L 360.0000 -50.0000 L 370.0000 -50.0000 L 360.0000 -50.0000 L 360.0000 -60.0000 L 370.0000 -60.0000 L 380.0000 -60.0000 L 380.0000 -50.0000 L 380.0000 -60.0000 L 390.0000 -60.0000 L 380.0000 -60.0000 L 370.0000 -60.0000 L 370.0000 -70.0000 L 370.0000 -60.0000 L 360.0000 -60.0000 L 360.0000 -70.0000 L 360.0000 -80.0000 L 370.0000 -80.0000 L 360.0000 -80.0000 L 360.0000 -90.0000 L 360.0000 -80.0000 L 360.0000 -70.0000 L 350.0000 -70.0000 L 360.0000 -70.0000 L 360.0000 -60.0000 L 360.0000 -50.0000 L 360.0000 -40.0000 L 350.0000 -40.0000 L 360.0000 -40.0000 L 360.0000 -30.0000 L 350.0000 -30.0000 L 340.0000 -30.0000 L 340.0000 -40.0000 L 340.0000 -30.0000 L 330.0000 -30.0000 L 340.0000 -30.0000 L 350.0000 -30.0000 L 350.0000 -20.0000 L 350.0000 -30.0000 L 360.0000 -30.0000 L 360.0000 -20.0000 L 360.0000 -10.0000 L 350.0000 -10.0000 L 360.0000 -10.0000 L 360.0000 -0.0000 L 350.0000 -0.0000 L 340.0000 -0.0000 L 340.0000 -10.0000 L 340.0000 -0.0000 L 330.0000 -0.0000 L 320.0000 -0.0000 L 310.0000 -0.0000 L 310.0000 -10.0000 L 310.0000 -0.0000 L 300.0000 -0.0000 L 300.0000 -10.0000 L 300.0000 -20.0000 L 310.0000 -20.0000 L 300.0000 -20.0000 L 300.0000 -30.0000 L 300.0000 -20.0000 L 300.0000 -10.0000 L 290.0000 -10.0000 L 300.0000 -10.0000 L 300.0000 -0.0000 L 290.0000 -0.0000 L 280.0000 -0.0000 L 280.0000 -10.0000 L 280.0000 -0.0000 L 270.0000 -0.0000 L 270.0000 -10.0000 L 270.0000 -20.0000 L 280.0000 -20.0000 L 270.0000 -20.0000 L 270.0000 -30.0000 L 270.0000 -40.0000 L 270.0000 -50.0000 L 280.0000 -50.0000 L 270.0000 -50.0000 L 270.0000 -60.0000 L 280.0000 -60.0000 L 290.0000 -60.0000 L 290.0000 -50.0000 L 290.0000 -60.0000 L 300.0000 -60.0000 L 290.0000 -60.0000 L 280.0000 -60.0000 L 280.0000 -70.0000 L 280.0000 -60.0000 L 270.0000 -60.0000 L 270.0000 -70.0000 L 270.0000 -80.0000 L 280.0000 -80.0000 L 270.0000 -80.0000 L 270.0000 -90.0000 L 270.0000 -100.0000 L 270.0000 -110.0000 L 280.0000 -110.0000 L 270.0000 -110.0000 L 270.0000 -120.0000 L 270.0000 -130.0000 L 270.0000 -140.0000 L 280.0000 -140.0000 L 270.0000 -140.0000 L 270.0000 -150.0000 L 280.0000 -150.0000 L 290.0000 -150.0000 L 290.0000 -140.0000 L 290.0000 -150.0000 L 300.0000 -150.0000 L 290.0000 -150.0000 L 280.0000 -150.0000 L 280.0000 -160.0000 L 280.0000 -150.0000 L 270.0000 -150.0000 L 270.0000 -160.0000 L 270.0000 -170.0000 L 280.0000 -170.0000 L 270.0000 -170.0000 L 270.0000 -180.0000 L 280.0000 -180.0000 L 290.0000 -180.0000 L 290.0000 -170.0000 L 290.0000 -180.0000 L 300.0000 -180.0000 L 310.0000 -180.0000 L 320.0000 -180.0000 L 320.0000 -170.0000 L 320.0000 -180.0000 L 330.0000 -180.0000 L 330.0000 -170.0000 L 330.0000 -160.0000 L 320.0000 -160.0000 L 330.0000 -160.0000 L 330.0000 -150.0000 L 330.0000 -160.0000 L 330.0000 -170.0000 L 340.0000 -170.0000 L 330.0000 -170.0000 L 330.0000 -180.0000 L 340.0000 -180.0000 L 350.0000 -180.0000 L 350.0000 -170.0000 L 350.0000 -180.0000 L 360.0000 -180.0000 L 350.0000 -180.0000 L 340.0000 -180.0000 L 340.0000 -190.0000 L 340.0000 -180.0000 L 330.0000 -180.0000 L 320.0000 -180.0000 L 310.0000 -180.0000 L 310.0000 -190.0000 L 310.0000 -180.0000 L 300.0000 -180.0000 L 300.0000 -190.0000 L 300.0000 -200.0000 L 310.0000 -200.0000 L 300.0000 -200.0000 L 300.0000 -210.0000 L 300.0000 -200.0000 L 300.0000 -190.0000 L 290.0000 -190.0000 L 300.0000 -190.0000 L 300.0000 -180.0000 L 290.0000 -180.0000 L 280.0000 -180.0000 L 280.0000 -190.0000 L 280.0000 -180.0000 L 270.0000 -180.0000 L 270.0000 -190.0000 L 270.0000 -200.0000 L 280.0000 -200.0000 L 270.0000 -200.0000 L 270.0000 -210.0000 L 270.0000 -220.0000 L 270.0000 -230.0000 L 280.0000 -230.0000 L 270.0000 -230.0000 L 270.0000 -240.0000 L 280.0000 -240.0000 L 290.0000 -240.0000 L 290.0000 -230.0000 L 290.0000 -240.0000 L 300.0000 -240.0000 L 290.0000 -240.0000 L 280.0000 -240.0000 L 280.0000 -250.0000 L 280.0000 -240.0000 L 270.0000 -240.0000 L 270.0000 -250.0000 L 270.0000 -260.0000 L 280.0000 -260.0000 L 270.0000 -260.0000 L 270.0000 -270.0000 L 270.0000 -260.0000 L 270.0000 -250.0000 L 260.0000 -250.0000 L 270.0000 -250.0000 L 270.0000 -240.0000 L 270.0000 -230.0000 L 270.0000 -220.0000 L 260.0000 -220.0000 L 270.0000 -220.0000 L 270.0000 -210.0000 L 260.0000 -210.0000 L 250.0000 -210.0000 L 250.0000 -220.0000 L 250.0000 -210.0000 L 240.0000 -210.0000 L 250.0000 -210.0000 L 260.0000 -210.0000 L 260.0000 -200.0000 L 260.0000 -210.0000 L 270.0000 -210.0000 L 270.0000 -200.0000 L 270.0000 -190.0000 L 260.0000 -190.0000 L 270.0000 -190.0000 L 270.0000 -180.0000 L 270.0000 -170.0000 L 270.0000 -160.0000 L 260.0000 -160.0000 L 270.0000 -160.0000 L 270.0000 -150.0000 L 270.0000 -140.0000 L 270.0000 -130.0000 L 260.0000 -130.0000 L 270.0000 -130.0000 L 270.0000 -120.0000 L 260.0000 -120.0000 L 250.0000 -120.0000 L 250.0000 -130.0000 L 250.0000 -120.0000 L 240.0000 -120.0000 L 250.0000 -120.0000 L 260.0000 -120.0000 L 260.0000 -110.0000 L 260.0000 -120.0000 L 270.0000 -120.0000 L 270.0000 -110.0000 L 270.0000 -100.0000 L 260.0000 -100.0000 L 270.0000 -100.0000 L 270.0000 -90.0000 L 260.0000 -90.0000 L 250.0000 -90.0000 L 250.0000 -100.0000 L 250.0000 -90.0000 L 240.0000 -90.0000 L 230.0000 -90.0000 L 220.0000 -90.0000 L 220.0000 -100.0000 L 220.0000 -90.0000 L 210.0000 -90.0000 L 210.0000 -100.0000 L 210.0000 -110.0000 L 220.0000 -110.0000 L 210.0000 -110.0000 L 210.0000 -120.0000 L 210.0000 -110.0000 L 210.0000 -100.0000 L 200.0000 -100.0000 L 210.0000 -100.0000 L 210.0000 -90.0000 L 200.0000 -90.0000 L 190.0000 -90.0000 L 190.0000 -100.0000 L 190.0000 -90.0000 L 180.0000 -90.0000 L 190.0000 -90.0000 L 200.0000 -90.0000 L 200.0000 -80.0000 L 200.0000 -90.0000 L 210.0000 -90.0000 L 220.0000 -90.0000 L 230.0000 -90.0000 L 230.0000 -80.0000 L 230.0000 -90.0000 L 240.0000 -90.0000 L 240.0000 -80.0000 L 240.0000 -70.0000 L 230.0000 -70.0000 L 240.0000 -70.0000 L 240.0000 -60.0000 L 240.0000 -70.0000 L 240.0000 -80.0000 L 250.0000 -80.0000 L 240.0000 -80.0000 L 240.0000 -90.0000 L 250.0000 -90.0000 L 260.0000 -90.0000 L 260.0000 -80.0000 L 260.0000 -90.0000 L 270.0000 -90.0000 L 270.0000 -80.0000 L 270.0000 -70.0000 L 260.0000 -70.0000 L 270.0000 -70.0000 L 270.0000 -60.0000 L 270.0000 -50.0000 L 270.0000 -40.0000 L 260.0000 -40.0000 L 270.0000 -40.0000 L 270.0000 -30.0000 L 260.0000 -30.0000 L 250.0000 -30.0000 L 250.0000 -40.0000 L 250.0000 -30.0000 L 240.0000 -30.0000 L 250.0000 -30.0000 L 260.0000 -30.0000 L 260.0000 -20.0000 L 260.0000 -30.0000 L 270.0000 -30.0000 L 270.0000 -20.0000 L 270.0000 -10.0000 L 260.0000 -10.0000 L 270.0000 -10.0000 L 270.0000 -0.0000 L 260.0000 -0.0000 L 250.0000 -0.0000 L 250.0000 -10.0000 L 250.0000 -0.0000 L 240.0000 -0.0000 L 230.0000 -0.0000 L 220.0000 -0.0000 L 220.0000 -10.0000 L 220.0000 -0.0000 L 210.0000 -0.0000 L 210.0000 -10.0000 L 210.0000 -20.0000 L 220.0000 -20.0000 L 210.0000 -20.0000 L 210.0000 -30.0000 L 210.0000 -20.0000 L 210.0000 -10.0000 L 200.0000 -10.0000 L 210.0000 -10.0000 L 210.0000 -0.0000 L 200.0000 -0.0000 L 190.0000 -0.0000 L 190.0000 -10.0000 L 190.0000 -0.0000 L 180.0000 -0.0000 L 170.0000 -0.0000 L 160.0000 -0.0000 L 160.0000 -10.0000 L 160.0000 -0.0000 L 150.0000 -0.0000 L 140.0000 -0.0000 L 130.0000 -0.0000 L 130.0000 -10.0000 L 130.0000 -0.0000 L 120.0000 -0.0000 L 120.0000 -10.0000 L 120.0000 -20.0000 L 130.0000 -20.0000 L 120.0000 -20.0000 L 120.0000 -30.0000 L 120.0000 -20.0000 L 120.0000 -10.0000 L 110.0000 -10.0000 L 120.0000 -10.0000 L 120.0000 -0.0000 L 110.0000 -0.0000 L 100.0000 -0.0000 L 100.0000 -10.0000 L 100.0000 -0.0000 L 90.0000 -0.0000 L 90.0000 -10.0000 L 90.0000 -20.0000 L 100.0000 -20.0000 L 90.0000 -20.0000 L 90.0000 -30.0000 L 90.0000 -40.0000 L 90.0000 -50.0000 L 100.0000 -50.0000 L 90.0000 -50.0000 L 90.0000 -60.0000 L 100.0000 -60.0000 L 110.0000 -60.0000 L 110.0000 -50.0000 L 110.0000 -60.0000 L 120.0000 -60.0000 L 110.0000 -60.0000 L 100.0000 -60.0000 L 100.0000 -70.0000 L 100.0000 -60.0000 L 90.0000 -60.0000 L 90.0000 -70.0000 L 90.0000 -80.0000 L 100.0000 -80.0000 L 90.0000 -80.0000 L 90.0000 -90.0000 L 90.0000 -80.0000 L 90.0000 -70.0000 L 80.0000 -70.0000 L 90.0000 -70.0000 L 90.0000 -60.0000 L 90.0000 -50.0000 L 90.0000 -40.0000 L 80.0000 -40.0000 L 90.0000 -40.0000 L 90.0000 -30.0000 L 80.0000 -30.0000 L 70.0000 -30.0000 L 70.0000 -40.0000 L 70.0000 -30.0000 L 60.0000 -30.0000 L 70.0000 -30.0000 L 80.0000 -30.0000 L 80.0000 -20.0000 L 80.0000 -30.0000 L 90.0000 -30.0000 L 90.0000 -20.0000 L 90.0000 -10.0000 L 80.0000 -10.0000 L 90.0000 -10.0000 L 90.0000 -0.0000 L 80.0000 -0.0000 L 70.0000 -0.0000 L 70.0000 -10.0000 L 70.0000 -0.0000 L 60.0000 -0.0000 L 50.0000 -0.0000 L 40.0000 -0.0000 L 40.0000 -10.0000 L 40.0000 -0.0000 L 30.0000 -0.0000 L 30.0000 -10.0000 L 30.0000 -20.0000 L 40.0000 -20.0000 L 30.0000 -20.0000 L 30.0000 -30.0000 L 30.0000 -20.0000 L 30.0000 -10.0000 L 20.0000 -10.0000 L 30.0000 -10.0000 L 30.0000 -0.0000 L 20.0000 -0.0000 L 10.0000 -0.0000 L 10.0000 -10.0000 L 10.0000 -0.0000 L -0.0000 -0.0000 " stroke-width="1" stroke="black" fill="none"/></svg>
