<svg viewBox="-12.990381056766704 -176.0 155.88457268119907 192.0" xmlns="http://www.w3.org/2000/svg"><path d="M 0 0 L 0.0000 -10.0000 L 8.6603 -15.0000 L 17.3205 -10.0000 L 25.9808 -15.0000 L 25.9808 -25.0000 L 17.3205 -30.0000 L 8.6603 -25.0000 L -0.0000 -30.0000 L -0.0000 -40.0000 L 8.6603 -45.0000 L 8.6603 -55.0000 L 0.0000 -60.0000 L 0.0000 -70.0000 L 8.6603 -75.0000 L 17.3205 -70.0000 L 17.3205 -60.0000 L 25.9808 -55.0000 L 34.6410 -60.0000 L 43.3013 -55.0000 L 43.3013 -45.0000 L 34.6410 -40.0000 L 34.6410 -30.0000 L 43.3013 -25.0000 L 51.9615 -30.0000 L 51.9615 -40.0000 L 60.6218 -45.0000 L 69.2820 -40.0000 L 77.9423 -45.0000 L 77.9423 -55.0000 L 69.2820 -60.0000 L 69.2820 -70.0000 L 77.9423 -75.0000 L 86.6025 -70.0000 L 86.6025 -60.0000 L 95.2628 -55.0000 L 103.9230 -60.0000 L 103.9230 -70.0000 L 112.5833 -75.0000 L 121.2436 -70.0000 L 129.9038 -75.0000 L 129.9038 -85.0000 L 121.2436 -90.0000 L 112.5833 -85.0000 L 103.9230 -90.0000 L 103.9230 -100.0000 L 95.2628 -105.0000 L 86.6025 -100.0000 L 86.6025 -90.0000 L 77.9423 -85.0000 L 69.2820 -90.0000 L 69.2820 -100.0000 L 77.9423 -105.0000 L 77.9423 -115.0000 L 69.2820 -120.0000 L 60.6218 -115.0000 L 51.9615 -120.0000 L 51.9615 -130.0000 L 43.3013 -135.0000 L 34.6410 -130.0000 L 34.6410 -120.0000 L 43.3013 -115.0000 L 43.3013 -105.0000 L 34.6410 -100.0000 L 25.9808 -105.0000 L 17.3205 -100.0000 L 17.3205 -90.0000 L 8.6603 -85.0000 L -0.0000 -90.0000 L -0.0000 -100.0000 L 8.6603 -105.0000 L 8.6603 -115.0000 L -0.0000 -120.0000 L -0.0000 -130.0000 L 8.6603 -135.0000 L 17.3205 -130.0000 L 25.9808 -135.0000 L 25.9808 -145.0000 L 17.3205 -150.0000 L 8.6603 -145.0000 L -0.0000 -150.0000 L -0.0000 -160.0000 " stroke-width="1" stroke="black" fill="none"/></svg>
