<svg viewBox="-77.08511007435709 -330.0 154.1702201487142 360.0" xmlns="http://www.w3.org/2000/svg"><path d="M 0 0 L 0.0000 -10.0000 L 0.0000 -20.0000 L 0.0000 -30.0000 L 0.0000 -40.0000 L 0.0000 -50.0000 L 0.0000 -60.0000 L 0.0000 -70.0000 L 0.0000 -80.0000 L 4.3366 -89.0108 L 8.6732 -98.0215 L 13.0098 -107.0323 L 17.3464 -116.0431 L 25.1616 -122.2819 L 32.9768 -128.5207 L 42.7244 -130.7532 M 42.7244 -130.7532 M 42.7244 -130.7532 L 52.4720 -132.9857 M 32.9768 -128.5207 L 37.3134 -137.5314 M 37.3134 -137.5314 M 37.3134 -137.5314 L 41.6500 -146.5422 M 32.9768 -128.5207 L 40.7920 -134.7595 L 48.6072 -140.9983 L 56.4224 -147.2371 M 56.4224 -147.2371 M 56.4224 -147.2371 L 64.2376 -153.4759 M 17.3464 -116.0431 L 17.3464 -126.0431 L 17.3464 -136.0431 L 21.6830 -145.0539 M 21.6830 -145.0539 M 21.6830 -145.0539 L 26.0195 -154.0646 M 17.3464 -136.0431 L 13.0098 -145.0539 M 13.0098 -145.0539 M 13.0098 -145.0539 L 8.6732 -154.0646 M 17.3464 -136.0431 L 17.3464 -146.0431 L 17.3464 -156.0431 L 17.3464 -166.0431 M 17.3464 -166.0431 M 17.3464 -166.0431 L 17.3464 -176.0431 M 17.3464 -116.0431 L 21.6830 -125.0539 L 26.0195 -134.0646 L 30.3561 -143.0754 L 34.6927 -152.0862 L 39.0293 -161.0969 L 43.3659 -170.1077 L 51.1811 -176.3465 M 51.1811 -176.3465 M 51.1811 -176.3465 L 58.9963 -182.5853 M 43.3659 -170.1077 L 43.3659 -180.1077 M 43.3659 -180.1077 M 43.3659 -180.1077 L 43.3659 -190.1077 M 43.3659 -170.1077 L 47.7025 -179.1185 L 52.0391 -188.1292 L 56.3757 -197.1400 M 56.3757 -197.1400 M 56.3757 -197.1400 L 60.7123 -206.1508 M 0.0000 -80.0000 L -4.3366 -89.0108 L -8.6732 -98.0215 L -13.0098 -107.0323 L -17.3464 -116.0431 L -17.3464 -126.0431 L -17.3464 -136.0431 L -13.0098 -145.0539 M -13.0098 -145.0539 M -13.0098 -145.0539 L -8.6732 -154.0646 M -17.3464 -136.0431 L -21.6830 -145.0539 M -21.6830 -145.0539 M -21.6830 -145.0539 L -26.0195 -154.0646 M -17.3464 -136.0431 L -17.3464 -146.0431 L -17.3464 -156.0431 L -17.3464 -166.0431 M -17.3464 -166.0431 M -17.3464 -166.0431 L -17.3464 -176.0431 M -17.3464 -116.0431 L -25.1616 -122.2819 L -32.9768 -128.5207 L -37.3134 -137.5314 M -37.3134 -137.5314 M -37.3134 -137.5314 L -41.6500 -146.5422 M -32.9768 -128.5207 L -42.7244 -130.7532 M -42.7244 -130.7532 M -42.7244 -130.7532 L -52.4720 -132.9857 M -32.9768 -128.5207 L -40.7920 -134.7595 L -48.6072 -140.9983 L -56.4224 -147.2371 M -56.4224 -147.2371 M -56.4224 -147.2371 L -64.2376 -153.4759 M -17.3464 -116.0431 L -21.6830 -125.0539 L -26.0195 -134.0646 L -30.3561 -143.0754 L -34.6927 -152.0862 L -39.0293 -161.0969 L -43.3659 -170.1077 L -43.3659 -180.1077 M -43.3659 -180.1077 M -43.3659 -180.1077 L -43.3659 -190.1077 M -43.3659 -170.1077 L -51.1811 -176.3465 M -51.1811 -176.3465 M -51.1811 -176.3465 L -58.9963 -182.5853 M -43.3659 -170.1077 L -47.7025 -179.1185 L -52.0391 -188.1292 L -56.3757 -197.1400 M -56.3757 -197.1400 M -56.3757 -197.1400 L -60.7123 -206.1508 M 0.0000 -80.0000 L 0.0000 -90.0000 L 0.0000 -100.0000 L 0.0000 -110.0000 L 0.0000 -120.0000 L 0.0000 -130.0000 L 0.0000 -140.0000 L 0.0000 -150.0000 L 0.0000 -160.0000 L 0.0000 -170.0000 L 0.0000 -180.0000 L 0.0000 -190.0000 L 0.0000 -200.0000 L 4.3366 -209.0108 L 8.6732 -218.0215 L 16.4884 -224.2603 M 16.4884 -224.2603 M 16.4884 -224.2603 L 24.3036 -230.4991 M 8.6732 -218.0215 L 8.6732 -228.0215 M 8.6732 -228.0215 M 8.6732 -228.0215 L 8.6732 -238.0215 M 8.6732 -218.0215 L 13.0098 -227.0323 L 17.3464 -236.0431 L 21.6830 -245.0539 M 21.6830 -245.0539 M 21.6830 -245.0539 L 26.0195 -254.0646 M 0.0000 -200.0000 L -4.3366 -209.0108 L -8.6732 -218.0215 L -8.6732 -228.0215 M -8.6732 -228.0215 M -8.6732 -228.0215 L -8.6732 -238.0215 M -8.6732 -218.0215 L -16.4884 -224.2603 M -16.4884 -224.2603 M -16.4884 -224.2603 L -24.3036 -230.4991 M -8.6732 -218.0215 L -13.0098 -227.0323 L -17.3464 -236.0431 L -21.6830 -245.0539 M -21.6830 -245.0539 M -21.6830 -245.0539 L -26.0195 -254.0646 M 0.0000 -200.0000 L 0.0000 -210.0000 L 0.0000 -220.0000 L 0.0000 -230.0000 L 0.0000 -240.0000 L 0.0000 -250.0000 L 0.0000 -260.0000 L 4.3366 -269.0108 M 4.3366 -269.0108 M 4.3366 -269.0108 L 8.6732 -278.0215 M 0.0000 -260.0000 L -4.3366 -269.0108 M -4.3366 -269.0108 M -4.3366 -269.0108 L -8.6732 -278.0215 M 0.0000 -260.0000 L 0.0000 -270.0000 L 0.0000 -280.0000 L 0.0000 -290.0000 M 0.0000 -290.0000 M 0.0000 -290.0000 L 0.0000 -300.0000 " stroke-width="1" stroke="black" fill="none"/></svg>
