<svg viewBox="-204.26936666278502 -426.4583768546149 322.58134503684136 465.22732020503446" xmlns="http://www.w3.org/2000/svg"><path d="M 0 0 L 0.0000 -10.0000 L 0.0000 -20.0000 L 0.0000 -30.0000 L 0.0000 -40.0000 L 0.0000 -50.0000 L 0.0000 -60.0000 L 0.0000 -70.0000 L 0.0000 -80.0000 L 4.2262 -89.0631 L 8.4524 -98.1262 L 12.6785 -107.1892 L 16.9047 -116.2523 L 24.5652 -122.6802 L 32.2256 -129.1081 L 41.8849 -131.6963 M 41.8849 -131.6963 M 41.8849 -131.6963 L 51.5441 -134.2844 L 59.2046 -140.7123 M 51.5441 -134.2844 M 32.2256 -129.1081 L 39.8861 -135.5359 M 39.8861 -135.5359 M 39.8861 -135.5359 L 47.5465 -141.9638 L 51.7727 -151.0269 M 47.5465 -141.9638 M 32.2256 -129.1081 L 39.8861 -135.5359 L 47.5465 -141.9638 L 51.7727 -151.0269 L 55.9989 -160.0900 L 60.2251 -169.1530 M 60.2251 -169.1530 M 60.2251 -169.1530 L 64.4512 -178.2161 L 64.4512 -188.2161 M 64.4512 -178.2161 M 47.5465 -141.9638 L 57.2058 -144.5520 M 57.2058 -144.5520 M 57.2058 -144.5520 L 66.8650 -147.1402 L 74.5255 -153.5681 M 66.8650 -147.1402 M 16.9047 -116.2523 L 21.1309 -125.3154 L 25.3571 -134.3785 L 33.0175 -140.8063 M 33.0175 -140.8063 M 33.0175 -140.8063 L 40.6780 -147.2342 L 44.9042 -156.2973 M 40.6780 -147.2342 M 25.3571 -134.3785 L 29.5833 -143.4415 M 29.5833 -143.4415 M 29.5833 -143.4415 L 33.8095 -152.5046 L 33.8095 -162.5046 M 33.8095 -152.5046 M 25.3571 -134.3785 L 29.5833 -143.4415 L 33.8095 -152.5046 L 33.8095 -162.5046 L 33.8095 -172.5046 L 33.8095 -182.5046 M 33.8095 -182.5046 M 33.8095 -182.5046 L 33.8095 -192.5046 L 29.5833 -201.5677 M 33.8095 -192.5046 M 33.8095 -152.5046 L 41.4699 -158.9325 M 41.4699 -158.9325 M 41.4699 -158.9325 L 49.1303 -165.3604 L 53.3565 -174.4235 M 49.1303 -165.3604 M 16.9047 -116.2523 L 21.1309 -125.3154 L 25.3571 -134.3785 L 29.5833 -143.4415 L 33.8095 -152.5046 L 33.8095 -162.5046 L 33.8095 -172.5046 L 33.8095 -182.5046 L 33.8095 -192.5046 L 33.8095 -202.5046 L 33.8095 -212.5046 L 38.0356 -221.5677 M 38.0356 -221.5677 M 38.0356 -221.5677 L 42.2618 -230.6308 L 42.2618 -240.6308 M 42.2618 -230.6308 M 33.8095 -212.5046 L 33.8095 -222.5046 M 33.8095 -222.5046 M 33.8095 -222.5046 L 33.8095 -232.5046 L 29.5833 -241.5677 M 33.8095 -232.5046 M 33.8095 -212.5046 L 33.8095 -222.5046 L 33.8095 -232.5046 L 29.5833 -241.5677 L 25.3571 -250.6308 L 21.1309 -259.6939 M 21.1309 -259.6939 M 21.1309 -259.6939 L 16.9047 -268.7569 L 9.2443 -275.1848 M 16.9047 -268.7569 M 33.8095 -232.5046 L 38.0356 -241.5677 M 38.0356 -241.5677 M 38.0356 -241.5677 L 42.2618 -250.6308 L 42.2618 -260.6308 M 42.2618 -250.6308 M 33.8095 -152.5046 L 41.4699 -158.9325 L 49.1303 -165.3604 L 58.7896 -167.9486 M 58.7896 -167.9486 M 58.7896 -167.9486 L 68.4489 -170.5368 L 76.1093 -176.9646 M 68.4489 -170.5368 M 49.1303 -165.3604 L 56.7908 -171.7883 M 56.7908 -171.7883 M 56.7908 -171.7883 L 64.4512 -178.2161 L 68.6774 -187.2792 M 64.4512 -178.2161 M 49.1303 -165.3604 L 56.7908 -171.7883 L 64.4512 -178.2161 L 68.6774 -187.2792 L 72.9036 -196.3423 L 77.1298 -205.4054 M 77.1298 -205.4054 M 77.1298 -205.4054 L 81.3560 -214.4684 L 81.3560 -224.4684 M 81.3560 -214.4684 M 64.4512 -178.2161 L 74.1105 -180.8043 M 74.1105 -180.8043 M 74.1105 -180.8043 L 83.7698 -183.3925 L 91.4302 -189.8204 M 83.7698 -183.3925 M 0.0000 -80.0000 L 0.0000 -90.0000 L 0.0000 -100.0000 L 0.0000 -110.0000 L 0.0000 -120.0000 L 4.2262 -129.0631 L 8.4524 -138.1262 L 16.1128 -144.5540 M 16.1128 -144.5540 M 16.1128 -144.5540 L 23.7733 -150.9819 L 27.9994 -160.0450 M 23.7733 -150.9819 M 8.4524 -138.1262 L 12.6785 -147.1892 M 12.6785 -147.1892 M 12.6785 -147.1892 L 16.9047 -156.2523 L 16.9047 -166.2523 M 16.9047 -156.2523 M 8.4524 -138.1262 L 12.6785 -147.1892 L 16.9047 -156.2523 L 16.9047 -166.2523 L 16.9047 -176.2523 L 16.9047 -186.2523 M 16.9047 -186.2523 M 16.9047 -186.2523 L 16.9047 -196.2523 L 12.6785 -205.3154 M 16.9047 -196.2523 M 16.9047 -156.2523 L 24.5652 -162.6802 M 24.5652 -162.6802 M 24.5652 -162.6802 L 32.2256 -169.1081 L 36.4518 -178.1711 M 32.2256 -169.1081 M 0.0000 -120.0000 L 0.0000 -130.0000 L 0.0000 -140.0000 L 4.2262 -149.0631 M 4.2262 -149.0631 M 4.2262 -149.0631 L 8.4524 -158.1262 L 8.4524 -168.1262 M 8.4524 -158.1262 M 0.0000 -140.0000 L 0.0000 -150.0000 M 0.0000 -150.0000 M 0.0000 -150.0000 L 0.0000 -160.0000 L -4.2262 -169.0631 M 0.0000 -160.0000 M 0.0000 -140.0000 L 0.0000 -150.0000 L 0.0000 -160.0000 L -4.2262 -169.0631 L -8.4524 -178.1262 L -12.6785 -187.1892 M -12.6785 -187.1892 M -12.6785 -187.1892 L -16.9047 -196.2523 L -24.5652 -202.6802 M -16.9047 -196.2523 M 0.0000 -160.0000 L 4.2262 -169.0631 M 4.2262 -169.0631 M 4.2262 -169.0631 L 8.4524 -178.1262 L 8.4524 -188.1262 M 8.4524 -178.1262 M 0.0000 -120.0000 L 0.0000 -130.0000 L 0.0000 -140.0000 L 0.0000 -150.0000 L 0.0000 -160.0000 L -4.2262 -169.0631 L -8.4524 -178.1262 L -12.6785 -187.1892 L -16.9047 -196.2523 L -21.1309 -205.3154 L -25.3571 -214.3785 L -25.3571 -224.3785 M -25.3571 -224.3785 M -25.3571 -224.3785 L -25.3571 -234.3785 L -29.5833 -243.4415 M -25.3571 -234.3785 M -25.3571 -214.3785 L -29.5833 -223.4415 M -29.5833 -223.4415 M -29.5833 -223.4415 L -33.8095 -232.5046 L -41.4699 -238.9325 M -33.8095 -232.5046 M -25.3571 -214.3785 L -29.5833 -223.4415 L -33.8095 -232.5046 L -41.4699 -238.9325 L -49.1303 -245.3604 L -56.7908 -251.7883 M -56.7908 -251.7883 M -56.7908 -251.7883 L -64.4512 -258.2161 L -74.1105 -260.8043 M -64.4512 -258.2161 M -33.8095 -232.5046 L -33.8095 -242.5046 M -33.8095 -242.5046 M -33.8095 -242.5046 L -33.8095 -252.5046 L -38.0356 -261.5677 M -33.8095 -252.5046 M 0.0000 -160.0000 L 4.2262 -169.0631 L 8.4524 -178.1262 L 16.1128 -184.5540 M 16.1128 -184.5540 M 16.1128 -184.5540 L 23.7733 -190.9819 L 27.9994 -200.0450 M 23.7733 -190.9819 M 8.4524 -178.1262 L 12.6785 -187.1892 M 12.6785 -187.1892 M 12.6785 -187.1892 L 16.9047 -196.2523 L 16.9047 -206.2523 M 16.9047 -196.2523 M 8.4524 -178.1262 L 12.6785 -187.1892 L 16.9047 -196.2523 L 16.9047 -206.2523 L 16.9047 -216.2523 L 16.9047 -226.2523 M 16.9047 -226.2523 M 16.9047 -226.2523 L 16.9047 -236.2523 L 12.6785 -245.3154 M 16.9047 -236.2523 M 16.9047 -196.2523 L 24.5652 -202.6802 M 24.5652 -202.6802 M 24.5652 -202.6802 L 32.2256 -209.1081 L 36.4518 -218.1711 M 32.2256 -209.1081 M 0.0000 -80.0000 L 0.0000 -90.0000 L 0.0000 -100.0000 L 0.0000 -110.0000 L 0.0000 -120.0000 L 0.0000 -130.0000 L 0.0000 -140.0000 L 0.0000 -150.0000 L 0.0000 -160.0000 L -4.2262 -169.0631 L -8.4524 -178.1262 L -12.6785 -187.1892 L -16.9047 -196.2523 L -21.1309 -205.3154 L -25.3571 -214.3785 L -29.5833 -223.4415 L -33.8095 -232.5046 L -38.0356 -241.5677 L -42.2618 -250.6308 L -46.4880 -259.6939 L -50.7142 -268.7569 L -50.7142 -278.7569 L -50.7142 -288.7569 L -46.4880 -297.8200 M -46.4880 -297.8200 M -46.4880 -297.8200 L -42.2618 -306.8831 L -42.2618 -316.8831 M -42.2618 -306.8831 M -50.7142 -288.7569 L -50.7142 -298.7569 M -50.7142 -298.7569 M -50.7142 -298.7569 L -50.7142 -308.7569 L -54.9404 -317.8200 M -50.7142 -308.7569 M -50.7142 -288.7569 L -50.7142 -298.7569 L -50.7142 -308.7569 L -54.9404 -317.8200 L -59.1666 -326.8831 L -63.3927 -335.9462 M -63.3927 -335.9462 M -63.3927 -335.9462 L -67.6189 -345.0092 L -75.2794 -351.4371 M -67.6189 -345.0092 M -50.7142 -308.7569 L -46.4880 -317.8200 M -46.4880 -317.8200 M -46.4880 -317.8200 L -42.2618 -326.8831 L -42.2618 -336.8831 M -42.2618 -326.8831 M -50.7142 -268.7569 L -54.9404 -277.8200 L -59.1666 -286.8831 L -59.1666 -296.8831 M -59.1666 -296.8831 M -59.1666 -296.8831 L -59.1666 -306.8831 L -63.3927 -315.9462 M -59.1666 -306.8831 M -59.1666 -286.8831 L -63.3927 -295.9462 M -63.3927 -295.9462 M -63.3927 -295.9462 L -67.6189 -305.0092 L -75.2794 -311.4371 M -67.6189 -305.0092 M -59.1666 -286.8831 L -63.3927 -295.9462 L -67.6189 -305.0092 L -75.2794 -311.4371 L -82.9398 -317.8650 L -90.6003 -324.2929 M -90.6003 -324.2929 M -90.6003 -324.2929 L -98.2607 -330.7208 L -107.9200 -333.3089 M -98.2607 -330.7208 M -67.6189 -305.0092 L -67.6189 -315.0092 M -67.6189 -315.0092 M -67.6189 -315.0092 L -67.6189 -325.0092 L -71.8451 -334.0723 M -67.6189 -325.0092 M -50.7142 -268.7569 L -54.9404 -277.8200 L -59.1666 -286.8831 L -63.3927 -295.9462 L -67.6189 -305.0092 L -75.2794 -311.4371 L -82.9398 -317.8650 L -90.6003 -324.2929 L -98.2607 -330.7208 L -105.9211 -337.1486 L -113.5816 -343.5765 L -117.8078 -352.6396 M -117.8078 -352.6396 M -117.8078 -352.6396 L -122.0340 -361.7027 L -129.6944 -368.1305 M -122.0340 -361.7027 M -113.5816 -343.5765 L -121.2420 -350.0044 M -121.2420 -350.0044 M -121.2420 -350.0044 L -128.9025 -356.4323 L -138.5617 -359.0204 M -128.9025 -356.4323 M -113.5816 -343.5765 L -121.2420 -350.0044 L -128.9025 -356.4323 L -138.5617 -359.0204 L -148.2210 -361.6086 L -157.8803 -364.1968 M -157.8803 -364.1968 M -157.8803 -364.1968 L -167.5395 -366.7850 L -177.3876 -365.0485 M -167.5395 -366.7850 M -128.9025 -356.4323 L -133.1287 -365.4953 M -133.1287 -365.4953 M -133.1287 -365.4953 L -137.3548 -374.5584 L -145.0153 -380.9863 M -137.3548 -374.5584 M -67.6189 -305.0092 L -67.6189 -315.0092 L -67.6189 -325.0092 L -63.3927 -334.0723 M -63.3927 -334.0723 M -63.3927 -334.0723 L -59.1666 -343.1354 L -59.1666 -353.1354 M -59.1666 -343.1354 M -67.6189 -325.0092 L -67.6189 -335.0092 M -67.6189 -335.0092 M -67.6189 -335.0092 L -67.6189 -345.0092 L -71.8451 -354.0723 M -67.6189 -345.0092 M -67.6189 -325.0092 L -67.6189 -335.0092 L -67.6189 -345.0092 L -71.8451 -354.0723 L -76.0713 -363.1354 L -80.2975 -372.1985 M -80.2975 -372.1985 M -80.2975 -372.1985 L -84.5237 -381.2616 L -92.1841 -387.6894 M -84.5237 -381.2616 M -67.6189 -345.0092 L -63.3927 -354.0723 M -63.3927 -354.0723 M -63.3927 -354.0723 L -59.1666 -363.1354 L -59.1666 -373.1354 M -59.1666 -363.1354 M 0.0000 -160.0000 L 4.2262 -169.0631 L 8.4524 -178.1262 L 12.6785 -187.1892 L 16.9047 -196.2523 L 24.5652 -202.6802 L 32.2256 -209.1081 L 41.8849 -211.6963 M 41.8849 -211.6963 M 41.8849 -211.6963 L 51.5441 -214.2844 L 59.2046 -220.7123 M 51.5441 -214.2844 M 32.2256 -209.1081 L 39.8861 -215.5359 M 39.8861 -215.5359 M 39.8861 -215.5359 L 47.5465 -221.9638 L 51.7727 -231.0269 M 47.5465 -221.9638 M 32.2256 -209.1081 L 39.8861 -215.5359 L 47.5465 -221.9638 L 51.7727 -231.0269 L 55.9989 -240.0900 L 60.2251 -249.1530 M 60.2251 -249.1530 M 60.2251 -249.1530 L 64.4512 -258.2161 L 64.4512 -268.2161 M 64.4512 -258.2161 M 47.5465 -221.9638 L 57.2058 -224.5520 M 57.2058 -224.5520 M 57.2058 -224.5520 L 66.8650 -227.1402 L 74.5255 -233.5681 M 66.8650 -227.1402 M 16.9047 -196.2523 L 21.1309 -205.3154 L 25.3571 -214.3785 L 33.0175 -220.8063 M 33.0175 -220.8063 M 33.0175 -220.8063 L 40.6780 -227.2342 L 44.9042 -236.2973 M 40.6780 -227.2342 M 25.3571 -214.3785 L 29.5833 -223.4415 M 29.5833 -223.4415 M 29.5833 -223.4415 L 33.8095 -232.5046 L 33.8095 -242.5046 M 33.8095 -232.5046 M 25.3571 -214.3785 L 29.5833 -223.4415 L 33.8095 -232.5046 L 33.8095 -242.5046 L 33.8095 -252.5046 L 33.8095 -262.5046 M 33.8095 -262.5046 M 33.8095 -262.5046 L 33.8095 -272.5046 L 29.5833 -281.5677 M 33.8095 -272.5046 M 33.8095 -232.5046 L 41.4699 -238.9325 M 41.4699 -238.9325 M 41.4699 -238.9325 L 49.1303 -245.3604 L 53.3565 -254.4235 M 49.1303 -245.3604 M 16.9047 -196.2523 L 21.1309 -205.3154 L 25.3571 -214.3785 L 29.5833 -223.4415 L 33.8095 -232.5046 L 33.8095 -242.5046 L 33.8095 -252.5046 L 33.8095 -262.5046 L 33.8095 -272.5046 L 33.8095 -282.5046 L 33.8095 -292.5046 L 38.0356 -301.5677 M 38.0356 -301.5677 M 38.0356 -301.5677 L 42.2618 -310.6308 L 42.2618 -320.6308 M 42.2618 -310.6308 M 33.8095 -292.5046 L 33.8095 -302.5046 M 33.8095 -302.5046 M 33.8095 -302.5046 L 33.8095 -312.5046 L 29.5833 -321.5677 M 33.8095 -312.5046 M 33.8095 -292.5046 L 33.8095 -302.5046 L 33.8095 -312.5046 L 29.5833 -321.5677 L 25.3571 -330.6308 L 21.1309 -339.6939 M 21.1309 -339.6939 M 21.1309 -339.6939 L 16.9047 -348.7569 L 9.2443 -355.1848 M 16.9047 -348.7569 M 33.8095 -312.5046 L 38.0356 -321.5677 M 38.0356 -321.5677 M 38.0356 -321.5677 L 42.2618 -330.6308 L 42.2618 -340.6308 M 42.2618 -330.6308 M 33.8095 -232.5046 L 41.4699 -238.9325 L 49.1303 -245.3604 L 58.7896 -247.9486 M 58.7896 -247.9486 M 58.7896 -247.9486 L 68.4489 -250.5368 L 76.1093 -256.9646 M 68.4489 -250.5368 M 49.1303 -245.3604 L 56.7908 -251.7883 M 56.7908 -251.7883 M 56.7908 -251.7883 L 64.4512 -258.2161 L 68.6774 -267.2792 M 64.4512 -258.2161 M 49.1303 -245.3604 L 56.7908 -251.7883 L 64.4512 -258.2161 L 68.6774 -267.2792 L 72.9036 -276.3423 L 77.1298 -285.4054 M 77.1298 -285.4054 M 77.1298 -285.4054 L 81.3560 -294.4684 L 81.3560 -304.4684 M 81.3560 -294.4684 M 64.4512 -258.2161 L 74.1105 -260.8043 M 74.1105 -260.8043 M 74.1105 -260.8043 L 83.7698 -263.3925 L 91.4302 -269.8204 M 83.7698 -263.3925 " stroke-width="1" stroke="black" fill="none"/></svg>
