<svg viewBox="-181.3250343814076 -891.0 325.5414406036851 972.0" xmlns="http://www.w3.org/2000/svg"><path d="M 0 0 L 0.0000 -10.0000 L 4.3366 -19.0108 M 0.0000 -10.0000 L 0.0000 -20.0000 L -4.3366 -29.0108 M 0.0000 -20.0000 L 0.0000 -30.0000 L 4.3366 -39.0108 L 12.1518 -45.2496 M 4.3366 -39.0108 L 8.6732 -48.0215 L 8.6732 -58.0215 M 8.6732 -48.0215 L 13.0098 -57.0323 M 0.0000 -30.0000 L 0.0000 -40.0000 L 4.3366 -49.0108 M 0.0000 -40.0000 L 0.0000 -50.0000 L -4.3366 -59.0108 M 0.0000 -50.0000 L 0.0000 -60.0000 L -4.3366 -69.0108 L -4.3366 -79.0108 M -4.3366 -69.0108 L -8.6732 -78.0215 L -16.4884 -84.2603 M -8.6732 -78.0215 L -13.0098 -87.0323 M 0.0000 -60.0000 L 0.0000 -70.0000 L 4.3366 -79.0108 M 0.0000 -70.0000 L 0.0000 -80.0000 L -4.3366 -89.0108 M 0.0000 -80.0000 L 0.0000 -90.0000 L 4.3366 -99.0108 L 12.1518 -105.2496 M 4.3366 -99.0108 L 8.6732 -108.0215 L 8.6732 -118.0215 M 8.6732 -108.0215 L 13.0098 -117.0323 L 20.8250 -123.2711 L 30.5726 -125.5036 M 20.8250 -123.2711 L 28.6402 -129.5099 L 32.9768 -138.5207 M 28.6402 -129.5099 L 36.4554 -135.7487 M 13.0098 -117.0323 L 17.3464 -126.0431 L 25.1616 -132.2819 M 17.3464 -126.0431 L 21.6830 -135.0539 L 21.6830 -145.0539 M 21.6830 -135.0539 L 26.0195 -144.0646 L 26.0195 -154.0646 L 30.3561 -163.0754 M 26.0195 -154.0646 L 26.0195 -164.0646 L 21.6830 -173.0754 M 26.0195 -164.0646 L 26.0195 -174.0646 M 26.0195 -144.0646 L 30.3561 -153.0754 L 38.1713 -159.3142 M 30.3561 -153.0754 L 34.6927 -162.0862 L 34.6927 -172.0862 M 34.6927 -162.0862 L 39.0293 -171.0969 M 0.0000 -90.0000 L 0.0000 -100.0000 L 4.3366 -109.0108 M 0.0000 -100.0000 L 0.0000 -110.0000 L -4.3366 -119.0108 M 0.0000 -110.0000 L 0.0000 -120.0000 L 4.3366 -129.0108 L 12.1518 -135.2496 M 4.3366 -129.0108 L 8.6732 -138.0215 L 8.6732 -148.0215 M 8.6732 -138.0215 L 13.0098 -147.0323 M 0.0000 -120.0000 L 0.0000 -130.0000 L 4.3366 -139.0108 M 0.0000 -130.0000 L 0.0000 -140.0000 L -4.3366 -149.0108 M 0.0000 -140.0000 L 0.0000 -150.0000 L -4.3366 -159.0108 L -4.3366 -169.0108 M -4.3366 -159.0108 L -8.6732 -168.0215 L -16.4884 -174.2603 M -8.6732 -168.0215 L -13.0098 -177.0323 M 0.0000 -150.0000 L 0.0000 -160.0000 L 4.3366 -169.0108 M 0.0000 -160.0000 L 0.0000 -170.0000 L -4.3366 -179.0108 M 0.0000 -170.0000 L 0.0000 -180.0000 L -4.3366 -189.0108 L -4.3366 -199.0108 M -4.3366 -189.0108 L -8.6732 -198.0215 L -16.4884 -204.2603 M -8.6732 -198.0215 L -13.0098 -207.0323 L -13.0098 -217.0323 L -8.6732 -226.0431 M -13.0098 -217.0323 L -13.0098 -227.0323 L -17.3464 -236.0431 M -13.0098 -227.0323 L -13.0098 -237.0323 M -13.0098 -207.0323 L -17.3464 -216.0431 L -17.3464 -226.0431 M -17.3464 -216.0431 L -21.6830 -225.0539 L -29.4982 -231.2926 M -21.6830 -225.0539 L -26.0195 -234.0646 L -33.8347 -240.3034 L -38.1713 -249.3142 M -33.8347 -240.3034 L -41.6500 -246.5422 L -51.3976 -248.7747 M -41.6500 -246.5422 L -49.4652 -252.7810 M -26.0195 -234.0646 L -30.3561 -243.0754 L -30.3561 -253.0754 M -30.3561 -243.0754 L -34.6927 -252.0862 L -42.5079 -258.3250 M -34.6927 -252.0862 L -39.0293 -261.0969 M 0.0000 -180.0000 L 0.0000 -190.0000 L 4.3366 -199.0108 M 0.0000 -190.0000 L 0.0000 -200.0000 L -4.3366 -209.0108 M 0.0000 -200.0000 L 0.0000 -210.0000 L 4.3366 -219.0108 L 12.1518 -225.2496 M 4.3366 -219.0108 L 8.6732 -228.0215 L 8.6732 -238.0215 M 8.6732 -228.0215 L 13.0098 -237.0323 M 0.0000 -210.0000 L 0.0000 -220.0000 L 4.3366 -229.0108 M 0.0000 -220.0000 L 0.0000 -230.0000 L -4.3366 -239.0108 M 0.0000 -230.0000 L 0.0000 -240.0000 L -4.3366 -249.0108 L -4.3366 -259.0108 M -4.3366 -249.0108 L -8.6732 -258.0215 L -16.4884 -264.2603 M -8.6732 -258.0215 L -13.0098 -267.0323 M 0.0000 -240.0000 L 0.0000 -250.0000 L 4.3366 -259.0108 M 0.0000 -250.0000 L 0.0000 -260.0000 L -4.3366 -269.0108 M 0.0000 -260.0000 L 0.0000 -270.0000 L 4.3366 -279.0108 L 12.1518 -285.2496 M 4.3366 -279.0108 L 8.6732 -288.0215 L 8.6732 -298.0215 M 8.6732 -288.0215 L 13.0098 -297.0323 L 20.8250 -303.2711 L 30.5726 -305.5036 M 20.8250 -303.2711 L 28.6402 -309.5099 L 32.9768 -318.5207 M 28.6402 -309.5099 L 36.4554 -315.7487 M 13.0098 -297.0323 L 17.3464 -306.0431 L 25.1616 -312.2819 M 17.3464 -306.0431 L 21.6830 -315.0539 L 21.6830 -325.0539 M 21.6830 -315.0539 L 26.0195 -324.0646 L 26.0195 -334.0646 L 30.3561 -343.0754 M 26.0195 -334.0646 L 26.0195 -344.0646 L 21.6830 -353.0754 M 26.0195 -344.0646 L 26.0195 -354.0646 M 26.0195 -324.0646 L 30.3561 -333.0754 L 38.1713 -339.3142 M 30.3561 -333.0754 L 34.6927 -342.0862 L 34.6927 -352.0862 M 34.6927 -342.0862 L 39.0293 -351.0969 L 46.8445 -357.3357 L 56.5921 -359.5682 M 46.8445 -357.3357 L 54.6597 -363.5745 L 58.9963 -372.5853 M 54.6597 -363.5745 L 62.4749 -369.8133 L 72.2225 -372.0458 L 81.9740 -369.8303 M 72.2225 -372.0458 L 81.9702 -374.2783 L 89.7854 -380.5171 M 81.9702 -374.2783 L 91.7178 -376.5108 M 62.4749 -369.8133 L 70.2901 -376.0521 L 80.0377 -378.2846 M 70.2901 -376.0521 L 78.1053 -382.2909 L 82.4419 -391.3017 M 78.1053 -382.2909 L 85.9205 -388.5297 L 90.2571 -397.5405 L 98.0723 -403.7793 M 90.2571 -397.5405 L 94.5937 -406.5512 L 94.5937 -416.5512 M 94.5937 -406.5512 L 98.9303 -415.5620 M 85.9205 -388.5297 L 93.7358 -394.7685 L 103.4834 -397.0010 M 93.7358 -394.7685 L 101.5510 -401.0073 L 105.8875 -410.0181 M 101.5510 -401.0073 L 109.3662 -407.2461 M 39.0293 -351.0969 L 43.3659 -360.1077 L 51.1811 -366.3465 M 43.3659 -360.1077 L 47.7025 -369.1185 L 47.7025 -379.1185 M 47.7025 -369.1185 L 52.0391 -378.1292 L 59.8543 -384.3680 L 69.6019 -386.6005 M 59.8543 -384.3680 L 67.6695 -390.6068 L 72.0061 -399.6176 M 67.6695 -390.6068 L 75.4847 -396.8456 M 52.0391 -378.1292 L 56.3757 -387.1400 L 64.1909 -393.3788 M 56.3757 -387.1400 L 60.7123 -396.1508 L 60.7123 -406.1508 M 60.7123 -396.1508 L 65.0489 -405.1616 L 65.0489 -415.1616 L 69.3855 -424.1723 M 65.0489 -415.1616 L 65.0489 -425.1616 L 60.7123 -434.1723 M 65.0489 -425.1616 L 65.0489 -435.1616 M 65.0489 -405.1616 L 69.3855 -414.1723 L 77.2007 -420.4111 M 69.3855 -414.1723 L 73.7220 -423.1831 L 73.7220 -433.1831 M 73.7220 -423.1831 L 78.0586 -432.1939 L 78.0586 -442.1939 L 82.3952 -451.2046 M 78.0586 -442.1939 L 78.0586 -452.1939 L 73.7220 -461.2046 M 78.0586 -452.1939 L 78.0586 -462.1939 L 82.3952 -471.2046 L 90.2104 -477.4434 M 82.3952 -471.2046 L 86.7318 -480.2154 L 86.7318 -490.2154 M 86.7318 -480.2154 L 91.0684 -489.2262 M 78.0586 -462.1939 L 78.0586 -472.1939 L 82.3952 -481.2046 M 78.0586 -472.1939 L 78.0586 -482.1939 L 73.7220 -491.2046 M 78.0586 -482.1939 L 78.0586 -492.1939 L 73.7220 -501.2046 L 73.7220 -511.2046 M 73.7220 -501.2046 L 69.3855 -510.2154 L 61.5702 -516.4542 M 69.3855 -510.2154 L 65.0489 -519.2262 M 78.0586 -492.1939 L 78.0586 -502.1939 L 82.3952 -511.2046 M 78.0586 -502.1939 L 78.0586 -512.1939 L 73.7220 -521.2046 M 78.0586 -512.1939 L 78.0586 -522.1939 M 78.0586 -432.1939 L 82.3952 -441.2046 L 90.2104 -447.4434 M 82.3952 -441.2046 L 86.7318 -450.2154 L 86.7318 -460.2154 M 86.7318 -450.2154 L 91.0684 -459.2262 L 98.8836 -465.4650 L 108.6312 -467.6975 M 98.8836 -465.4650 L 106.6988 -471.7038 L 111.0354 -480.7145 M 106.6988 -471.7038 L 114.5140 -477.9426 M 91.0684 -459.2262 L 95.4050 -468.2369 L 103.2202 -474.4757 M 95.4050 -468.2369 L 99.7416 -477.2477 L 99.7416 -487.2477 M 99.7416 -477.2477 L 104.0782 -486.2585 L 104.0782 -496.2585 L 108.4148 -505.2693 M 104.0782 -496.2585 L 104.0782 -506.2585 L 99.7416 -515.2693 M 104.0782 -506.2585 L 104.0782 -516.2585 M 104.0782 -486.2585 L 108.4148 -495.2693 L 116.2300 -501.5081 M 108.4148 -495.2693 L 112.7514 -504.2800 L 112.7514 -514.2800 M 112.7514 -504.2800 L 117.0880 -513.2908 M 0.0000 -270.0000 L 0.0000 -280.0000 L 4.3366 -289.0108 M 0.0000 -280.0000 L 0.0000 -290.0000 L -4.3366 -299.0108 M 0.0000 -290.0000 L 0.0000 -300.0000 L 4.3366 -309.0108 L 12.1518 -315.2496 M 4.3366 -309.0108 L 8.6732 -318.0215 L 8.6732 -328.0215 M 8.6732 -318.0215 L 13.0098 -327.0323 M 0.0000 -300.0000 L 0.0000 -310.0000 L 4.3366 -319.0108 M 0.0000 -310.0000 L 0.0000 -320.0000 L -4.3366 -329.0108 M 0.0000 -320.0000 L 0.0000 -330.0000 L -4.3366 -339.0108 L -4.3366 -349.0108 M -4.3366 -339.0108 L -8.6732 -348.0215 L -16.4884 -354.2603 M -8.6732 -348.0215 L -13.0098 -357.0323 M 0.0000 -330.0000 L 0.0000 -340.0000 L 4.3366 -349.0108 M 0.0000 -340.0000 L 0.0000 -350.0000 L -4.3366 -359.0108 M 0.0000 -350.0000 L 0.0000 -360.0000 L 4.3366 -369.0108 L 12.1518 -375.2496 M 4.3366 -369.0108 L 8.6732 -378.0215 L 8.6732 -388.0215 M 8.6732 -378.0215 L 13.0098 -387.0323 L 20.8250 -393.2711 L 30.5726 -395.5036 M 20.8250 -393.2711 L 28.6402 -399.5099 L 32.9768 -408.5207 M 28.6402 -399.5099 L 36.4554 -405.7487 M 13.0098 -387.0323 L 17.3464 -396.0431 L 25.1616 -402.2819 M 17.3464 -396.0431 L 21.6830 -405.0539 L 21.6830 -415.0539 M 21.6830 -405.0539 L 26.0195 -414.0646 L 26.0195 -424.0646 L 30.3561 -433.0754 M 26.0195 -424.0646 L 26.0195 -434.0646 L 21.6830 -443.0754 M 26.0195 -434.0646 L 26.0195 -444.0646 M 26.0195 -414.0646 L 30.3561 -423.0754 L 38.1713 -429.3142 M 30.3561 -423.0754 L 34.6927 -432.0862 L 34.6927 -442.0862 M 34.6927 -432.0862 L 39.0293 -441.0969 M 0.0000 -360.0000 L 0.0000 -370.0000 L 4.3366 -379.0108 M 0.0000 -370.0000 L 0.0000 -380.0000 L -4.3366 -389.0108 M 0.0000 -380.0000 L 0.0000 -390.0000 L 4.3366 -399.0108 L 12.1518 -405.2496 M 4.3366 -399.0108 L 8.6732 -408.0215 L 8.6732 -418.0215 M 8.6732 -408.0215 L 13.0098 -417.0323 M 0.0000 -390.0000 L 0.0000 -400.0000 L 4.3366 -409.0108 M 0.0000 -400.0000 L 0.0000 -410.0000 L -4.3366 -419.0108 M 0.0000 -410.0000 L 0.0000 -420.0000 L -4.3366 -429.0108 L -4.3366 -439.0108 M -4.3366 -429.0108 L -8.6732 -438.0215 L -16.4884 -444.2603 M -8.6732 -438.0215 L -13.0098 -447.0323 M 0.0000 -420.0000 L 0.0000 -430.0000 L 4.3366 -439.0108 M 0.0000 -430.0000 L 0.0000 -440.0000 L -4.3366 -449.0108 M 0.0000 -440.0000 L 0.0000 -450.0000 L -4.3366 -459.0108 L -4.3366 -469.0108 M -4.3366 -459.0108 L -8.6732 -468.0215 L -16.4884 -474.2603 M -8.6732 -468.0215 L -13.0098 -477.0323 L -13.0098 -487.0323 L -8.6732 -496.0431 M -13.0098 -487.0323 L -13.0098 -497.0323 L -17.3464 -506.0431 M -13.0098 -497.0323 L -13.0098 -507.0323 M -13.0098 -477.0323 L -17.3464 -486.0431 L -17.3464 -496.0431 M -17.3464 -486.0431 L -21.6830 -495.0539 L -29.4982 -501.2926 M -21.6830 -495.0539 L -26.0195 -504.0646 L -33.8347 -510.3034 L -38.1713 -519.3142 M -33.8347 -510.3034 L -41.6500 -516.5422 L -51.3976 -518.7747 M -41.6500 -516.5422 L -49.4652 -522.7810 M -26.0195 -504.0646 L -30.3561 -513.0754 L -30.3561 -523.0754 M -30.3561 -513.0754 L -34.6927 -522.0862 L -42.5079 -528.3250 M -34.6927 -522.0862 L -39.0293 -531.0969 M 0.0000 -450.0000 L 0.0000 -460.0000 L 4.3366 -469.0108 M 0.0000 -460.0000 L 0.0000 -470.0000 L -4.3366 -479.0108 M 0.0000 -470.0000 L 0.0000 -480.0000 L 4.3366 -489.0108 L 12.1518 -495.2496 M 4.3366 -489.0108 L 8.6732 -498.0215 L 8.6732 -508.0215 M 8.6732 -498.0215 L 13.0098 -507.0323 M 0.0000 -480.0000 L 0.0000 -490.0000 L 4.3366 -499.0108 M 0.0000 -490.0000 L 0.0000 -500.0000 L -4.3366 -509.0108 M 0.0000 -500.0000 L 0.0000 -510.0000 L -4.3366 -519.0108 L -4.3366 -529.0108 M -4.3366 -519.0108 L -8.6732 -528.0215 L -16.4884 -534.2603 M -8.6732 -528.0215 L -13.0098 -537.0323 M 0.0000 -510.0000 L 0.0000 -520.0000 L 4.3366 -529.0108 M 0.0000 -520.0000 L 0.0000 -530.0000 L -4.3366 -539.0108 M 0.0000 -530.0000 L 0.0000 -540.0000 L -4.3366 -549.0108 L -4.3366 -559.0108 M -4.3366 -549.0108 L -8.6732 -558.0215 L -16.4884 -564.2603 M -8.6732 -558.0215 L -13.0098 -567.0323 L -13.0098 -577.0323 L -8.6732 -586.0431 M -13.0098 -577.0323 L -13.0098 -587.0323 L -17.3464 -596.0431 M -13.0098 -587.0323 L -13.0098 -597.0323 M -13.0098 -567.0323 L -17.3464 -576.0431 L -17.3464 -586.0431 M -17.3464 -576.0431 L -21.6830 -585.0539 L -29.4982 -591.2926 M -21.6830 -585.0539 L -26.0195 -594.0646 L -33.8347 -600.3034 L -38.1713 -609.3142 M -33.8347 -600.3034 L -41.6500 -606.5422 L -51.3976 -608.7747 M -41.6500 -606.5422 L -49.4652 -612.7810 M -26.0195 -594.0646 L -30.3561 -603.0754 L -30.3561 -613.0754 M -30.3561 -603.0754 L -34.6927 -612.0862 L -42.5079 -618.3250 M -34.6927 -612.0862 L -39.0293 -621.0969 L -39.0293 -631.0969 L -34.6927 -640.1077 M -39.0293 -631.0969 L -39.0293 -641.0969 L -43.3659 -650.1077 M -39.0293 -641.0969 L -39.0293 -651.0969 L -34.6927 -660.1077 L -26.8775 -666.3465 M -34.6927 -660.1077 L -30.3561 -669.1185 L -30.3561 -679.1185 M -30.3561 -669.1185 L -26.0195 -678.1292 M -39.0293 -651.0969 L -39.0293 -661.0969 L -34.6927 -670.1077 M -39.0293 -661.0969 L -39.0293 -671.0969 L -43.3659 -680.1077 M -39.0293 -671.0969 L -39.0293 -681.0969 L -43.3659 -690.1077 L -43.3659 -700.1077 M -43.3659 -690.1077 L -47.7025 -699.1185 L -55.5177 -705.3573 M -47.7025 -699.1185 L -52.0391 -708.1292 M -39.0293 -681.0969 L -39.0293 -691.0969 L -34.6927 -700.1077 M -39.0293 -691.0969 L -39.0293 -701.0969 L -43.3659 -710.1077 M -39.0293 -701.0969 L -39.0293 -711.0969 M -39.0293 -621.0969 L -43.3659 -630.1077 L -43.3659 -640.1077 M -43.3659 -630.1077 L -47.7025 -639.1185 L -55.5177 -645.3573 M -47.7025 -639.1185 L -52.0391 -648.1292 L -52.0391 -658.1292 L -47.7025 -667.1400 M -52.0391 -658.1292 L -52.0391 -668.1292 L -56.3757 -677.1400 M -52.0391 -668.1292 L -52.0391 -678.1292 M -52.0391 -648.1292 L -56.3757 -657.1400 L -56.3757 -667.1400 M -56.3757 -657.1400 L -60.7123 -666.1508 L -68.5275 -672.3896 M -60.7123 -666.1508 L -65.0489 -675.1616 L -72.8641 -681.4003 L -77.2007 -690.4111 M -72.8641 -681.4003 L -80.6793 -687.6391 L -90.4269 -689.8716 M -80.6793 -687.6391 L -88.4945 -693.8779 M -65.0489 -675.1616 L -69.3855 -684.1723 L -69.3855 -694.1723 M -69.3855 -684.1723 L -73.7220 -693.1831 L -81.5372 -699.4219 M -73.7220 -693.1831 L -78.0586 -702.1939 L -85.8738 -708.4327 L -90.2104 -717.4434 M -85.8738 -708.4327 L -93.6890 -714.6715 L -103.4367 -716.9040 M -93.6890 -714.6715 L -101.5042 -720.9103 L -105.8408 -729.9210 L -105.8408 -739.9210 M -105.8408 -729.9210 L -110.1774 -738.9318 L -117.9926 -745.1706 M -110.1774 -738.9318 L -114.5140 -747.9426 M -101.5042 -720.9103 L -109.3195 -727.1490 L -113.6560 -736.1598 M -109.3195 -727.1490 L -117.1347 -733.3878 L -126.8823 -735.6203 M -117.1347 -733.3878 L -124.9499 -739.6266 L -134.6975 -741.8591 L -142.5127 -748.0979 M -134.6975 -741.8591 L -144.4451 -744.0916 L -154.1966 -741.8762 M -144.4451 -744.0916 L -154.1927 -746.3241 M -124.9499 -739.6266 L -132.7651 -745.8654 L -137.1017 -754.8762 M -132.7651 -745.8654 L -140.5803 -752.1042 L -150.3279 -754.3367 M -140.5803 -752.1042 L -148.3955 -758.3430 M -78.0586 -702.1939 L -82.3952 -711.2046 L -82.3952 -721.2046 M -82.3952 -711.2046 L -86.7318 -720.2154 L -94.5470 -726.4542 M -86.7318 -720.2154 L -91.0684 -729.2262 L -91.0684 -739.2262 L -86.7318 -748.2369 M -91.0684 -739.2262 L -91.0684 -749.2262 L -95.4050 -758.2369 M -91.0684 -749.2262 L -91.0684 -759.2262 M -91.0684 -729.2262 L -95.4050 -738.2369 L -95.4050 -748.2369 M -95.4050 -738.2369 L -99.7416 -747.2477 L -107.5568 -753.4865 M -99.7416 -747.2477 L -104.0782 -756.2585 L -111.8934 -762.4973 L -116.2300 -771.5081 M -111.8934 -762.4973 L -119.7086 -768.7361 L -129.4562 -770.9686 M -119.7086 -768.7361 L -127.5238 -774.9749 M -104.0782 -756.2585 L -108.4148 -765.2693 L -108.4148 -775.2693 M -108.4148 -765.2693 L -112.7514 -774.2800 L -120.5666 -780.5188 M -112.7514 -774.2800 L -117.0880 -783.2908 M 0.0000 -540.0000 L 0.0000 -550.0000 L 4.3366 -559.0108 M 0.0000 -550.0000 L 0.0000 -560.0000 L -4.3366 -569.0108 M 0.0000 -560.0000 L 0.0000 -570.0000 L 4.3366 -579.0108 L 12.1518 -585.2496 M 4.3366 -579.0108 L 8.6732 -588.0215 L 8.6732 -598.0215 M 8.6732 -588.0215 L 13.0098 -597.0323 M 0.0000 -570.0000 L 0.0000 -580.0000 L 4.3366 -589.0108 M 0.0000 -580.0000 L 0.0000 -590.0000 L -4.3366 -599.0108 M 0.0000 -590.0000 L 0.0000 -600.0000 L -4.3366 -609.0108 L -4.3366 -619.0108 M -4.3366 -609.0108 L -8.6732 -618.0215 L -16.4884 -624.2603 M -8.6732 -618.0215 L -13.0098 -627.0323 M 0.0000 -600.0000 L 0.0000 -610.0000 L 4.3366 -619.0108 M 0.0000 -610.0000 L 0.0000 -620.0000 L -4.3366 -629.0108 M 0.0000 -620.0000 L 0.0000 -630.0000 L 4.3366 -639.0108 L 12.1518 -645.2496 M 4.3366 -639.0108 L 8.6732 -648.0215 L 8.6732 -658.0215 M 8.6732 -648.0215 L 13.0098 -657.0323 L 20.8250 -663.2711 L 30.5726 -665.5036 M 20.8250 -663.2711 L 28.6402 -669.5099 L 32.9768 -678.5207 M 28.6402 -669.5099 L 36.4554 -675.7487 M 13.0098 -657.0323 L 17.3464 -666.0431 L 25.1616 -672.2819 M 17.3464 -666.0431 L 21.6830 -675.0539 L 21.6830 -685.0539 M 21.6830 -675.0539 L 26.0195 -684.0646 L 26.0195 -694.0646 L 30.3561 -703.0754 M 26.0195 -694.0646 L 26.0195 -704.0646 L 21.6830 -713.0754 M 26.0195 -704.0646 L 26.0195 -714.0646 M 26.0195 -684.0646 L 30.3561 -693.0754 L 38.1713 -699.3142 M 30.3561 -693.0754 L 34.6927 -702.0862 L 34.6927 -712.0862 M 34.6927 -702.0862 L 39.0293 -711.0969 M 0.0000 -630.0000 L 0.0000 -640.0000 L 4.3366 -649.0108 M 0.0000 -640.0000 L 0.0000 -650.0000 L -4.3366 -659.0108 M 0.0000 -650.0000 L 0.0000 -660.0000 L 4.3366 -669.0108 L 12.1518 -675.2496 M 4.3366 -669.0108 L 8.6732 -678.0215 L 8.6732 -688.0215 M 8.6732 -678.0215 L 13.0098 -687.0323 M 0.0000 -660.0000 L 0.0000 -670.0000 L 4.3366 -679.0108 M 0.0000 -670.0000 L 0.0000 -680.0000 L -4.3366 -689.0108 M 0.0000 -680.0000 L 0.0000 -690.0000 L -4.3366 -699.0108 L -4.3366 -709.0108 M -4.3366 -699.0108 L -8.6732 -708.0215 L -16.4884 -714.2603 M -8.6732 -708.0215 L -13.0098 -717.0323 M 0.0000 -690.0000 L 0.0000 -700.0000 L 4.3366 -709.0108 M 0.0000 -700.0000 L 0.0000 -710.0000 L -4.3366 -719.0108 M 0.0000 -710.0000 L 0.0000 -720.0000 L -4.3366 -729.0108 L -4.3366 -739.0108 M -4.3366 -729.0108 L -8.6732 -738.0215 L -16.4884 -744.2603 M -8.6732 -738.0215 L -13.0098 -747.0323 L -13.0098 -757.0323 L -8.6732 -766.0431 M -13.0098 -757.0323 L -13.0098 -767.0323 L -17.3464 -776.0431 M -13.0098 -767.0323 L -13.0098 -777.0323 M -13.0098 -747.0323 L -17.3464 -756.0431 L -17.3464 -766.0431 M -17.3464 -756.0431 L -21.6830 -765.0539 L -29.4982 -771.2926 M -21.6830 -765.0539 L -26.0195 -774.0646 L -33.8347 -780.3034 L -38.1713 -789.3142 M -33.8347 -780.3034 L -41.6500 -786.5422 L -51.3976 -788.7747 M -41.6500 -786.5422 L -49.4652 -792.7810 M -26.0195 -774.0646 L -30.3561 -783.0754 L -30.3561 -793.0754 M -30.3561 -783.0754 L -34.6927 -792.0862 L -42.5079 -798.3250 M -34.6927 -792.0862 L -39.0293 -801.0969 M 0.0000 -720.0000 L 0.0000 -730.0000 L 4.3366 -739.0108 M 0.0000 -730.0000 L 0.0000 -740.0000 L -4.3366 -749.0108 M 0.0000 -740.0000 L 0.0000 -750.0000 L 4.3366 -759.0108 L 12.1518 -765.2496 M 4.3366 -759.0108 L 8.6732 -768.0215 L 8.6732 -778.0215 M 8.6732 -768.0215 L 13.0098 -777.0323 M 0.0000 -750.0000 L 0.0000 -760.0000 L 4.3366 -769.0108 M 0.0000 -760.0000 L 0.0000 -770.0000 L -4.3366 -779.0108 M 0.0000 -770.0000 L 0.0000 -780.0000 L -4.3366 -789.0108 L -4.3366 -799.0108 M -4.3366 -789.0108 L -8.6732 -798.0215 L -16.4884 -804.2603 M -8.6732 -798.0215 L -13.0098 -807.0323 M 0.0000 -780.0000 L 0.0000 -790.0000 L 4.3366 -799.0108 M 0.0000 -790.0000 L 0.0000 -800.0000 L -4.3366 -809.0108 M 0.0000 -800.0000 L 0.0000 -810.0000 " stroke-width="1" stroke="black" fill="none"/></svg>
