<svg viewBox="-53.69357503463502 -252.0 644.3229004156201 684.0" xmlns="http://www.w3.org/2000/svg"><path d="M 0 0 L 8.6603 -5.0000 L 8.6603 5.0000 L 17.3205 10.0000 L 17.3205 -0.0000 L 17.3205 -10.0000 L 8.6603 -15.0000 L 8.6603 -25.0000 L 17.3205 -30.0000 L 25.9808 -35.0000 L 25.9808 -25.0000 L 17.3205 -20.0000 L 25.9808 -15.0000 L 34.6410 -20.0000 L 43.3013 -15.0000 L 43.3013 -5.0000 L 43.3013 5.0000 L 34.6410 -0.0000 L 34.6410 -10.0000 L 25.9808 -5.0000 L 25.9808 5.0000 L 34.6410 10.0000 L 34.6410 20.0000 L 25.9808 15.0000 L 17.3205 20.0000 L 25.9808 25.0000 L 34.6410 30.0000 L 43.3013 25.0000 L 43.3013 15.0000 L 51.9615 10.0000 L 51.9615 20.0000 L 60.6218 25.0000 L 60.6218 15.0000 L 60.6218 5.0000 L 51.9615 0.0000 L 51.9615 -10.0000 L 60.6218 -15.0000 L 60.6218 -5.0000 L 69.2820 0.0000 L 69.2820 -10.0000 L 69.2820 -20.0000 L 60.6218 -25.0000 L 51.9615 -20.0000 L 43.3013 -25.0000 L 34.6410 -30.0000 L 43.3013 -35.0000 L 51.9615 -30.0000 L 51.9615 -40.0000 L 43.3013 -45.0000 L 43.3013 -55.0000 L 51.9615 -60.0000 L 51.9615 -50.0000 L 60.6218 -45.0000 L 60.6218 -55.0000 L 60.6218 -65.0000 L 51.9615 -70.0000 L 51.9615 -80.0000 L 60.6218 -85.0000 L 69.2820 -90.0000 L 69.2820 -80.0000 L 60.6218 -75.0000 L 69.2820 -70.0000 L 77.9423 -75.0000 L 77.9423 -85.0000 L 86.6025 -90.0000 L 95.2628 -95.0000 L 95.2628 -85.0000 L 86.6025 -80.0000 L 95.2628 -75.0000 L 103.9230 -80.0000 L 112.5833 -75.0000 L 112.5833 -65.0000 L 112.5833 -55.0000 L 103.9230 -60.0000 L 103.9230 -70.0000 L 95.2628 -65.0000 L 95.2628 -55.0000 L 86.6025 -50.0000 L 77.9423 -55.0000 L 86.6025 -60.0000 L 86.6025 -70.0000 L 77.9423 -65.0000 L 69.2820 -60.0000 L 69.2820 -50.0000 L 77.9423 -45.0000 L 77.9423 -35.0000 L 69.2820 -40.0000 L 60.6218 -35.0000 L 69.2820 -30.0000 L 77.9423 -25.0000 L 86.6025 -30.0000 L 86.6025 -40.0000 L 95.2628 -45.0000 L 103.9230 -50.0000 L 103.9230 -40.0000 L 95.2628 -35.0000 L 103.9230 -30.0000 L 112.5833 -35.0000 L 121.2436 -30.0000 L 121.2436 -20.0000 L 112.5833 -25.0000 L 103.9230 -20.0000 L 112.5833 -15.0000 L 121.2436 -10.0000 L 129.9038 -15.0000 L 138.5641 -10.0000 L 138.5641 0.0000 L 138.5641 10.0000 L 129.9038 5.0000 L 129.9038 -5.0000 L 121.2436 0.0000 L 121.2436 10.0000 L 129.9038 15.0000 L 129.9038 25.0000 L 129.9038 35.0000 L 121.2436 30.0000 L 121.2436 20.0000 L 112.5833 25.0000 L 112.5833 35.0000 L 103.9230 40.0000 L 95.2628 35.0000 L 86.6025 30.0000 L 95.2628 25.0000 L 103.9230 30.0000 L 103.9230 20.0000 L 95.2628 15.0000 L 95.2628 5.0000 L 103.9230 0.0000 L 103.9230 10.0000 L 112.5833 15.0000 L 112.5833 5.0000 L 112.5833 -5.0000 L 103.9230 -10.0000 L 95.2628 -5.0000 L 86.6025 -10.0000 L 95.2628 -15.0000 L 95.2628 -25.0000 L 86.6025 -20.0000 L 77.9423 -15.0000 L 77.9423 -5.0000 L 86.6025 0.0000 L 86.6025 10.0000 L 86.6025 20.0000 L 77.9423 15.0000 L 77.9423 5.0000 L 69.2820 10.0000 L 69.2820 20.0000 L 77.9423 25.0000 L 77.9423 35.0000 L 69.2820 30.0000 L 60.6218 35.0000 L 69.2820 40.0000 L 77.9423 45.0000 L 86.6025 40.0000 L 95.2628 45.0000 L 95.2628 55.0000 L 95.2628 65.0000 L 86.6025 60.0000 L 86.6025 50.0000 L 77.9423 55.0000 L 77.9423 65.0000 L 69.2820 70.0000 L 60.6218 65.0000 L 51.9615 60.0000 L 60.6218 55.0000 L 69.2820 60.0000 L 69.2820 50.0000 L 60.6218 45.0000 L 51.9615 50.0000 L 43.3013 45.0000 L 51.9615 40.0000 L 51.9615 30.0000 L 43.3013 35.0000 L 34.6410 40.0000 L 34.6410 50.0000 L 43.3013 55.0000 L 43.3013 65.0000 L 34.6410 60.0000 L 25.9808 65.0000 L 34.6410 70.0000 L 43.3013 75.0000 L 51.9615 70.0000 L 60.6218 75.0000 L 60.6218 85.0000 L 51.9615 80.0000 L 43.3013 85.0000 L 51.9615 90.0000 L 60.6218 95.0000 L 69.2820 90.0000 L 69.2820 80.0000 L 77.9423 75.0000 L 86.6025 70.0000 L 86.6025 80.0000 L 77.9423 85.0000 L 86.6025 90.0000 L 95.2628 85.0000 L 95.2628 75.0000 L 103.9230 70.0000 L 103.9230 80.0000 L 112.5833 85.0000 L 112.5833 75.0000 L 112.5833 65.0000 L 103.9230 60.0000 L 103.9230 50.0000 L 112.5833 45.0000 L 121.2436 40.0000 L 121.2436 50.0000 L 112.5833 55.0000 L 121.2436 60.0000 L 129.9038 55.0000 L 138.5641 60.0000 L 138.5641 70.0000 L 138.5641 80.0000 L 129.9038 75.0000 L 129.9038 65.0000 L 121.2436 70.0000 L 121.2436 80.0000 L 129.9038 85.0000 L 129.9038 95.0000 L 121.2436 90.0000 L 112.5833 95.0000 L 121.2436 100.0000 L 129.9038 105.0000 L 138.5641 100.0000 L 138.5641 90.0000 L 147.2243 85.0000 L 147.2243 95.0000 L 155.8846 100.0000 L 155.8846 90.0000 L 155.8846 80.0000 L 147.2243 75.0000 L 147.2243 65.0000 L 155.8846 60.0000 L 155.8846 70.0000 L 164.5448 75.0000 L 164.5448 65.0000 L 164.5448 55.0000 L 155.8846 50.0000 L 147.2243 55.0000 L 138.5641 50.0000 L 129.9038 45.0000 L 138.5641 40.0000 L 147.2243 45.0000 L 147.2243 35.0000 L 138.5641 30.0000 L 138.5641 20.0000 L 147.2243 15.0000 L 147.2243 25.0000 L 155.8846 30.0000 L 155.8846 20.0000 L 155.8846 10.0000 L 147.2243 5.0000 L 147.2243 -5.0000 L 155.8846 -10.0000 L 164.5448 -15.0000 L 164.5448 -5.0000 L 155.8846 0.0000 L 164.5448 5.0000 L 173.2051 0.0000 L 181.8653 5.0000 L 181.8653 15.0000 L 181.8653 25.0000 L 173.2051 20.0000 L 173.2051 10.0000 L 164.5448 15.0000 L 164.5448 25.0000 L 173.2051 30.0000 L 173.2051 40.0000 L 164.5448 35.0000 L 155.8846 40.0000 L 164.5448 45.0000 L 173.2051 50.0000 L 181.8653 45.0000 L 181.8653 35.0000 L 190.5256 30.0000 L 190.5256 40.0000 L 199.1858 45.0000 L 199.1858 35.0000 L 199.1858 25.0000 L 190.5256 20.0000 L 190.5256 10.0000 L 199.1858 5.0000 L 199.1858 15.0000 L 207.8461 20.0000 L 207.8461 10.0000 L 207.8461 0.0000 L 199.1858 -5.0000 L 190.5256 0.0000 L 181.8653 -5.0000 L 173.2051 -10.0000 L 181.8653 -15.0000 L 190.5256 -10.0000 L 190.5256 -20.0000 L 181.8653 -25.0000 L 173.2051 -20.0000 L 164.5448 -25.0000 L 173.2051 -30.0000 L 173.2051 -40.0000 L 164.5448 -35.0000 L 155.8846 -30.0000 L 155.8846 -20.0000 L 147.2243 -15.0000 L 138.5641 -20.0000 L 129.9038 -25.0000 L 138.5641 -30.0000 L 147.2243 -25.0000 L 147.2243 -35.0000 L 138.5641 -40.0000 L 129.9038 -35.0000 L 121.2436 -40.0000 L 112.5833 -45.0000 L 121.2436 -50.0000 L 129.9038 -45.0000 L 129.9038 -55.0000 L 121.2436 -60.0000 L 121.2436 -70.0000 L 129.9038 -75.0000 L 138.5641 -80.0000 L 138.5641 -70.0000 L 129.9038 -65.0000 L 138.5641 -60.0000 L 147.2243 -65.0000 L 155.8846 -60.0000 L 155.8846 -50.0000 L 147.2243 -55.0000 L 138.5641 -50.0000 L 147.2243 -45.0000 L 155.8846 -40.0000 L 164.5448 -45.0000 L 164.5448 -55.0000 L 173.2051 -60.0000 L 173.2051 -50.0000 L 181.8653 -45.0000 L 181.8653 -55.0000 L 181.8653 -65.0000 L 173.2051 -70.0000 L 164.5448 -65.0000 L 155.8846 -70.0000 L 147.2243 -75.0000 L 155.8846 -80.0000 L 164.5448 -75.0000 L 164.5448 -85.0000 L 155.8846 -90.0000 L 155.8846 -100.0000 L 164.5448 -105.0000 L 164.5448 -95.0000 L 173.2051 -90.0000 L 173.2051 -100.0000 L 173.2051 -110.0000 L 164.5448 -115.0000 L 164.5448 -125.0000 L 173.2051 -130.0000 L 181.8653 -135.0000 L 181.8653 -125.0000 L 173.2051 -120.0000 L 181.8653 -115.0000 L 190.5256 -120.0000 L 199.1858 -115.0000 L 199.1858 -105.0000 L 199.1858 -95.0000 L 190.5256 -100.0000 L 190.5256 -110.0000 L 181.8653 -105.0000 L 181.8653 -95.0000 L 190.5256 -90.0000 L 190.5256 -80.0000 L 181.8653 -85.0000 L 173.2051 -80.0000 L 181.8653 -75.0000 L 190.5256 -70.0000 L 199.1858 -75.0000 L 199.1858 -85.0000 L 207.8461 -90.0000 L 207.8461 -80.0000 L 216.5064 -75.0000 L 216.5064 -85.0000 L 216.5064 -95.0000 L 207.8461 -100.0000 L 207.8461 -110.0000 L 216.5064 -115.0000 L 216.5064 -105.0000 L 225.1666 -100.0000 L 225.1666 -110.0000 L 225.1666 -120.0000 L 216.5064 -125.0000 L 207.8461 -120.0000 L 199.1858 -125.0000 L 190.5256 -130.0000 L 199.1858 -135.0000 L 207.8461 -130.0000 L 207.8461 -140.0000 L 199.1858 -145.0000 L 199.1858 -155.0000 L 207.8461 -160.0000 L 207.8461 -150.0000 L 216.5064 -145.0000 L 216.5064 -155.0000 L 216.5064 -165.0000 L 207.8461 -170.0000 L 207.8461 -180.0000 L 216.5064 -185.0000 L 225.1666 -190.0000 L 225.1666 -180.0000 L 216.5064 -175.0000 L 225.1666 -170.0000 L 233.8269 -175.0000 L 233.8269 -185.0000 L 242.4871 -190.0000 L 251.1474 -195.0000 L 251.1474 -185.0000 L 242.4871 -180.0000 L 251.1474 -175.0000 L 259.8076 -180.0000 L 268.4679 -175.0000 L 268.4679 -165.0000 L 268.4679 -155.0000 L 259.8076 -160.0000 L 259.8076 -170.0000 L 251.1474 -165.0000 L 251.1474 -155.0000 L 242.4871 -150.0000 L 233.8269 -155.0000 L 242.4871 -160.0000 L 242.4871 -170.0000 L 233.8269 -165.0000 L 225.1666 -160.0000 L 225.1666 -150.0000 L 233.8269 -145.0000 L 233.8269 -135.0000 L 225.1666 -140.0000 L 216.5064 -135.0000 L 225.1666 -130.0000 L 233.8269 -125.0000 L 242.4871 -130.0000 L 242.4871 -140.0000 L 251.1474 -145.0000 L 259.8076 -150.0000 L 259.8076 -140.0000 L 251.1474 -135.0000 L 259.8076 -130.0000 L 268.4679 -135.0000 L 268.4679 -145.0000 L 277.1281 -150.0000 L 277.1281 -140.0000 L 285.7884 -135.0000 L 285.7884 -145.0000 L 285.7884 -155.0000 L 277.1281 -160.0000 L 277.1281 -170.0000 L 285.7884 -175.0000 L 294.4486 -180.0000 L 294.4486 -170.0000 L 285.7884 -165.0000 L 294.4486 -160.0000 L 303.1089 -165.0000 L 303.1089 -175.0000 L 311.7691 -180.0000 L 320.4294 -185.0000 L 320.4294 -175.0000 L 311.7691 -170.0000 L 320.4294 -165.0000 L 329.0897 -170.0000 L 337.7499 -165.0000 L 337.7499 -155.0000 L 337.7499 -145.0000 L 329.0897 -150.0000 L 329.0897 -160.0000 L 320.4294 -155.0000 L 320.4294 -145.0000 L 311.7691 -140.0000 L 303.1089 -145.0000 L 311.7691 -150.0000 L 311.7691 -160.0000 L 303.1089 -155.0000 L 294.4486 -150.0000 L 294.4486 -140.0000 L 303.1089 -135.0000 L 303.1089 -125.0000 L 294.4486 -130.0000 L 285.7884 -125.0000 L 294.4486 -120.0000 L 303.1089 -115.0000 L 311.7691 -120.0000 L 311.7691 -130.0000 L 320.4294 -135.0000 L 329.0897 -140.0000 L 329.0897 -130.0000 L 320.4294 -125.0000 L 329.0897 -120.0000 L 337.7499 -125.0000 L 346.4102 -120.0000 L 346.4102 -110.0000 L 337.7499 -115.0000 L 329.0897 -110.0000 L 337.7499 -105.0000 L 346.4102 -100.0000 L 355.0704 -105.0000 L 363.7307 -100.0000 L 363.7307 -90.0000 L 363.7307 -80.0000 L 355.0704 -85.0000 L 355.0704 -95.0000 L 346.4102 -90.0000 L 346.4102 -80.0000 L 355.0704 -75.0000 L 355.0704 -65.0000 L 355.0704 -55.0000 L 346.4102 -60.0000 L 346.4102 -70.0000 L 337.7499 -65.0000 L 337.7499 -55.0000 L 329.0897 -50.0000 L 320.4294 -55.0000 L 311.7691 -60.0000 L 320.4294 -65.0000 L 329.0897 -60.0000 L 329.0897 -70.0000 L 320.4294 -75.0000 L 320.4294 -85.0000 L 329.0897 -90.0000 L 329.0897 -80.0000 L 337.7499 -75.0000 L 337.7499 -85.0000 L 337.7499 -95.0000 L 329.0897 -100.0000 L 320.4294 -95.0000 L 311.7691 -100.0000 L 320.4294 -105.0000 L 320.4294 -115.0000 L 311.7691 -110.0000 L 303.1089 -105.0000 L 303.1089 -95.0000 L 311.7691 -90.0000 L 311.7691 -80.0000 L 311.7691 -70.0000 L 303.1089 -75.0000 L 303.1089 -85.0000 L 294.4486 -80.0000 L 294.4486 -70.0000 L 285.7884 -65.0000 L 277.1281 -70.0000 L 285.7884 -75.0000 L 285.7884 -85.0000 L 277.1281 -80.0000 L 268.4679 -75.0000 L 268.4679 -65.0000 L 259.8076 -60.0000 L 251.1474 -65.0000 L 242.4871 -70.0000 L 251.1474 -75.0000 L 259.8076 -70.0000 L 259.8076 -80.0000 L 251.1474 -85.0000 L 251.1474 -95.0000 L 259.8076 -100.0000 L 268.4679 -105.0000 L 268.4679 -95.0000 L 259.8076 -90.0000 L 268.4679 -85.0000 L 277.1281 -90.0000 L 277.1281 -100.0000 L 285.7884 -105.0000 L 285.7884 -95.0000 L 294.4486 -90.0000 L 294.4486 -100.0000 L 294.4486 -110.0000 L 285.7884 -115.0000 L 277.1281 -110.0000 L 268.4679 -115.0000 L 277.1281 -120.0000 L 277.1281 -130.0000 L 268.4679 -125.0000 L 259.8076 -120.0000 L 259.8076 -110.0000 L 251.1474 -105.0000 L 242.4871 -110.0000 L 251.1474 -115.0000 L 251.1474 -125.0000 L 242.4871 -120.0000 L 233.8269 -115.0000 L 233.8269 -105.0000 L 242.4871 -100.0000 L 242.4871 -90.0000 L 242.4871 -80.0000 L 233.8269 -85.0000 L 233.8269 -95.0000 L 225.1666 -90.0000 L 225.1666 -80.0000 L 233.8269 -75.0000 L 233.8269 -65.0000 L 225.1666 -70.0000 L 216.5064 -65.0000 L 225.1666 -60.0000 L 233.8269 -55.0000 L 242.4871 -60.0000 L 251.1474 -55.0000 L 251.1474 -45.0000 L 251.1474 -35.0000 L 242.4871 -40.0000 L 242.4871 -50.0000 L 233.8269 -45.0000 L 233.8269 -35.0000 L 225.1666 -30.0000 L 216.5064 -35.0000 L 207.8461 -40.0000 L 216.5064 -45.0000 L 225.1666 -40.0000 L 225.1666 -50.0000 L 216.5064 -55.0000 L 207.8461 -50.0000 L 199.1858 -55.0000 L 207.8461 -60.0000 L 207.8461 -70.0000 L 199.1858 -65.0000 L 190.5256 -60.0000 L 190.5256 -50.0000 L 199.1858 -45.0000 L 199.1858 -35.0000 L 190.5256 -40.0000 L 181.8653 -35.0000 L 190.5256 -30.0000 L 199.1858 -25.0000 L 207.8461 -30.0000 L 216.5064 -25.0000 L 216.5064 -15.0000 L 207.8461 -20.0000 L 199.1858 -15.0000 L 207.8461 -10.0000 L 216.5064 -5.0000 L 225.1666 -10.0000 L 225.1666 -20.0000 L 233.8269 -25.0000 L 242.4871 -30.0000 L 242.4871 -20.0000 L 233.8269 -15.0000 L 242.4871 -10.0000 L 251.1474 -15.0000 L 251.1474 -25.0000 L 259.8076 -30.0000 L 259.8076 -20.0000 L 268.4679 -15.0000 L 268.4679 -25.0000 L 268.4679 -35.0000 L 259.8076 -40.0000 L 259.8076 -50.0000 L 268.4679 -55.0000 L 277.1281 -60.0000 L 277.1281 -50.0000 L 268.4679 -45.0000 L 277.1281 -40.0000 L 285.7884 -45.0000 L 285.7884 -55.0000 L 294.4486 -60.0000 L 303.1089 -65.0000 L 303.1089 -55.0000 L 294.4486 -50.0000 L 303.1089 -45.0000 L 311.7691 -50.0000 L 320.4294 -45.0000 L 320.4294 -35.0000 L 320.4294 -25.0000 L 311.7691 -30.0000 L 311.7691 -40.0000 L 303.1089 -35.0000 L 303.1089 -25.0000 L 294.4486 -20.0000 L 285.7884 -25.0000 L 294.4486 -30.0000 L 294.4486 -40.0000 L 285.7884 -35.0000 L 277.1281 -30.0000 L 277.1281 -20.0000 L 285.7884 -15.0000 L 285.7884 -5.0000 L 277.1281 -10.0000 L 268.4679 -5.0000 L 277.1281 -0.0000 L 285.7884 5.0000 L 294.4486 -0.0000 L 294.4486 -10.0000 L 303.1089 -15.0000 L 311.7691 -20.0000 L 311.7691 -10.0000 L 303.1089 -5.0000 L 311.7691 0.0000 L 320.4294 -5.0000 L 329.0897 0.0000 L 329.0897 10.0000 L 320.4294 5.0000 L 311.7691 10.0000 L 320.4294 15.0000 L 329.0897 20.0000 L 337.7499 15.0000 L 346.4102 20.0000 L 346.4102 30.0000 L 346.4102 40.0000 L 337.7499 35.0000 L 337.7499 25.0000 L 329.0897 30.0000 L 329.0897 40.0000 L 320.4294 45.0000 L 311.7691 40.0000 L 303.1089 35.0000 L 311.7691 30.0000 L 320.4294 35.0000 L 320.4294 25.0000 L 311.7691 20.0000 L 303.1089 25.0000 L 294.4486 20.0000 L 303.1089 15.0000 L 303.1089 5.0000 L 294.4486 10.0000 L 285.7884 15.0000 L 285.7884 25.0000 L 294.4486 30.0000 L 294.4486 40.0000 L 285.7884 35.0000 L 277.1281 40.0000 L 285.7884 45.0000 L 294.4486 50.0000 L 303.1089 45.0000 L 311.7691 50.0000 L 311.7691 60.0000 L 303.1089 55.0000 L 294.4486 60.0000 L 303.1089 65.0000 L 311.7691 70.0000 L 320.4294 65.0000 L 320.4294 55.0000 L 329.0897 50.0000 L 337.7499 45.0000 L 337.7499 55.0000 L 329.0897 60.0000 L 337.7499 65.0000 L 346.4102 60.0000 L 355.0704 65.0000 L 355.0704 75.0000 L 346.4102 70.0000 L 337.7499 75.0000 L 346.4102 80.0000 L 355.0704 85.0000 L 363.7307 80.0000 L 372.3909 85.0000 L 372.3909 95.0000 L 372.3909 105.0000 L 363.7307 100.0000 L 363.7307 90.0000 L 355.0704 95.0000 L 355.0704 105.0000 L 363.7307 110.0000 L 363.7307 120.0000 L 363.7307 130.0000 L 355.0704 125.0000 L 355.0704 115.0000 L 346.4102 120.0000 L 346.4102 130.0000 L 337.7499 135.0000 L 329.0897 130.0000 L 320.4294 125.0000 L 329.0897 120.0000 L 337.7499 125.0000 L 337.7499 115.0000 L 329.0897 110.0000 L 329.0897 100.0000 L 337.7499 95.0000 L 337.7499 105.0000 L 346.4102 110.0000 L 346.4102 100.0000 L 346.4102 90.0000 L 337.7499 85.0000 L 329.0897 90.0000 L 320.4294 85.0000 L 329.0897 80.0000 L 329.0897 70.0000 L 320.4294 75.0000 L 311.7691 80.0000 L 311.7691 90.0000 L 320.4294 95.0000 L 320.4294 105.0000 L 320.4294 115.0000 L 311.7691 110.0000 L 311.7691 100.0000 L 303.1089 105.0000 L 303.1089 115.0000 L 311.7691 120.0000 L 311.7691 130.0000 L 303.1089 125.0000 L 294.4486 130.0000 L 303.1089 135.0000 L 311.7691 140.0000 L 320.4294 135.0000 L 329.0897 140.0000 L 329.0897 150.0000 L 329.0897 160.0000 L 320.4294 155.0000 L 320.4294 145.0000 L 311.7691 150.0000 L 311.7691 160.0000 L 320.4294 165.0000 L 320.4294 175.0000 L 320.4294 185.0000 L 311.7691 180.0000 L 311.7691 170.0000 L 303.1089 175.0000 L 303.1089 185.0000 L 294.4486 190.0000 L 285.7884 185.0000 L 277.1281 180.0000 L 285.7884 175.0000 L 294.4486 180.0000 L 294.4486 170.0000 L 285.7884 165.0000 L 285.7884 155.0000 L 294.4486 150.0000 L 294.4486 160.0000 L 303.1089 165.0000 L 303.1089 155.0000 L 303.1089 145.0000 L 294.4486 140.0000 L 285.7884 145.0000 L 277.1281 140.0000 L 285.7884 135.0000 L 285.7884 125.0000 L 277.1281 130.0000 L 268.4679 135.0000 L 268.4679 145.0000 L 277.1281 150.0000 L 277.1281 160.0000 L 277.1281 170.0000 L 268.4679 165.0000 L 268.4679 155.0000 L 259.8076 160.0000 L 259.8076 170.0000 L 251.1474 175.0000 L 242.4871 170.0000 L 251.1474 165.0000 L 251.1474 155.0000 L 242.4871 160.0000 L 233.8269 165.0000 L 233.8269 175.0000 L 225.1666 180.0000 L 216.5064 175.0000 L 207.8461 170.0000 L 216.5064 165.0000 L 225.1666 170.0000 L 225.1666 160.0000 L 216.5064 155.0000 L 207.8461 160.0000 L 199.1858 155.0000 L 190.5256 150.0000 L 199.1858 145.0000 L 207.8461 150.0000 L 207.8461 140.0000 L 199.1858 135.0000 L 199.1858 125.0000 L 207.8461 120.0000 L 216.5064 115.0000 L 216.5064 125.0000 L 207.8461 130.0000 L 216.5064 135.0000 L 225.1666 130.0000 L 233.8269 135.0000 L 233.8269 145.0000 L 225.1666 140.0000 L 216.5064 145.0000 L 225.1666 150.0000 L 233.8269 155.0000 L 242.4871 150.0000 L 242.4871 140.0000 L 251.1474 135.0000 L 251.1474 145.0000 L 259.8076 150.0000 L 259.8076 140.0000 L 259.8076 130.0000 L 251.1474 125.0000 L 242.4871 130.0000 L 233.8269 125.0000 L 225.1666 120.0000 L 233.8269 115.0000 L 242.4871 120.0000 L 242.4871 110.0000 L 233.8269 105.0000 L 233.8269 95.0000 L 242.4871 90.0000 L 242.4871 100.0000 L 251.1474 105.0000 L 251.1474 95.0000 L 251.1474 85.0000 L 242.4871 80.0000 L 242.4871 70.0000 L 251.1474 65.0000 L 259.8076 60.0000 L 259.8076 70.0000 L 251.1474 75.0000 L 259.8076 80.0000 L 268.4679 75.0000 L 277.1281 80.0000 L 277.1281 90.0000 L 277.1281 100.0000 L 268.4679 95.0000 L 268.4679 85.0000 L 259.8076 90.0000 L 259.8076 100.0000 L 268.4679 105.0000 L 268.4679 115.0000 L 259.8076 110.0000 L 251.1474 115.0000 L 259.8076 120.0000 L 268.4679 125.0000 L 277.1281 120.0000 L 277.1281 110.0000 L 285.7884 105.0000 L 285.7884 115.0000 L 294.4486 120.0000 L 294.4486 110.0000 L 294.4486 100.0000 L 285.7884 95.0000 L 285.7884 85.0000 L 294.4486 80.0000 L 294.4486 90.0000 L 303.1089 95.0000 L 303.1089 85.0000 L 303.1089 75.0000 L 294.4486 70.0000 L 285.7884 75.0000 L 277.1281 70.0000 L 268.4679 65.0000 L 277.1281 60.0000 L 285.7884 65.0000 L 285.7884 55.0000 L 277.1281 50.0000 L 268.4679 55.0000 L 259.8076 50.0000 L 268.4679 45.0000 L 268.4679 35.0000 L 259.8076 40.0000 L 251.1474 45.0000 L 251.1474 55.0000 L 242.4871 60.0000 L 233.8269 55.0000 L 225.1666 50.0000 L 233.8269 45.0000 L 242.4871 50.0000 L 242.4871 40.0000 L 233.8269 35.0000 L 233.8269 25.0000 L 242.4871 20.0000 L 251.1474 15.0000 L 251.1474 25.0000 L 242.4871 30.0000 L 251.1474 35.0000 L 259.8076 30.0000 L 259.8076 20.0000 L 268.4679 15.0000 L 268.4679 25.0000 L 277.1281 30.0000 L 277.1281 20.0000 L 277.1281 10.0000 L 268.4679 5.0000 L 259.8076 10.0000 L 251.1474 5.0000 L 259.8076 0.0000 L 259.8076 -10.0000 L 251.1474 -5.0000 L 242.4871 0.0000 L 242.4871 10.0000 L 233.8269 15.0000 L 225.1666 10.0000 L 233.8269 5.0000 L 233.8269 -5.0000 L 225.1666 0.0000 L 216.5064 5.0000 L 216.5064 15.0000 L 225.1666 20.0000 L 225.1666 30.0000 L 225.1666 40.0000 L 216.5064 35.0000 L 216.5064 25.0000 L 207.8461 30.0000 L 207.8461 40.0000 L 216.5064 45.0000 L 216.5064 55.0000 L 207.8461 50.0000 L 199.1858 55.0000 L 207.8461 60.0000 L 216.5064 65.0000 L 225.1666 60.0000 L 233.8269 65.0000 L 233.8269 75.0000 L 233.8269 85.0000 L 225.1666 80.0000 L 225.1666 70.0000 L 216.5064 75.0000 L 216.5064 85.0000 L 225.1666 90.0000 L 225.1666 100.0000 L 225.1666 110.0000 L 216.5064 105.0000 L 216.5064 95.0000 L 207.8461 100.0000 L 207.8461 110.0000 L 199.1858 115.0000 L 190.5256 110.0000 L 181.8653 105.0000 L 190.5256 100.0000 L 199.1858 105.0000 L 199.1858 95.0000 L 190.5256 90.0000 L 190.5256 80.0000 L 199.1858 75.0000 L 199.1858 85.0000 L 207.8461 90.0000 L 207.8461 80.0000 L 207.8461 70.0000 L 199.1858 65.0000 L 190.5256 70.0000 L 181.8653 65.0000 L 190.5256 60.0000 L 190.5256 50.0000 L 181.8653 55.0000 L 173.2051 60.0000 L 173.2051 70.0000 L 181.8653 75.0000 L 181.8653 85.0000 L 181.8653 95.0000 L 173.2051 90.0000 L 173.2051 80.0000 L 164.5448 85.0000 L 164.5448 95.0000 L 173.2051 100.0000 L 173.2051 110.0000 L 164.5448 105.0000 L 155.8846 110.0000 L 164.5448 115.0000 L 173.2051 120.0000 L 181.8653 115.0000 L 190.5256 120.0000 L 190.5256 130.0000 L 190.5256 140.0000 L 181.8653 135.0000 L 181.8653 125.0000 L 173.2051 130.0000 L 173.2051 140.0000 L 164.5448 145.0000 L 155.8846 140.0000 L 147.2243 135.0000 L 155.8846 130.0000 L 164.5448 135.0000 L 164.5448 125.0000 L 155.8846 120.0000 L 147.2243 125.0000 L 138.5641 120.0000 L 147.2243 115.0000 L 147.2243 105.0000 L 138.5641 110.0000 L 129.9038 115.0000 L 129.9038 125.0000 L 138.5641 130.0000 L 138.5641 140.0000 L 129.9038 135.0000 L 121.2436 140.0000 L 129.9038 145.0000 L 138.5641 150.0000 L 147.2243 145.0000 L 155.8846 150.0000 L 155.8846 160.0000 L 147.2243 155.0000 L 138.5641 160.0000 L 147.2243 165.0000 L 155.8846 170.0000 L 164.5448 165.0000 L 164.5448 155.0000 L 173.2051 150.0000 L 181.8653 145.0000 L 181.8653 155.0000 L 173.2051 160.0000 L 181.8653 165.0000 L 190.5256 160.0000 L 199.1858 165.0000 L 199.1858 175.0000 L 190.5256 170.0000 L 181.8653 175.0000 L 190.5256 180.0000 L 199.1858 185.0000 L 207.8461 180.0000 L 216.5064 185.0000 L 216.5064 195.0000 L 216.5064 205.0000 L 207.8461 200.0000 L 207.8461 190.0000 L 199.1858 195.0000 L 199.1858 205.0000 L 207.8461 210.0000 L 207.8461 220.0000 L 207.8461 230.0000 L 199.1858 225.0000 L 199.1858 215.0000 L 190.5256 220.0000 L 190.5256 230.0000 L 181.8653 235.0000 L 173.2051 230.0000 L 164.5448 225.0000 L 173.2051 220.0000 L 181.8653 225.0000 L 181.8653 215.0000 L 173.2051 210.0000 L 173.2051 200.0000 L 181.8653 195.0000 L 181.8653 205.0000 L 190.5256 210.0000 L 190.5256 200.0000 L 190.5256 190.0000 L 181.8653 185.0000 L 173.2051 190.0000 L 164.5448 185.0000 L 173.2051 180.0000 L 173.2051 170.0000 L 164.5448 175.0000 L 155.8846 180.0000 L 155.8846 190.0000 L 164.5448 195.0000 L 164.5448 205.0000 L 164.5448 215.0000 L 155.8846 210.0000 L 155.8846 200.0000 L 147.2243 205.0000 L 147.2243 215.0000 L 138.5641 220.0000 L 129.9038 215.0000 L 138.5641 210.0000 L 138.5641 200.0000 L 129.9038 205.0000 L 121.2436 210.0000 L 121.2436 220.0000 L 112.5833 225.0000 L 103.9230 220.0000 L 95.2628 215.0000 L 103.9230 210.0000 L 112.5833 215.0000 L 112.5833 205.0000 L 103.9230 200.0000 L 95.2628 205.0000 L 86.6025 200.0000 L 77.9423 195.0000 L 86.6025 190.0000 L 95.2628 195.0000 L 95.2628 185.0000 L 86.6025 180.0000 L 86.6025 170.0000 L 95.2628 165.0000 L 103.9230 160.0000 L 103.9230 170.0000 L 95.2628 175.0000 L 103.9230 180.0000 L 112.5833 175.0000 L 121.2436 180.0000 L 121.2436 190.0000 L 112.5833 185.0000 L 103.9230 190.0000 L 112.5833 195.0000 L 121.2436 200.0000 L 129.9038 195.0000 L 129.9038 185.0000 L 138.5641 180.0000 L 138.5641 190.0000 L 147.2243 195.0000 L 147.2243 185.0000 L 147.2243 175.0000 L 138.5641 170.0000 L 129.9038 175.0000 L 121.2436 170.0000 L 112.5833 165.0000 L 121.2436 160.0000 L 129.9038 165.0000 L 129.9038 155.0000 L 121.2436 150.0000 L 112.5833 155.0000 L 103.9230 150.0000 L 112.5833 145.0000 L 112.5833 135.0000 L 103.9230 140.0000 L 95.2628 145.0000 L 95.2628 155.0000 L 86.6025 160.0000 L 77.9423 155.0000 L 69.2820 150.0000 L 77.9423 145.0000 L 86.6025 150.0000 L 86.6025 140.0000 L 77.9423 135.0000 L 77.9423 125.0000 L 86.6025 120.0000 L 95.2628 115.0000 L 95.2628 125.0000 L 86.6025 130.0000 L 95.2628 135.0000 L 103.9230 130.0000 L 103.9230 120.0000 L 112.5833 115.0000 L 112.5833 125.0000 L 121.2436 130.0000 L 121.2436 120.0000 L 121.2436 110.0000 L 112.5833 105.0000 L 103.9230 110.0000 L 95.2628 105.0000 L 103.9230 100.0000 L 103.9230 90.0000 L 95.2628 95.0000 L 86.6025 100.0000 L 86.6025 110.0000 L 77.9423 115.0000 L 69.2820 110.0000 L 77.9423 105.0000 L 77.9423 95.0000 L 69.2820 100.0000 L 60.6218 105.0000 L 60.6218 115.0000 L 69.2820 120.0000 L 69.2820 130.0000 L 69.2820 140.0000 L 60.6218 135.0000 L 60.6218 125.0000 L 51.9615 130.0000 L 51.9615 140.0000 L 60.6218 145.0000 L 60.6218 155.0000 L 51.9615 150.0000 L 43.3013 155.0000 L 51.9615 160.0000 L 60.6218 165.0000 L 69.2820 160.0000 L 77.9423 165.0000 L 77.9423 175.0000 L 77.9423 185.0000 L 69.2820 180.0000 L 69.2820 170.0000 L 60.6218 175.0000 L 60.6218 185.0000 L 51.9615 190.0000 L 43.3013 185.0000 L 34.6410 180.0000 L 43.3013 175.0000 L 51.9615 180.0000 L 51.9615 170.0000 L 43.3013 165.0000 L 34.6410 170.0000 L 25.9808 165.0000 L 34.6410 160.0000 L 34.6410 150.0000 L 25.9808 155.0000 L 17.3205 160.0000 L 17.3205 170.0000 L 25.9808 175.0000 L 25.9808 185.0000 L 17.3205 180.0000 L 8.6603 185.0000 L 17.3205 190.0000 L 25.9808 195.0000 L 34.6410 190.0000 L 43.3013 195.0000 L 43.3013 205.0000 L 34.6410 200.0000 L 25.9808 205.0000 L 34.6410 210.0000 L 43.3013 215.0000 L 51.9615 210.0000 L 51.9615 200.0000 L 60.6218 195.0000 L 69.2820 190.0000 L 69.2820 200.0000 L 60.6218 205.0000 L 69.2820 210.0000 L 77.9423 205.0000 L 86.6025 210.0000 L 86.6025 220.0000 L 77.9423 215.0000 L 69.2820 220.0000 L 77.9423 225.0000 L 86.6025 230.0000 L 95.2628 225.0000 L 103.9230 230.0000 L 103.9230 240.0000 L 103.9230 250.0000 L 95.2628 245.0000 L 95.2628 235.0000 L 86.6025 240.0000 L 86.6025 250.0000 L 77.9423 255.0000 L 69.2820 250.0000 L 60.6218 245.0000 L 69.2820 240.0000 L 77.9423 245.0000 L 77.9423 235.0000 L 69.2820 230.0000 L 60.6218 235.0000 L 51.9615 230.0000 L 60.6218 225.0000 L 60.6218 215.0000 L 51.9615 220.0000 L 43.3013 225.0000 L 43.3013 235.0000 L 51.9615 240.0000 L 51.9615 250.0000 L 43.3013 245.0000 L 34.6410 250.0000 L 43.3013 255.0000 L 51.9615 260.0000 L 60.6218 255.0000 L 69.2820 260.0000 L 69.2820 270.0000 L 60.6218 265.0000 L 51.9615 270.0000 L 60.6218 275.0000 L 69.2820 280.0000 L 77.9423 275.0000 L 77.9423 265.0000 L 86.6025 260.0000 L 95.2628 255.0000 L 95.2628 265.0000 L 86.6025 270.0000 L 95.2628 275.0000 L 103.9230 270.0000 L 103.9230 260.0000 L 112.5833 255.0000 L 112.5833 265.0000 L 121.2436 270.0000 L 121.2436 260.0000 L 121.2436 250.0000 L 112.5833 245.0000 L 112.5833 235.0000 L 121.2436 230.0000 L 129.9038 225.0000 L 129.9038 235.0000 L 121.2436 240.0000 L 129.9038 245.0000 L 138.5641 240.0000 L 138.5641 230.0000 L 147.2243 225.0000 L 155.8846 220.0000 L 155.8846 230.0000 L 147.2243 235.0000 L 155.8846 240.0000 L 164.5448 235.0000 L 173.2051 240.0000 L 173.2051 250.0000 L 173.2051 260.0000 L 164.5448 255.0000 L 164.5448 245.0000 L 155.8846 250.0000 L 155.8846 260.0000 L 147.2243 265.0000 L 138.5641 260.0000 L 147.2243 255.0000 L 147.2243 245.0000 L 138.5641 250.0000 L 129.9038 255.0000 L 129.9038 265.0000 L 138.5641 270.0000 L 138.5641 280.0000 L 129.9038 275.0000 L 121.2436 280.0000 L 129.9038 285.0000 L 138.5641 290.0000 L 147.2243 285.0000 L 147.2243 275.0000 L 155.8846 270.0000 L 164.5448 265.0000 L 164.5448 275.0000 L 155.8846 280.0000 L 164.5448 285.0000 L 173.2051 280.0000 L 173.2051 270.0000 L 181.8653 265.0000 L 181.8653 275.0000 L 190.5256 280.0000 L 190.5256 270.0000 L 190.5256 260.0000 L 181.8653 255.0000 L 181.8653 245.0000 L 190.5256 240.0000 L 199.1858 235.0000 L 199.1858 245.0000 L 190.5256 250.0000 L 199.1858 255.0000 L 207.8461 250.0000 L 216.5064 255.0000 L 216.5064 265.0000 L 216.5064 275.0000 L 207.8461 270.0000 L 207.8461 260.0000 L 199.1858 265.0000 L 199.1858 275.0000 L 207.8461 280.0000 L 207.8461 290.0000 L 199.1858 285.0000 L 190.5256 290.0000 L 199.1858 295.0000 L 207.8461 300.0000 L 216.5064 295.0000 L 216.5064 285.0000 L 225.1666 280.0000 L 225.1666 290.0000 L 233.8269 295.0000 L 233.8269 285.0000 L 233.8269 275.0000 L 225.1666 270.0000 L 225.1666 260.0000 L 233.8269 255.0000 L 233.8269 265.0000 L 242.4871 270.0000 L 242.4871 260.0000 L 242.4871 250.0000 L 233.8269 245.0000 L 225.1666 250.0000 L 216.5064 245.0000 L 207.8461 240.0000 L 216.5064 235.0000 L 225.1666 240.0000 L 225.1666 230.0000 L 216.5064 225.0000 L 216.5064 215.0000 L 225.1666 210.0000 L 225.1666 220.0000 L 233.8269 225.0000 L 233.8269 215.0000 L 233.8269 205.0000 L 225.1666 200.0000 L 225.1666 190.0000 L 233.8269 185.0000 L 242.4871 180.0000 L 242.4871 190.0000 L 233.8269 195.0000 L 242.4871 200.0000 L 251.1474 195.0000 L 251.1474 185.0000 L 259.8076 180.0000 L 268.4679 175.0000 L 268.4679 185.0000 L 259.8076 190.0000 L 268.4679 195.0000 L 277.1281 190.0000 L 285.7884 195.0000 L 285.7884 205.0000 L 285.7884 215.0000 L 277.1281 210.0000 L 277.1281 200.0000 L 268.4679 205.0000 L 268.4679 215.0000 L 259.8076 220.0000 L 251.1474 215.0000 L 259.8076 210.0000 L 259.8076 200.0000 L 251.1474 205.0000 L 242.4871 210.0000 L 242.4871 220.0000 L 251.1474 225.0000 L 251.1474 235.0000 L 242.4871 230.0000 L 233.8269 235.0000 L 242.4871 240.0000 L 251.1474 245.0000 L 259.8076 240.0000 L 259.8076 230.0000 L 268.4679 225.0000 L 277.1281 220.0000 L 277.1281 230.0000 L 268.4679 235.0000 L 277.1281 240.0000 L 285.7884 235.0000 L 294.4486 240.0000 L 294.4486 250.0000 L 285.7884 245.0000 L 277.1281 250.0000 L 285.7884 255.0000 L 294.4486 260.0000 L 303.1089 255.0000 L 311.7691 260.0000 L 311.7691 270.0000 L 311.7691 280.0000 L 303.1089 275.0000 L 303.1089 265.0000 L 294.4486 270.0000 L 294.4486 280.0000 L 303.1089 285.0000 L 303.1089 295.0000 L 303.1089 305.0000 L 294.4486 300.0000 L 294.4486 290.0000 L 285.7884 295.0000 L 285.7884 305.0000 L 277.1281 310.0000 L 268.4679 305.0000 L 259.8076 300.0000 L 268.4679 295.0000 L 277.1281 300.0000 L 277.1281 290.0000 L 268.4679 285.0000 L 268.4679 275.0000 L 277.1281 270.0000 L 277.1281 280.0000 L 285.7884 285.0000 L 285.7884 275.0000 L 285.7884 265.0000 L 277.1281 260.0000 L 268.4679 265.0000 L 259.8076 260.0000 L 268.4679 255.0000 L 268.4679 245.0000 L 259.8076 250.0000 L 251.1474 255.0000 L 251.1474 265.0000 L 259.8076 270.0000 L 259.8076 280.0000 L 259.8076 290.0000 L 251.1474 285.0000 L 251.1474 275.0000 L 242.4871 280.0000 L 242.4871 290.0000 L 251.1474 295.0000 L 251.1474 305.0000 L 242.4871 300.0000 L 233.8269 305.0000 L 242.4871 310.0000 L 251.1474 315.0000 L 259.8076 310.0000 L 268.4679 315.0000 L 268.4679 325.0000 L 268.4679 335.0000 L 259.8076 330.0000 L 259.8076 320.0000 L 251.1474 325.0000 L 251.1474 335.0000 L 242.4871 340.0000 L 233.8269 335.0000 L 225.1666 330.0000 L 233.8269 325.0000 L 242.4871 330.0000 L 242.4871 320.0000 L 233.8269 315.0000 L 225.1666 320.0000 L 216.5064 315.0000 L 225.1666 310.0000 L 225.1666 300.0000 L 216.5064 305.0000 L 207.8461 310.0000 L 207.8461 320.0000 L 216.5064 325.0000 L 216.5064 335.0000 L 207.8461 330.0000 L 199.1858 335.0000 L 207.8461 340.0000 L 216.5064 345.0000 L 225.1666 340.0000 L 233.8269 345.0000 L 233.8269 355.0000 L 225.1666 350.0000 L 216.5064 355.0000 L 225.1666 360.0000 L 233.8269 365.0000 L 242.4871 360.0000 L 242.4871 350.0000 L 251.1474 345.0000 L 259.8076 340.0000 L 259.8076 350.0000 L 251.1474 355.0000 L 259.8076 360.0000 L 268.4679 355.0000 L 268.4679 345.0000 L 277.1281 340.0000 L 277.1281 350.0000 L 285.7884 355.0000 L 285.7884 345.0000 L 285.7884 335.0000 L 277.1281 330.0000 L 277.1281 320.0000 L 285.7884 315.0000 L 294.4486 310.0000 L 294.4486 320.0000 L 285.7884 325.0000 L 294.4486 330.0000 L 303.1089 325.0000 L 311.7691 330.0000 L 311.7691 340.0000 L 311.7691 350.0000 L 303.1089 345.0000 L 303.1089 335.0000 L 294.4486 340.0000 L 294.4486 350.0000 L 303.1089 355.0000 L 303.1089 365.0000 L 294.4486 360.0000 L 285.7884 365.0000 L 294.4486 370.0000 L 303.1089 375.0000 L 311.7691 370.0000 L 311.7691 360.0000 L 320.4294 355.0000 L 320.4294 365.0000 L 329.0897 370.0000 L 329.0897 360.0000 L 329.0897 350.0000 L 320.4294 345.0000 L 320.4294 335.0000 L 329.0897 330.0000 L 329.0897 340.0000 L 337.7499 345.0000 L 337.7499 335.0000 L 337.7499 325.0000 L 329.0897 320.0000 L 320.4294 325.0000 L 311.7691 320.0000 L 303.1089 315.0000 L 311.7691 310.0000 L 320.4294 315.0000 L 320.4294 305.0000 L 311.7691 300.0000 L 311.7691 290.0000 L 320.4294 285.0000 L 320.4294 295.0000 L 329.0897 300.0000 L 329.0897 290.0000 L 329.0897 280.0000 L 320.4294 275.0000 L 320.4294 265.0000 L 329.0897 260.0000 L 337.7499 255.0000 L 337.7499 265.0000 L 329.0897 270.0000 L 337.7499 275.0000 L 346.4102 270.0000 L 355.0704 275.0000 L 355.0704 285.0000 L 355.0704 295.0000 L 346.4102 290.0000 L 346.4102 280.0000 L 337.7499 285.0000 L 337.7499 295.0000 L 346.4102 300.0000 L 346.4102 310.0000 L 337.7499 305.0000 L 329.0897 310.0000 L 337.7499 315.0000 L 346.4102 320.0000 L 355.0704 315.0000 L 355.0704 305.0000 L 363.7307 300.0000 L 363.7307 310.0000 L 372.3909 315.0000 L 372.3909 305.0000 L 372.3909 295.0000 L 363.7307 290.0000 L 363.7307 280.0000 L 372.3909 275.0000 L 372.3909 285.0000 L 381.0512 290.0000 L 381.0512 280.0000 L 381.0512 270.0000 L 372.3909 265.0000 L 363.7307 270.0000 L 355.0704 265.0000 L 346.4102 260.0000 L 355.0704 255.0000 L 363.7307 260.0000 L 363.7307 250.0000 L 355.0704 245.0000 L 346.4102 250.0000 L 337.7499 245.0000 L 346.4102 240.0000 L 346.4102 230.0000 L 337.7499 235.0000 L 329.0897 240.0000 L 329.0897 250.0000 L 320.4294 255.0000 L 311.7691 250.0000 L 303.1089 245.0000 L 311.7691 240.0000 L 320.4294 245.0000 L 320.4294 235.0000 L 311.7691 230.0000 L 303.1089 235.0000 L 294.4486 230.0000 L 285.7884 225.0000 L 294.4486 220.0000 L 303.1089 225.0000 L 303.1089 215.0000 L 294.4486 210.0000 L 294.4486 200.0000 L 303.1089 195.0000 L 311.7691 190.0000 L 311.7691 200.0000 L 303.1089 205.0000 L 311.7691 210.0000 L 320.4294 205.0000 L 329.0897 210.0000 L 329.0897 220.0000 L 320.4294 215.0000 L 311.7691 220.0000 L 320.4294 225.0000 L 329.0897 230.0000 L 337.7499 225.0000 L 337.7499 215.0000 L 346.4102 210.0000 L 346.4102 220.0000 L 355.0704 225.0000 L 355.0704 215.0000 L 355.0704 205.0000 L 346.4102 200.0000 L 337.7499 205.0000 L 329.0897 200.0000 L 320.4294 195.0000 L 329.0897 190.0000 L 337.7499 195.0000 L 337.7499 185.0000 L 329.0897 180.0000 L 329.0897 170.0000 L 337.7499 165.0000 L 337.7499 175.0000 L 346.4102 180.0000 L 346.4102 170.0000 L 346.4102 160.0000 L 337.7499 155.0000 L 337.7499 145.0000 L 346.4102 140.0000 L 355.0704 135.0000 L 355.0704 145.0000 L 346.4102 150.0000 L 355.0704 155.0000 L 363.7307 150.0000 L 372.3909 155.0000 L 372.3909 165.0000 L 372.3909 175.0000 L 363.7307 170.0000 L 363.7307 160.0000 L 355.0704 165.0000 L 355.0704 175.0000 L 363.7307 180.0000 L 363.7307 190.0000 L 355.0704 185.0000 L 346.4102 190.0000 L 355.0704 195.0000 L 363.7307 200.0000 L 372.3909 195.0000 L 372.3909 185.0000 L 381.0512 180.0000 L 381.0512 190.0000 L 389.7114 195.0000 L 389.7114 185.0000 L 389.7114 175.0000 L 381.0512 170.0000 L 381.0512 160.0000 L 389.7114 155.0000 L 389.7114 165.0000 L 398.3717 170.0000 L 398.3717 160.0000 L 398.3717 150.0000 L 389.7114 145.0000 L 381.0512 150.0000 L 372.3909 145.0000 L 363.7307 140.0000 L 372.3909 135.0000 L 381.0512 140.0000 L 381.0512 130.0000 L 372.3909 125.0000 L 372.3909 115.0000 L 381.0512 110.0000 L 381.0512 120.0000 L 389.7114 125.0000 L 389.7114 115.0000 L 389.7114 105.0000 L 381.0512 100.0000 L 381.0512 90.0000 L 389.7114 85.0000 L 398.3717 80.0000 L 398.3717 90.0000 L 389.7114 95.0000 L 398.3717 100.0000 L 407.0319 95.0000 L 407.0319 85.0000 L 415.6922 80.0000 L 424.3524 75.0000 L 424.3524 85.0000 L 415.6922 90.0000 L 424.3524 95.0000 L 433.0127 90.0000 L 441.6730 95.0000 L 441.6730 105.0000 L 441.6730 115.0000 L 433.0127 110.0000 L 433.0127 100.0000 L 424.3524 105.0000 L 424.3524 115.0000 L 415.6922 120.0000 L 407.0319 115.0000 L 415.6922 110.0000 L 415.6922 100.0000 L 407.0319 105.0000 L 398.3717 110.0000 L 398.3717 120.0000 L 407.0319 125.0000 L 407.0319 135.0000 L 398.3717 130.0000 L 389.7114 135.0000 L 398.3717 140.0000 L 407.0319 145.0000 L 415.6922 140.0000 L 415.6922 130.0000 L 424.3524 125.0000 L 433.0127 120.0000 L 433.0127 130.0000 L 424.3524 135.0000 L 433.0127 140.0000 L 441.6730 135.0000 L 450.3332 140.0000 L 450.3332 150.0000 L 441.6730 145.0000 L 433.0127 150.0000 L 441.6730 155.0000 L 450.3332 160.0000 L 458.9935 155.0000 L 467.6537 160.0000 L 467.6537 170.0000 L 467.6537 180.0000 L 458.9935 175.0000 L 458.9935 165.0000 L 450.3332 170.0000 L 450.3332 180.0000 L 458.9935 185.0000 L 458.9935 195.0000 L 458.9935 205.0000 L 450.3332 200.0000 L 450.3332 190.0000 L 441.6730 195.0000 L 441.6730 205.0000 L 433.0127 210.0000 L 424.3524 205.0000 L 415.6922 200.0000 L 424.3524 195.0000 L 433.0127 200.0000 L 433.0127 190.0000 L 424.3524 185.0000 L 424.3524 175.0000 L 433.0127 170.0000 L 433.0127 180.0000 L 441.6730 185.0000 L 441.6730 175.0000 L 441.6730 165.0000 L 433.0127 160.0000 L 424.3524 165.0000 L 415.6922 160.0000 L 424.3524 155.0000 L 424.3524 145.0000 L 415.6922 150.0000 L 407.0319 155.0000 L 407.0319 165.0000 L 415.6922 170.0000 L 415.6922 180.0000 L 415.6922 190.0000 L 407.0319 185.0000 L 407.0319 175.0000 L 398.3717 180.0000 L 398.3717 190.0000 L 407.0319 195.0000 L 407.0319 205.0000 L 398.3717 200.0000 L 389.7114 205.0000 L 398.3717 210.0000 L 407.0319 215.0000 L 415.6922 210.0000 L 424.3524 215.0000 L 424.3524 225.0000 L 424.3524 235.0000 L 415.6922 230.0000 L 415.6922 220.0000 L 407.0319 225.0000 L 407.0319 235.0000 L 398.3717 240.0000 L 389.7114 235.0000 L 381.0512 230.0000 L 389.7114 225.0000 L 398.3717 230.0000 L 398.3717 220.0000 L 389.7114 215.0000 L 381.0512 220.0000 L 372.3909 215.0000 L 381.0512 210.0000 L 381.0512 200.0000 L 372.3909 205.0000 L 363.7307 210.0000 L 363.7307 220.0000 L 372.3909 225.0000 L 372.3909 235.0000 L 363.7307 230.0000 L 355.0704 235.0000 L 363.7307 240.0000 L 372.3909 245.0000 L 381.0512 240.0000 L 389.7114 245.0000 L 389.7114 255.0000 L 381.0512 250.0000 L 372.3909 255.0000 L 381.0512 260.0000 L 389.7114 265.0000 L 398.3717 260.0000 L 398.3717 250.0000 L 407.0319 245.0000 L 415.6922 240.0000 L 415.6922 250.0000 L 407.0319 255.0000 L 415.6922 260.0000 L 424.3524 255.0000 L 424.3524 245.0000 L 433.0127 240.0000 L 433.0127 250.0000 L 441.6730 255.0000 L 441.6730 245.0000 L 441.6730 235.0000 L 433.0127 230.0000 L 433.0127 220.0000 L 441.6730 215.0000 L 450.3332 210.0000 L 450.3332 220.0000 L 441.6730 225.0000 L 450.3332 230.0000 L 458.9935 225.0000 L 467.6537 230.0000 L 467.6537 240.0000 L 467.6537 250.0000 L 458.9935 245.0000 L 458.9935 235.0000 L 450.3332 240.0000 L 450.3332 250.0000 L 458.9935 255.0000 L 458.9935 265.0000 L 450.3332 260.0000 L 441.6730 265.0000 L 450.3332 270.0000 L 458.9935 275.0000 L 467.6537 270.0000 L 467.6537 260.0000 L 476.3140 255.0000 L 476.3140 265.0000 L 484.9742 270.0000 L 484.9742 260.0000 L 484.9742 250.0000 L 476.3140 245.0000 L 476.3140 235.0000 L 484.9742 230.0000 L 484.9742 240.0000 L 493.6345 245.0000 L 493.6345 235.0000 L 493.6345 225.0000 L 484.9742 220.0000 L 476.3140 225.0000 L 467.6537 220.0000 L 458.9935 215.0000 L 467.6537 210.0000 L 476.3140 215.0000 L 476.3140 205.0000 L 467.6537 200.0000 L 467.6537 190.0000 L 476.3140 185.0000 L 476.3140 195.0000 L 484.9742 200.0000 L 484.9742 190.0000 L 484.9742 180.0000 L 476.3140 175.0000 L 476.3140 165.0000 L 484.9742 160.0000 L 493.6345 155.0000 L 493.6345 165.0000 L 484.9742 170.0000 L 493.6345 175.0000 L 502.2947 170.0000 L 510.9550 175.0000 L 510.9550 185.0000 L 510.9550 195.0000 L 502.2947 190.0000 L 502.2947 180.0000 L 493.6345 185.0000 L 493.6345 195.0000 L 502.2947 200.0000 L 502.2947 210.0000 L 493.6345 205.0000 L 484.9742 210.0000 L 493.6345 215.0000 L 502.2947 220.0000 L 510.9550 215.0000 L 510.9550 205.0000 L 519.6152 200.0000 L 519.6152 210.0000 L 528.2755 215.0000 L 528.2755 205.0000 L 528.2755 195.0000 L 519.6152 190.0000 L 519.6152 180.0000 L 528.2755 175.0000 L 528.2755 185.0000 L 536.9358 190.0000 L 536.9358 180.0000 L 536.9358 170.0000 L 528.2755 165.0000 L 519.6152 170.0000 L 510.9550 165.0000 L 502.2947 160.0000 L 510.9550 155.0000 L 519.6152 160.0000 L 519.6152 150.0000 L 510.9550 145.0000 L 502.2947 150.0000 L 493.6345 145.0000 L 502.2947 140.0000 L 502.2947 130.0000 L 493.6345 135.0000 L 484.9742 140.0000 L 484.9742 150.0000 L 476.3140 155.0000 L 467.6537 150.0000 L 458.9935 145.0000 L 467.6537 140.0000 L 476.3140 145.0000 L 476.3140 135.0000 L 467.6537 130.0000 L 458.9935 135.0000 L 450.3332 130.0000 L 441.6730 125.0000 L 450.3332 120.0000 L 458.9935 125.0000 L 458.9935 115.0000 L 450.3332 110.0000 L 450.3332 100.0000 L 458.9935 95.0000 L 467.6537 90.0000 L 467.6537 100.0000 L 458.9935 105.0000 L 467.6537 110.0000 L 476.3140 105.0000 L 484.9742 110.0000 L 484.9742 120.0000 L 476.3140 115.0000 L 467.6537 120.0000 L 476.3140 125.0000 L 484.9742 130.0000 L 493.6345 125.0000 L 493.6345 115.0000 L 502.2947 110.0000 L 502.2947 120.0000 L 510.9550 125.0000 L 510.9550 115.0000 L 510.9550 105.0000 L 502.2947 100.0000 L 493.6345 105.0000 L 484.9742 100.0000 L 476.3140 95.0000 L 484.9742 90.0000 L 493.6345 95.0000 L 493.6345 85.0000 L 484.9742 80.0000 L 476.3140 85.0000 L 467.6537 80.0000 L 476.3140 75.0000 L 476.3140 65.0000 L 467.6537 70.0000 L 458.9935 75.0000 L 458.9935 85.0000 L 450.3332 90.0000 L 441.6730 85.0000 L 433.0127 80.0000 L 441.6730 75.0000 L 450.3332 80.0000 L 450.3332 70.0000 L 441.6730 65.0000 L 441.6730 55.0000 L 450.3332 50.0000 L 458.9935 45.0000 L 458.9935 55.0000 L 450.3332 60.0000 L 458.9935 65.0000 L 467.6537 60.0000 L 467.6537 50.0000 L 476.3140 45.0000 L 476.3140 55.0000 L 484.9742 60.0000 L 484.9742 50.0000 L 484.9742 40.0000 L 476.3140 35.0000 L 467.6537 40.0000 L 458.9935 35.0000 L 467.6537 30.0000 L 467.6537 20.0000 L 458.9935 25.0000 L 450.3332 30.0000 L 450.3332 40.0000 L 441.6730 45.0000 L 433.0127 40.0000 L 441.6730 35.0000 L 441.6730 25.0000 L 433.0127 30.0000 L 424.3524 35.0000 L 424.3524 45.0000 L 433.0127 50.0000 L 433.0127 60.0000 L 433.0127 70.0000 L 424.3524 65.0000 L 424.3524 55.0000 L 415.6922 60.0000 L 415.6922 70.0000 L 407.0319 75.0000 L 398.3717 70.0000 L 407.0319 65.0000 L 407.0319 55.0000 L 398.3717 60.0000 L 389.7114 65.0000 L 389.7114 75.0000 L 381.0512 80.0000 L 372.3909 75.0000 L 363.7307 70.0000 L 372.3909 65.0000 L 381.0512 70.0000 L 381.0512 60.0000 L 372.3909 55.0000 L 363.7307 60.0000 L 355.0704 55.0000 L 346.4102 50.0000 L 355.0704 45.0000 L 363.7307 50.0000 L 363.7307 40.0000 L 355.0704 35.0000 L 355.0704 25.0000 L 363.7307 20.0000 L 372.3909 15.0000 L 372.3909 25.0000 L 363.7307 30.0000 L 372.3909 35.0000 L 381.0512 30.0000 L 389.7114 35.0000 L 389.7114 45.0000 L 381.0512 40.0000 L 372.3909 45.0000 L 381.0512 50.0000 L 389.7114 55.0000 L 398.3717 50.0000 L 398.3717 40.0000 L 407.0319 35.0000 L 407.0319 45.0000 L 415.6922 50.0000 L 415.6922 40.0000 L 415.6922 30.0000 L 407.0319 25.0000 L 398.3717 30.0000 L 389.7114 25.0000 L 381.0512 20.0000 L 389.7114 15.0000 L 398.3717 20.0000 L 398.3717 10.0000 L 389.7114 5.0000 L 381.0512 10.0000 L 372.3909 5.0000 L 381.0512 -0.0000 L 381.0512 -10.0000 L 372.3909 -5.0000 L 363.7307 -0.0000 L 363.7307 10.0000 L 355.0704 15.0000 L 346.4102 10.0000 L 337.7499 5.0000 L 346.4102 -0.0000 L 355.0704 5.0000 L 355.0704 -5.0000 L 346.4102 -10.0000 L 337.7499 -5.0000 L 329.0897 -10.0000 L 320.4294 -15.0000 L 329.0897 -20.0000 L 337.7499 -15.0000 L 337.7499 -25.0000 L 329.0897 -30.0000 L 329.0897 -40.0000 L 337.7499 -45.0000 L 346.4102 -50.0000 L 346.4102 -40.0000 L 337.7499 -35.0000 L 346.4102 -30.0000 L 355.0704 -35.0000 L 363.7307 -30.0000 L 363.7307 -20.0000 L 355.0704 -25.0000 L 346.4102 -20.0000 L 355.0704 -15.0000 L 363.7307 -10.0000 L 372.3909 -15.0000 L 372.3909 -25.0000 L 381.0512 -30.0000 L 381.0512 -20.0000 L 389.7114 -15.0000 L 389.7114 -25.0000 L 389.7114 -35.0000 L 381.0512 -40.0000 L 372.3909 -35.0000 L 363.7307 -40.0000 L 355.0704 -45.0000 L 363.7307 -50.0000 L 372.3909 -45.0000 L 372.3909 -55.0000 L 363.7307 -60.0000 L 363.7307 -70.0000 L 372.3909 -75.0000 L 372.3909 -65.0000 L 381.0512 -60.0000 L 381.0512 -70.0000 L 381.0512 -80.0000 L 372.3909 -85.0000 L 372.3909 -95.0000 L 381.0512 -100.0000 L 389.7114 -105.0000 L 389.7114 -95.0000 L 381.0512 -90.0000 L 389.7114 -85.0000 L 398.3717 -90.0000 L 398.3717 -100.0000 L 407.0319 -105.0000 L 415.6922 -110.0000 L 415.6922 -100.0000 L 407.0319 -95.0000 L 415.6922 -90.0000 L 424.3524 -95.0000 L 433.0127 -90.0000 L 433.0127 -80.0000 L 433.0127 -70.0000 L 424.3524 -75.0000 L 424.3524 -85.0000 L 415.6922 -80.0000 L 415.6922 -70.0000 L 407.0319 -65.0000 L 398.3717 -70.0000 L 407.0319 -75.0000 L 407.0319 -85.0000 L 398.3717 -80.0000 L 389.7114 -75.0000 L 389.7114 -65.0000 L 398.3717 -60.0000 L 398.3717 -50.0000 L 389.7114 -55.0000 L 381.0512 -50.0000 L 389.7114 -45.0000 L 398.3717 -40.0000 L 407.0319 -45.0000 L 407.0319 -55.0000 L 415.6922 -60.0000 L 424.3524 -65.0000 L 424.3524 -55.0000 L 415.6922 -50.0000 L 424.3524 -45.0000 L 433.0127 -50.0000 L 441.6730 -45.0000 L 441.6730 -35.0000 L 433.0127 -40.0000 L 424.3524 -35.0000 L 433.0127 -30.0000 L 441.6730 -25.0000 L 450.3332 -30.0000 L 458.9935 -25.0000 L 458.9935 -15.0000 L 458.9935 -5.0000 L 450.3332 -10.0000 L 450.3332 -20.0000 L 441.6730 -15.0000 L 441.6730 -5.0000 L 433.0127 -0.0000 L 424.3524 -5.0000 L 415.6922 -10.0000 L 424.3524 -15.0000 L 433.0127 -10.0000 L 433.0127 -20.0000 L 424.3524 -25.0000 L 415.6922 -20.0000 L 407.0319 -25.0000 L 415.6922 -30.0000 L 415.6922 -40.0000 L 407.0319 -35.0000 L 398.3717 -30.0000 L 398.3717 -20.0000 L 407.0319 -15.0000 L 407.0319 -5.0000 L 398.3717 -10.0000 L 389.7114 -5.0000 L 398.3717 -0.0000 L 407.0319 5.0000 L 415.6922 -0.0000 L 424.3524 5.0000 L 424.3524 15.0000 L 415.6922 10.0000 L 407.0319 15.0000 L 415.6922 20.0000 L 424.3524 25.0000 L 433.0127 20.0000 L 433.0127 10.0000 L 441.6730 5.0000 L 450.3332 -0.0000 L 450.3332 10.0000 L 441.6730 15.0000 L 450.3332 20.0000 L 458.9935 15.0000 L 458.9935 5.0000 L 467.6537 -0.0000 L 467.6537 10.0000 L 476.3140 15.0000 L 476.3140 5.0000 L 476.3140 -5.0000 L 467.6537 -10.0000 L 467.6537 -20.0000 L 476.3140 -25.0000 L 484.9742 -30.0000 L 484.9742 -20.0000 L 476.3140 -15.0000 L 484.9742 -10.0000 L 493.6345 -15.0000 L 502.2947 -10.0000 L 502.2947 -0.0000 L 502.2947 10.0000 L 493.6345 5.0000 L 493.6345 -5.0000 L 484.9742 -0.0000 L 484.9742 10.0000 L 493.6345 15.0000 L 493.6345 25.0000 L 484.9742 20.0000 L 476.3140 25.0000 L 484.9742 30.0000 L 493.6345 35.0000 L 502.2947 30.0000 L 502.2947 20.0000 L 510.9550 15.0000 L 510.9550 25.0000 L 519.6152 30.0000 L 519.6152 20.0000 L 519.6152 10.0000 L 510.9550 5.0000 L 510.9550 -5.0000 L 519.6152 -10.0000 L 519.6152 -0.0000 L 528.2755 5.0000 L 528.2755 -5.0000 L 528.2755 -15.0000 L 519.6152 -20.0000 L 510.9550 -15.0000 L 502.2947 -20.0000 L 493.6345 -25.0000 L 502.2947 -30.0000 L 510.9550 -25.0000 L 510.9550 -35.0000 L 502.2947 -40.0000 L 493.6345 -35.0000 L 484.9742 -40.0000 L 493.6345 -45.0000 L 493.6345 -55.0000 L 484.9742 -50.0000 L 476.3140 -45.0000 L 476.3140 -35.0000 L 467.6537 -30.0000 L 458.9935 -35.0000 L 450.3332 -40.0000 L 458.9935 -45.0000 L 467.6537 -40.0000 L 467.6537 -50.0000 L 458.9935 -55.0000 L 450.3332 -50.0000 L 441.6730 -55.0000 L 433.0127 -60.0000 L 441.6730 -65.0000 L 450.3332 -60.0000 L 450.3332 -70.0000 L 441.6730 -75.0000 L 441.6730 -85.0000 L 450.3332 -90.0000 L 458.9935 -95.0000 L 458.9935 -85.0000 L 450.3332 -80.0000 L 458.9935 -75.0000 L 467.6537 -80.0000 L 476.3140 -75.0000 L 476.3140 -65.0000 L 467.6537 -70.0000 L 458.9935 -65.0000 L 467.6537 -60.0000 L 476.3140 -55.0000 L 484.9742 -60.0000 L 484.9742 -70.0000 L 493.6345 -75.0000 L 493.6345 -65.0000 L 502.2947 -60.0000 L 502.2947 -70.0000 L 502.2947 -80.0000 L 493.6345 -85.0000 L 484.9742 -80.0000 L 476.3140 -85.0000 L 467.6537 -90.0000 L 476.3140 -95.0000 L 484.9742 -90.0000 L 484.9742 -100.0000 L 476.3140 -105.0000 L 476.3140 -115.0000 " stroke-width="1" stroke="black" fill="none"/></svg>
